<?xml version="1.0" encoding="utf-8"?>
<!-- Generator: Adobe Illustrator 25.2.2, SVG Export Plug-In . SVG Version: 6.00 Build 0)  -->
<svg version="1.1" id="Capa_1" xmlns="http://www.w3.org/2000/svg" xmlns:xlink="http://www.w3.org/1999/xlink" x="0px" y="0px"
	 viewBox="0 0 512 512" style="enable-background:new 0 0 512 512;" xml:space="preserve">
<style type="text/css">
	.st0{fill:#FFFFFF;}
</style>
<g>
	<path class="st0" d="M490.8,113.5c-20-11.6-45.8-4.7-57.4,15.4l-37.3,64.6V140c0-5.5-4.5-10-10-10c-5.5,0-10,4.5-10,10v88v0.1
		L266.4,418.3c-0.7,1.2-1.1,2.5-1.3,3.9l-7.5,69.8H20.2V20h356v30c0,5.5,4.5,10,10,10c5.5,0,10-4.5,10-10V10c0-5.5-4.5-10-10-10
		h-376c-5.5,0-10,4.5-10,10v492c0,5.5,4.5,10,10,10h376c5.5,0,10-4.5,10-10V361.5l110-190.5C517.8,150.9,510.9,125.1,490.8,113.5
		L490.8,113.5z M283.3,439.7l28.8,16.6l-33.2,24.3L283.3,439.7z M376.2,492h-79l39.2-28.6c1.1-0.8,2.1-1.9,2.8-3.1l37.1-64.2V492z
		 M326.8,441.7l-38.1-22L435,166.2l38.1,22L326.8,441.7z M488.9,160.9l-5.7,9.9l-38.1-22l5.7-9.9c6.1-10.5,19.5-14.1,30-8.1
		C491.3,136.9,494.9,150.4,488.9,160.9L488.9,160.9z"/>
	<path class="st0" d="M386.2,85c-2.6,0-5.2,1.1-7.1,2.9s-2.9,4.4-2.9,7.1c0,2.6,1.1,5.2,2.9,7.1s4.4,2.9,7.1,2.9s5.2-1.1,7.1-2.9
		s2.9-4.4,2.9-7.1s-1.1-5.2-2.9-7.1S388.8,85,386.2,85z"/>
	<path class="st0" d="M299.2,106h-202c-5.5,0-10,4.5-10,10s4.5,10,10,10h202c5.5,0,10-4.5,10-10S304.7,106,299.2,106z"/>
	<path class="st0" d="M299.2,162h-202c-5.5,0-10,4.5-10,10s4.5,10,10,10h202c5.5,0,10-4.5,10-10S304.7,162,299.2,162z"/>
	<path class="st0" d="M299.2,218h-74.2c-5.5,0-10,4.5-10,10s4.5,10,10,10h74.2c5.5,0,10-4.5,10-10S304.7,218,299.2,218z"/>
	<path class="st0" d="M309.2,284c0-5.5-4.5-10-10-10h-202c-5.5,0-10,4.5-10,10s4.5,10,10,10h202C304.7,294,309.2,289.5,309.2,284z"
		/>
	<path class="st0" d="M266.2,340c0-5.5-4.5-10-10-10h-62.5c-5.5,0-10,4.5-10,10s4.5,10,10,10h62.5C261.7,350,266.2,345.5,266.2,340z
		"/>
	<path class="st0" d="M97.2,406h88c5.5,0,10-4.5,10-10s-4.5-10-10-10h-88c-5.5,0-10,4.5-10,10S91.7,406,97.2,406z"/>
	<path class="st0" d="M97.2,238h66.7c5.5,0,10-4.5,10-10s-4.5-10-10-10H97.2c-5.5,0-10,4.5-10,10S91.7,238,97.2,238z"/>
	<path class="st0" d="M97.2,350h51.5c5.5,0,10-4.5,10-10s-4.5-10-10-10H97.2c-5.5,0-10,4.5-10,10S91.7,350,97.2,350z"/>
</g>
</svg>
