<?xml version="1.0" encoding="utf-8"?>
<!-- Generator: Adobe Illustrator 25.2.2, SVG Export Plug-In . SVG Version: 6.00 Build 0)  -->
<svg version="1.1" id="Capa_1" xmlns="http://www.w3.org/2000/svg" xmlns:xlink="http://www.w3.org/1999/xlink" x="0px" y="0px"
	 viewBox="0 0 512 512" style="enable-background:new 0 0 512 512;" xml:space="preserve">
<style type="text/css">
	.st0{fill:#FFFFFF;}
</style>
<g>
	<g>
		<path class="st0" d="M358.4,25.6h-8.5c-4.7,0-8.5,3.8-8.5,8.5s3.8,8.5,8.5,8.5h8.5c4.7,0,8.5-3.8,8.5-8.5
			C366.9,29.4,363.1,25.6,358.4,25.6z"/>
	</g>
</g>
<g>
	<path class="st0" d="M213.3,42.7h85.3c4.7,0,8.5-3.8,8.5-8.5s-3.8-8.5-8.5-8.5h-85.3c-4.7,0-8.5,3.8-8.5,8.5S208.6,42.7,213.3,42.7
		z"/>
	<path class="st0" d="M266.6,435.2h-21.2c-13,0-23.5,10.6-23.5,23.5v4.1c0,13,10.6,23.5,23.5,23.5h21.2c13,0,23.5-10.6,23.5-23.5
		v-4.1C290.1,445.8,279.6,435.2,266.6,435.2z M273.1,462.9c0,3.6-2.9,6.5-6.5,6.5h-21.2c-3.6,0-6.5-2.9-6.5-6.5v-4.1
		c0-3.6,2.9-6.5,6.5-6.5h21.2c3.6,0,6.5,2.9,6.5,6.5V462.9z"/>
	<path class="st0" d="M401.1,59.7C401.1,59.7,401.1,59.7,401.1,59.7l0-28.9c0-17-13.8-30.8-30.8-30.8H141.8
		c-17,0-30.8,13.8-30.8,30.8v450.3c0,17,13.8,30.8,30.8,30.8h228.4c17,0,30.8-13.8,30.8-30.8v-63c0,0,0,0,0,0V59.7z M128,68.3h256
		v341.3H128V68.3z M141.8,17.1h228.4c7.6,0,13.8,6.2,13.8,13.8v20.4H128V30.8C128,23.3,134.2,17.1,141.8,17.1z M370.2,494.9H141.8
		c-7.6,0-13.8-6.2-13.8-13.8v-54.5h256v54.5h0C384,488.7,377.8,494.9,370.2,494.9z"/>
</g>
</svg>
