<svg id="Layer_1" data-name="Layer 1" xmlns="http://www.w3.org/2000/svg" viewBox="0 0 250 158"><defs><style>.cls-1{fill:#fdad9a;}.cls-2{fill:#00453f;}.cls-3{fill:none;stroke:#00453f;stroke-miterlimit:10;stroke-width:0.54px;}</style></defs><title>About-Us_Green_Icon-option</title><path class="cls-1" d="M109.5,88.8c-0.07,0,0-.07,0-0.11a0,0,0,0,1,0,0,0.12,0.12,0,0,1,.06.1A0,0,0,0,1,109.5,88.8Z"/><path class="cls-2" d="M137.48,61.52a10.48,10.48,0,0,1-14.63,15l-1.41,1.41a2.9,2.9,0,0,1-.48,3.45l-6.23,6.23a2.9,2.9,0,0,1-4.09-4.1l6.23-6.23a2.91,2.91,0,0,1,3.45-.47l1.46-1.47A10.48,10.48,0,0,1,137.48,61.52ZM139,68.93A8.9,8.9,0,0,0,130.07,60,8.89,8.89,0,1,0,139,68.93Z"/><path class="cls-3" d="M135,64a7,7,0,1,1-9.84,0A7,7,0,0,1,135,64Z"/><path class="cls-2" d="M38.68,111.49l0.51,0c0.36,0,.5-0.1.5-0.49v-6.88c0-.39-0.14-0.47-0.5-0.49l-0.51,0v-0.34h6.53L45.6,106H45.37L44,103.87a0.32,0.32,0,0,0-.37-0.19H41.17v3.44h1.51A0.19,0.19,0,0,0,42.9,107l0.49-1.41h0.24v3.59H43.39l-0.49-1.41a0.18,0.18,0,0,0-.23-0.14H41.17v3.78h3a0.31,0.31,0,0,0,.33-0.16l1.8-2.2h0.24l-0.81,2.8h-7v-0.34Z"/><path class="cls-2" d="M46.72,111.49l0.43,0A1.14,1.14,0,0,0,48,111l2.75-3.34-2.53-3.61a0.87,0.87,0,0,0-.75-0.45l-0.43,0v-0.34h3.69v0.34l-0.53,0c-0.37,0-.5.14-0.28,0.44l1.76,2.5,2.05-2.5c0.24-.28.19-0.41-0.18-0.44l-0.53,0v-0.34h2.6v0.34l-0.43,0a1.17,1.17,0,0,0-.86.45L51.94,107,54.79,111a0.9,0.9,0,0,0,.76.45l0.42,0v0.34H52.28v-0.34l0.53,0c0.38,0,.5-0.14.28-0.44l-2.08-3-2.42,3c-0.24.28-.19,0.41,0.18,0.44l0.53,0v0.34h-2.6v-0.34Z"/><path class="cls-2" d="M56.49,111.49l0.51,0c0.36,0,.5-0.1.5-0.49v-6.88c0-.39-0.14-0.47-0.5-0.49l-0.51,0v-0.34h3.66c2.08,0,3.72.45,3.72,2.29s-1.65,2.39-3.72,2.39H59.26v-0.43h0.79c1.45,0,2.18-.54,2.18-1.91s-0.73-1.93-2.18-1.93H59V111c0,0.39.14,0.45,0.51,0.46l0.94,0v0.36H56.49v-0.34Z"/><path class="cls-2" d="M64.63,111.49l0.51,0c0.36,0,.5-0.1.5-0.49v-6.88c0-.39-0.14-0.47-0.5-0.49l-0.51,0v-0.34h6.53l0.4,2.79H71.32L70,103.87a0.32,0.32,0,0,0-.37-0.19H67.12v3.44h1.51a0.19,0.19,0,0,0,.23-0.14l0.49-1.41h0.24v3.59H69.34l-0.49-1.41a0.18,0.18,0,0,0-.23-0.14H67.12v3.78h3a0.31,0.31,0,0,0,.33-0.16l1.8-2.2h0.24l-0.81,2.8h-7v-0.34Z"/><path class="cls-2" d="M73.29,111.49l0.51,0c0.36,0,.5-0.1.5-0.49v-6.88c0-.39-0.14-0.47-0.5-0.49l-0.51,0v-0.34h3.42c2.16,0,3.63.5,3.63,2.08,0,1.08-.77,1.88-2.34,2.13l3.85,4.39H80l-3.66-4.21H75.78V111c0,0.39.14,0.46,0.51,0.49l0.51,0v0.34H73.29v-0.34Zm3.33-4.3c1.36,0,2.1-.57,2.1-1.77s-0.74-1.77-2.1-1.77H75.78v3.54h0.84Z"/><path class="cls-2" d="M83.82,111.48l0.74,0c0.36,0,.5-0.08.5-0.46v-7.35h-1.6a0.32,0.32,0,0,0-.37.19l-1.21,2.27H81.64l0.26-2.86h7.79L90,106.09H89.72l-1.21-2.27a0.31,0.31,0,0,0-.36-0.19H86.53V111c0,0.39.14,0.44,0.51,0.46l0.74,0v0.35h-4v-0.35Z"/><path class="cls-2" d="M100.69,111.46l0.44,0v0.34H97.56v-0.34l0.53,0c0.39,0,.52-0.11.39-0.45l-0.86-2.17H94.54L93.68,111c-0.14.34,0,.43,0.38,0.45l0.53,0v0.34H92v-0.34l0.43,0a0.63,0.63,0,0,0,.66-0.45l3.36-8.26h0.19L100,111A0.62,0.62,0,0,0,100.69,111.46Zm-5.94-3.18H97.4L96.09,105Z"/><path class="cls-2" d="M101.9,108.47v-4.38c0-.39-0.15-0.47-0.51-0.49l-0.51,0v-0.34h3.51v0.34l-0.51,0c-0.36,0-.5.1-0.5,0.49v4.42c0,2,.84,2.78,2.5,2.78s2.59-.93,2.59-2.91v-4.29c0-.39-0.14-0.47-0.5-0.49l-0.51,0v-0.34H110v0.34l-0.51,0c-0.36,0-.51.1-0.51,0.49v4.37a3.15,3.15,0,0,1-3.51,3.51C103.22,112,101.9,110.89,101.9,108.47Z"/><path class="cls-2" d="M112.72,111.48l0.74,0c0.36,0,.5-0.08.5-0.46v-7.35h-1.6a0.32,0.32,0,0,0-.37.19l-1.21,2.27h-0.23l0.26-2.86h7.79l0.27,2.86h-0.24l-1.21-2.27a0.31,0.31,0,0,0-.36-0.19h-1.61V111c0,0.39.14,0.44,0.51,0.46l0.74,0v0.35h-4v-0.35Z"/><path class="cls-2" d="M119.65,111.49l0.51,0c0.36,0,.5-0.1.5-0.49v-6.88c0-.39-0.14-0.47-0.5-0.49l-0.51,0v-0.34h3.51v0.34l-0.51,0c-0.37,0-.51.1-0.51,0.49v3h4.14v-3c0-.39-0.14-0.47-0.5-0.49l-0.51,0v-0.34h3.51v0.34l-0.51,0c-0.36,0-.51.1-0.51,0.49V111c0,0.39.15,0.46,0.51,0.49l0.51,0v0.34h-3.51v-0.34l0.51,0c0.36,0,.5-0.1.5-0.49V107.6h-4.14V111c0,0.39.14,0.46,0.51,0.49l0.51,0v0.34h-3.51v-0.34Z"/><path class="cls-2" d="M129.93,111.49l0.51,0c0.36,0,.5-0.1.5-0.49v-6.88c0-.39-0.14-0.47-0.5-0.49l-0.51,0v-0.34h6.53l0.4,2.79h-0.24l-1.36-2.16a0.32,0.32,0,0,0-.37-0.19h-2.46v3.44h1.51a0.19,0.19,0,0,0,.23-0.14l0.49-1.41h0.24v3.59h-0.24l-0.49-1.41a0.18,0.18,0,0,0-.23-0.14h-1.51v3.78h3a0.31,0.31,0,0,0,.33-0.16l1.81-2.2h0.24l-0.81,2.8h-7v-0.34Z"/><path class="cls-2" d="M138.63,111.49l0.51,0c0.37,0,.51-0.1.51-0.49v-6.52l-1.09-1.2v0h1.92l5.56,6v-5.15c0-.39-0.15-0.47-0.51-0.49l-0.51,0v-0.34h2.57v0.34l-0.51,0c-0.36,0-.5.1-0.5,0.49V112h0l-6.35-7V111c0,0.39.14,0.46,0.51,0.49l0.5,0v0.34h-2.57v-0.34Z"/><path class="cls-2" d="M150.44,111.48l0.74,0c0.36,0,.5-0.08.5-0.46v-7.35h-1.6a0.32,0.32,0,0,0-.37.19l-1.21,2.27h-0.23l0.26-2.86h7.79l0.27,2.86h-0.24l-1.21-2.27a0.31,0.31,0,0,0-.36-0.19h-1.61V111c0,0.39.14,0.44,0.51,0.46l0.74,0v0.35h-4v-0.35Z"/><path class="cls-2" d="M157.37,111.49l0.51,0c0.36,0,.5-0.1.5-0.49v-6.88c0-.39-0.14-0.47-0.5-0.49l-0.51,0v-0.34h3.51v0.34l-0.51,0c-0.37,0-.51.1-0.51,0.49V111c0,0.39.14,0.46,0.51,0.49l0.51,0v0.34h-3.51v-0.34Z"/><path class="cls-2" d="M161.84,107.5c0-2.72,2-4.48,5-4.48a7.35,7.35,0,0,1,2.68.45l0.5,2.71h-0.24l-1.37-2.12a1,1,0,0,0-.6-0.49,3.69,3.69,0,0,0-1-.11c-1.67,0-3.3,1-3.3,3.75,0,2.41,1.17,4.34,3.43,4.34a3.69,3.69,0,0,0,1-.11,1.05,1.05,0,0,0,.6-0.5l1.37-2.11h0.24l-0.53,2.7a8.27,8.27,0,0,1-2.84.45C163.87,112,161.84,110.22,161.84,107.5Z"/><path class="cls-2" d="M179,111.46l0.44,0v0.34H175.9v-0.34l0.53,0c0.39,0,.52-0.11.39-0.45L176,108.84h-3.08L172,111c-0.14.34,0,.43,0.37,0.45l0.53,0v0.34h-2.54v-0.34l0.43,0a0.63,0.63,0,0,0,.66-0.45l3.36-8.26H175l3.35,8.26A0.62,0.62,0,0,0,179,111.46Zm-5.94-3.18h2.65L174.42,105Z"/><path class="cls-2" d="M180.89,111.48l0.74,0c0.36,0,.5-0.08.5-0.46v-7.35h-1.6a0.32,0.32,0,0,0-.37.19l-1.21,2.27h-0.23l0.26-2.86h7.79l0.27,2.86h-0.24l-1.21-2.27a0.31,0.31,0,0,0-.36-0.19H183.6V111c0,0.39.14,0.44,0.51,0.46l0.74,0v0.35h-4v-0.35Z"/><path class="cls-2" d="M187.82,111.49l0.51,0c0.36,0,.5-0.1.5-0.49v-6.88c0-.39-0.14-0.47-0.5-0.49l-0.51,0v-0.34h3.51v0.34l-0.51,0c-0.37,0-.51.1-0.51,0.49V111c0,0.39.14,0.46,0.51,0.49l0.51,0v0.34h-3.51v-0.34Z"/><path class="cls-2" d="M192.29,107.5a4.59,4.59,0,1,1,4.59,4.47A4.4,4.4,0,0,1,192.29,107.5Zm7.53,0c0-2.6-1.2-4-2.94-4s-2.94,1.43-2.94,4,1.21,4,2.94,4S199.82,110.09,199.82,107.5Z"/><path class="cls-2" d="M202.48,111.49l0.51,0c0.37,0,.51-0.1.51-0.49v-6.52l-1.09-1.2v0h1.92l5.56,6v-5.15c0-.39-0.15-0.47-0.51-0.49l-0.51,0v-0.34h2.57v0.34l-0.51,0c-0.36,0-.5.1-0.5,0.49V112h0L204,105V111c0,0.39.14,0.46,0.51,0.49l0.5,0v0.34h-2.57v-0.34Z"/><path class="cls-2" d="M50.6,117.74h1l2.18,6.52h0L56,117.74H57l-2.83,7.72H53.34Z"/><path class="cls-2" d="M62.53,124.25a2.33,2.33,0,0,1-1,1,3,3,0,0,1-1.51.35,2.81,2.81,0,0,1-1.21-.24,2.43,2.43,0,0,1-.83-0.62,2.46,2.46,0,0,1-.48-0.87,3.31,3.31,0,0,1-.15-1,3.42,3.42,0,0,1,.19-1.17,2.69,2.69,0,0,1,.55-0.92,2.5,2.5,0,0,1,.86-0.6,2.85,2.85,0,0,1,1.13-.22,3,3,0,0,1,1,.16,2.05,2.05,0,0,1,.78.49,2.23,2.23,0,0,1,.51.83,3.46,3.46,0,0,1,.18,1.18V123h-4.3a2.16,2.16,0,0,0,.13.77,1.79,1.79,0,0,0,.36.6,1.58,1.58,0,0,0,.57.39,2,2,0,0,0,.77.14,2.11,2.11,0,0,0,.63-0.08,2,2,0,0,0,.48-0.22,1.45,1.45,0,0,0,.34-0.29,1.72,1.72,0,0,0,.22-0.32Zm-0.79-1.94a1.81,1.81,0,0,0-.11-0.62,1.59,1.59,0,0,0-.31-0.52,1.37,1.37,0,0,0-.5-0.35,1.78,1.78,0,0,0-.69-0.12,2,2,0,0,0-.81.15,1.55,1.55,0,0,0-.55.39,1.71,1.71,0,0,0-.32.52,2.41,2.41,0,0,0-.14.56h3.43Z"/><path class="cls-2" d="M63.48,120.13h1.06v-1.54h0.83v1.54H67v0.68H65.37v3.1a1.15,1.15,0,0,0,.16.62,0.68,0.68,0,0,0,.62.25,4.19,4.19,0,0,0,.56,0v0.73l-0.41,0H65.94a1.5,1.5,0,0,1-1-.32,1.46,1.46,0,0,1-.36-1.12v-3.27H63.48v-0.68Z"/><path class="cls-2" d="M67.24,120.13H68.3v-1.54h0.83v1.54h1.59v0.68H69.13v3.1a1.15,1.15,0,0,0,.16.62,0.68,0.68,0,0,0,.62.25,4.19,4.19,0,0,0,.56,0v0.73l-0.41,0H69.69a1.5,1.5,0,0,1-1-.32,1.46,1.46,0,0,1-.36-1.12v-3.27H67.24v-0.68Z"/><path class="cls-2" d="M76.77,124.25a2.33,2.33,0,0,1-1,1,3,3,0,0,1-1.51.35,2.81,2.81,0,0,1-1.21-.24,2.43,2.43,0,0,1-.83-0.62,2.46,2.46,0,0,1-.48-0.87,3.31,3.31,0,0,1-.15-1,3.42,3.42,0,0,1,.19-1.17,2.69,2.69,0,0,1,.55-0.92,2.5,2.5,0,0,1,.86-0.6,2.85,2.85,0,0,1,1.13-.22,3,3,0,0,1,1,.16,2.05,2.05,0,0,1,.78.49,2.23,2.23,0,0,1,.51.83,3.46,3.46,0,0,1,.18,1.18V123h-4.3a2.16,2.16,0,0,0,.13.77,1.79,1.79,0,0,0,.36.6,1.58,1.58,0,0,0,.57.39,2,2,0,0,0,.77.14,2.11,2.11,0,0,0,.63-0.08,2,2,0,0,0,.48-0.22,1.45,1.45,0,0,0,.34-0.29A1.72,1.72,0,0,0,76,124ZM76,122.31a1.81,1.81,0,0,0-.11-0.62,1.59,1.59,0,0,0-.31-0.52,1.37,1.37,0,0,0-.5-0.35,1.78,1.78,0,0,0-.69-0.12,2,2,0,0,0-.81.15,1.55,1.55,0,0,0-.55.39,1.71,1.71,0,0,0-.32.52,2.41,2.41,0,0,0-.14.56H76Z"/><path class="cls-2" d="M80.72,125.61a2.49,2.49,0,0,1-.88-0.16,2.25,2.25,0,0,1-.79-0.51,2.63,2.63,0,0,1-.57-0.87,3.27,3.27,0,0,1-.22-1.27,3.08,3.08,0,0,1,.2-1.14,2.79,2.79,0,0,1,.56-0.89,2.46,2.46,0,0,1,.83-0.58,2.58,2.58,0,0,1,1-.2,2.38,2.38,0,0,1,.66.08,2.19,2.19,0,0,1,.52.22,1.7,1.7,0,0,1,.39.31,2,2,0,0,1,.26.36h0v-3.51h0.82v8H82.72v-0.93h0a2,2,0,0,1-.26.35,2.31,2.31,0,0,1-.41.35,2.36,2.36,0,0,1-.57.27A2.33,2.33,0,0,1,80.72,125.61Zm-1.57-2.85a2.94,2.94,0,0,0,.13.93,1.86,1.86,0,0,0,.36.65,1.48,1.48,0,0,0,.55.39,1.78,1.78,0,0,0,.68.13,1.71,1.71,0,0,0,.66-0.14,1.76,1.76,0,0,0,.59-0.4,2.07,2.07,0,0,0,.43-0.66,2.43,2.43,0,0,0,.16-0.93,2.39,2.39,0,0,0-.12-0.78,1.88,1.88,0,0,0-.36-0.64,1.73,1.73,0,0,0-.58-0.43,1.77,1.77,0,0,0-.76-0.16,1.59,1.59,0,0,0-1.29.61,1.93,1.93,0,0,0-.33.65A2.66,2.66,0,0,0,79.15,122.76Z"/><path class="cls-2" d="M91.23,120a2.47,2.47,0,0,1,.88.17,2.25,2.25,0,0,1,.79.51,2.64,2.64,0,0,1,.57.88,3.27,3.27,0,0,1,.22,1.26,3.08,3.08,0,0,1-.2,1.14,2.78,2.78,0,0,1-.56.89,2.44,2.44,0,0,1-.83.58,2.57,2.57,0,0,1-1,.2,2.23,2.23,0,0,1-.69-0.1,2.07,2.07,0,0,1-.52-0.24,1.84,1.84,0,0,1-.37-0.32,2.12,2.12,0,0,1-.24-0.33h0v0.85H88.4v-8h0.84v3.62h0a2.7,2.7,0,0,1,.24-0.31,2.27,2.27,0,0,1,.41-0.36,2.62,2.62,0,0,1,.57-0.29A2.11,2.11,0,0,1,91.23,120Zm1.57,2.84a3,3,0,0,0-.13-0.92,1.85,1.85,0,0,0-.36-0.66,1.49,1.49,0,0,0-.55-0.39,1.78,1.78,0,0,0-.68-0.13,1.69,1.69,0,0,0-.66.14,1.76,1.76,0,0,0-.59.4,2,2,0,0,0-.42.67,2.52,2.52,0,0,0-.16.93,2.39,2.39,0,0,0,.13.78,1.89,1.89,0,0,0,.36.64,1.76,1.76,0,0,0,.57.43,1.73,1.73,0,0,0,.76.16,1.59,1.59,0,0,0,1.29-.61,2,2,0,0,0,.33-0.65A2.69,2.69,0,0,0,92.79,122.82Z"/><path class="cls-2" d="M96.83,125.36l-2.11-5.24h1l1.62,4.34h0L99,120.13h0.91l-3.17,7.61H95.8Z"/><path class="cls-2" d="M103.26,120.13h1.06v-1.54h0.83v1.54h1.59v0.68h-1.59v3.1a1.15,1.15,0,0,0,.16.62,0.68,0.68,0,0,0,.62.25,4.19,4.19,0,0,0,.56,0v0.73l-0.41,0h-0.36a1.5,1.5,0,0,1-1-.32,1.46,1.46,0,0,1-.36-1.12v-3.27h-1.06v-0.68Z"/><path class="cls-2" d="M111.69,122.25a1.78,1.78,0,0,0-.12-0.7,1.27,1.27,0,0,0-.31-0.45,1.08,1.08,0,0,0-.41-0.24,1.59,1.59,0,0,0-.45-0.07,1.54,1.54,0,0,0-.58.11,1.65,1.65,0,0,0-.52.33,1.62,1.62,0,0,0-.37.53,1.77,1.77,0,0,0-.14.73v3h-0.84v-8h0.84V121h0a1.69,1.69,0,0,1,.76-0.75,2.4,2.4,0,0,1,1.07-.24,2.68,2.68,0,0,1,.57.07,1.74,1.74,0,0,1,1.13.83,1.75,1.75,0,0,1,.21.91v3.59h-0.84v-3.21Z"/><path class="cls-2" d="M119.29,124.25a2.33,2.33,0,0,1-1,1,3,3,0,0,1-1.51.35,2.81,2.81,0,0,1-1.21-.24,2.43,2.43,0,0,1-.83-0.62,2.46,2.46,0,0,1-.48-0.87,3.31,3.31,0,0,1-.15-1,3.42,3.42,0,0,1,.19-1.17,2.69,2.69,0,0,1,.55-0.92,2.5,2.5,0,0,1,.86-0.6,2.85,2.85,0,0,1,1.13-.22,3,3,0,0,1,1,.16,2.05,2.05,0,0,1,.78.49,2.23,2.23,0,0,1,.51.83,3.46,3.46,0,0,1,.18,1.18V123h-4.3a2.16,2.16,0,0,0,.13.77,1.79,1.79,0,0,0,.36.6,1.58,1.58,0,0,0,.57.39,2,2,0,0,0,.77.14,2.11,2.11,0,0,0,.63-0.08,2,2,0,0,0,.48-0.22,1.45,1.45,0,0,0,.34-0.29,1.72,1.72,0,0,0,.22-0.32Zm-0.79-1.94a1.81,1.81,0,0,0-.11-0.62,1.59,1.59,0,0,0-.31-0.52,1.37,1.37,0,0,0-.5-0.35,1.78,1.78,0,0,0-.69-0.12,2,2,0,0,0-.81.15,1.55,1.55,0,0,0-.55.39,1.71,1.71,0,0,0-.32.52,2.41,2.41,0,0,0-.14.56h3.43Z"/><path class="cls-2" d="M124.16,117.74H125v7.72h-0.86v-7.72Z"/><path class="cls-2" d="M130.94,122.25a1.78,1.78,0,0,0-.12-0.7,1.28,1.28,0,0,0-.31-0.45,1.08,1.08,0,0,0-.41-0.24,1.59,1.59,0,0,0-.45-0.07,1.54,1.54,0,0,0-.58.11,1.59,1.59,0,0,0-.51.33,1.67,1.67,0,0,0-.37.53,1.77,1.77,0,0,0-.14.73v3H127.2v-5.34H128V121h0a1.7,1.7,0,0,1,.75-0.75,2.36,2.36,0,0,1,1.06-.24,2.68,2.68,0,0,1,.57.07,1.74,1.74,0,0,1,1.13.83,1.75,1.75,0,0,1,.21.91v3.59h-0.84v-3.21Z"/><path class="cls-2" d="M135.91,125.61a2.49,2.49,0,0,1-.88-0.16,2.25,2.25,0,0,1-.79-0.51,2.63,2.63,0,0,1-.57-0.87,3.27,3.27,0,0,1-.22-1.27,3.08,3.08,0,0,1,.2-1.14,2.79,2.79,0,0,1,.56-0.89,2.46,2.46,0,0,1,.83-0.58,2.58,2.58,0,0,1,1-.2,2.38,2.38,0,0,1,.66.08,2.19,2.19,0,0,1,.52.22,1.7,1.7,0,0,1,.39.31,2,2,0,0,1,.26.36h0v-3.51h0.82v8h-0.82v-0.93h0a2,2,0,0,1-.26.35,2.31,2.31,0,0,1-.41.35,2.36,2.36,0,0,1-.57.27A2.33,2.33,0,0,1,135.91,125.61Zm-1.57-2.85a2.94,2.94,0,0,0,.13.93,1.86,1.86,0,0,0,.36.65,1.48,1.48,0,0,0,.55.39,1.78,1.78,0,0,0,.68.13,1.71,1.71,0,0,0,.66-0.14,1.76,1.76,0,0,0,.59-0.4,2.07,2.07,0,0,0,.43-0.66,2.43,2.43,0,0,0,.16-0.93,2.39,2.39,0,0,0-.12-0.78,1.88,1.88,0,0,0-.36-0.64,1.73,1.73,0,0,0-.58-0.43,1.77,1.77,0,0,0-.76-0.16,1.59,1.59,0,0,0-1.29.61,1.93,1.93,0,0,0-.33.65A2.66,2.66,0,0,0,134.35,122.76Z"/><path class="cls-2" d="M141.49,123.35a1.78,1.78,0,0,0,.12.7,1.27,1.27,0,0,0,.31.45,1.07,1.07,0,0,0,.41.24,1.53,1.53,0,0,0,1,0,1.56,1.56,0,0,0,.52-0.33,1.71,1.71,0,0,0,.52-1.27v-3h0.83v5.34h-0.83v-0.91h0a1.69,1.69,0,0,1-.76.75,2.4,2.4,0,0,1-1.07.24,2.6,2.6,0,0,1-.56-0.07,1.86,1.86,0,0,1-.62-0.28,1.68,1.68,0,0,1-.51-0.56,1.82,1.82,0,0,1-.2-0.92v-3.59h0.83v3.23Z"/><path class="cls-2" d="M150.43,121.66a1.34,1.34,0,0,0-.1-0.4,0.91,0.91,0,0,0-.23-0.32,1.11,1.11,0,0,0-.39-0.22,1.86,1.86,0,0,0-.59-0.08,1.84,1.84,0,0,0-.48.06,1.43,1.43,0,0,0-.41.18,0.93,0.93,0,0,0-.28.29,0.71,0.71,0,0,0-.11.39,0.79,0.79,0,0,0,.07.35,0.52,0.52,0,0,0,.23.22,1.82,1.82,0,0,0,.41.15l0.62,0.12a7.7,7.7,0,0,1,.87.17,2.46,2.46,0,0,1,.67.27,1.25,1.25,0,0,1,.44.44,1.35,1.35,0,0,1,.16.69,1.58,1.58,0,0,1-.12.6,1.34,1.34,0,0,1-.39.52,2.07,2.07,0,0,1-.7.37,3.41,3.41,0,0,1-1.06.14,4,4,0,0,1-1.06-.12,1.79,1.79,0,0,1-.68-0.33,1.3,1.3,0,0,1-.37-0.51,2.33,2.33,0,0,1-.15-0.66h0.84a1.14,1.14,0,0,0,.08.36,0.69,0.69,0,0,0,.23.3,1.27,1.27,0,0,0,.43.2,2.44,2.44,0,0,0,.66.07,2.29,2.29,0,0,0,1-.21,0.71,0.71,0,0,0,.41-0.68,0.84,0.84,0,0,0-.07-0.35,0.6,0.6,0,0,0-.24-0.25,1.79,1.79,0,0,0-.48-0.19,7.65,7.65,0,0,0-.77-0.15,7.33,7.33,0,0,1-.76-0.14,2,2,0,0,1-.6-0.24,1.14,1.14,0,0,1-.39-0.41,1.37,1.37,0,0,1-.14-0.67,1.47,1.47,0,0,1,.17-0.73,1.5,1.5,0,0,1,.47-0.51,2.13,2.13,0,0,1,.69-0.31,3.4,3.4,0,0,1,.85-0.1,2.93,2.93,0,0,1,.82.11,2,2,0,0,1,.65.32,1.46,1.46,0,0,1,.43.52,1.64,1.64,0,0,1,.15.73h-0.82Z"/><path class="cls-2" d="M152.09,120.13h1.06v-1.54H154v1.54h1.59v0.68H154v3.1a1.15,1.15,0,0,0,.16.62,0.68,0.68,0,0,0,.62.25,4.19,4.19,0,0,0,.56,0v0.73l-0.41,0h-0.36a1.5,1.5,0,0,1-1-.32,1.46,1.46,0,0,1-.36-1.12v-3.27h-1.06v-0.68Z"/><path class="cls-2" d="M156.76,120.13h0.82v1.29h0a1.87,1.87,0,0,1,.26-0.44,2.55,2.55,0,0,1,.44-0.44,2.49,2.49,0,0,1,.57-0.34,1.62,1.62,0,0,1,.65-0.14h0.3v0.81h-0.27a1.77,1.77,0,0,0-.76.17,1.89,1.89,0,0,0-.61.45,2.19,2.19,0,0,0-.41.69,2.41,2.41,0,0,0-.15.87v2.42h-0.84v-5.34Z"/><path class="cls-2" d="M162.44,125.36l-2.11-5.24h1l1.62,4.34h0l1.65-4.34h0.91l-3.17,7.61h-0.91Z"/><path class="cls-2" d="M167.24,117.6l0.83,0.22-1.18,2.4-0.52-.14Z"/><path class="cls-2" d="M172.3,121.66a1.34,1.34,0,0,0-.1-0.4,0.91,0.91,0,0,0-.23-0.32,1.11,1.11,0,0,0-.39-0.22,1.86,1.86,0,0,0-.59-0.08,1.84,1.84,0,0,0-.48.06,1.43,1.43,0,0,0-.41.18,0.93,0.93,0,0,0-.28.29,0.71,0.71,0,0,0-.11.39,0.79,0.79,0,0,0,.07.35,0.52,0.52,0,0,0,.23.22,1.82,1.82,0,0,0,.41.15l0.62,0.12a7.7,7.7,0,0,1,.87.17,2.46,2.46,0,0,1,.67.27,1.25,1.25,0,0,1,.44.44,1.35,1.35,0,0,1,.16.69,1.58,1.58,0,0,1-.12.6,1.34,1.34,0,0,1-.39.52,2.07,2.07,0,0,1-.7.37,3.41,3.41,0,0,1-1.06.14,4,4,0,0,1-1.06-.12,1.79,1.79,0,0,1-.68-0.33,1.3,1.3,0,0,1-.37-0.51,2.33,2.33,0,0,1-.15-0.66h0.84a1.14,1.14,0,0,0,.08.36,0.69,0.69,0,0,0,.23.3,1.27,1.27,0,0,0,.43.2,2.44,2.44,0,0,0,.66.07,2.29,2.29,0,0,0,1-.21,0.71,0.71,0,0,0,.41-0.68,0.84,0.84,0,0,0-.07-0.35,0.6,0.6,0,0,0-.24-0.25,1.79,1.79,0,0,0-.48-0.19,7.65,7.65,0,0,0-.77-0.15,7.33,7.33,0,0,1-.76-0.14,2,2,0,0,1-.6-0.24,1.14,1.14,0,0,1-.39-0.41,1.37,1.37,0,0,1-.14-0.67,1.47,1.47,0,0,1,.17-0.73,1.5,1.5,0,0,1,.47-0.51,2.13,2.13,0,0,1,.69-0.31,3.4,3.4,0,0,1,.85-0.1,2.93,2.93,0,0,1,.82.11,2,2,0,0,1,.65.32,1.46,1.46,0,0,1,.43.52,1.64,1.64,0,0,1,.15.73H172.3Z"/><path class="cls-2" d="M177.74,117.74H180a3.54,3.54,0,0,1,.92.11,2.09,2.09,0,0,1,.73.35,1.63,1.63,0,0,1,.48.57,1.69,1.69,0,0,1,.17.78,2.19,2.19,0,0,1-.28,1.13,1.93,1.93,0,0,1-.94.77h0a3.16,3.16,0,0,1,.56.17,1.61,1.61,0,0,1,.87.87,2.2,2.2,0,0,1-.07,1.73,2.06,2.06,0,0,1-.58.68,2.65,2.65,0,0,1-.85.42,3.44,3.44,0,0,1-1,.14h-2.27v-7.72Zm2,3.43a1.81,1.81,0,0,0,1.17-.36,1.3,1.3,0,0,0,.45-1.08,1.28,1.28,0,0,0-.14-0.64,1.05,1.05,0,0,0-.38-0.39,1.56,1.56,0,0,0-.55-0.19,3.84,3.84,0,0,0-.64-0.05H178.6v2.71h1.17Zm0.22,3.51a2.64,2.64,0,0,0,.69-0.09,1.65,1.65,0,0,0,.55-0.25,1.23,1.23,0,0,0,.37-0.44,1.36,1.36,0,0,0,.14-0.63,1.17,1.17,0,0,0-.49-1.07,2.46,2.46,0,0,0-1.34-.31H178.6v2.79H180Z"/><path class="cls-2" d="M189.27,124.25a2.33,2.33,0,0,1-1,1,3,3,0,0,1-1.51.35,2.81,2.81,0,0,1-1.21-.24,2.43,2.43,0,0,1-.83-0.62,2.46,2.46,0,0,1-.48-0.87,3.31,3.31,0,0,1-.15-1,3.42,3.42,0,0,1,.19-1.17,2.69,2.69,0,0,1,.55-0.92,2.5,2.5,0,0,1,.86-0.6,2.85,2.85,0,0,1,1.13-.22,3,3,0,0,1,1,.16,2.05,2.05,0,0,1,.78.49,2.23,2.23,0,0,1,.51.83,3.46,3.46,0,0,1,.18,1.18V123H185a2.16,2.16,0,0,0,.13.77,1.79,1.79,0,0,0,.36.6,1.58,1.58,0,0,0,.57.39,2,2,0,0,0,.77.14,2.11,2.11,0,0,0,.63-0.08,2,2,0,0,0,.48-0.22,1.45,1.45,0,0,0,.34-0.29,1.72,1.72,0,0,0,.22-0.32Zm-0.79-1.94a1.81,1.81,0,0,0-.11-0.62,1.59,1.59,0,0,0-.31-0.52,1.37,1.37,0,0,0-.5-0.35,1.78,1.78,0,0,0-.69-0.12,2,2,0,0,0-.81.15,1.55,1.55,0,0,0-.55.39,1.71,1.71,0,0,0-.32.52,2.41,2.41,0,0,0-.14.56h3.43Z"/><path class="cls-2" d="M194.24,121.66a1.34,1.34,0,0,0-.1-0.4,0.91,0.91,0,0,0-.23-0.32,1.11,1.11,0,0,0-.39-0.22,1.86,1.86,0,0,0-.59-0.08,1.84,1.84,0,0,0-.48.06,1.43,1.43,0,0,0-.41.18,0.93,0.93,0,0,0-.28.29,0.71,0.71,0,0,0-.11.39,0.79,0.79,0,0,0,.07.35,0.52,0.52,0,0,0,.23.22,1.82,1.82,0,0,0,.41.15l0.62,0.12a7.7,7.7,0,0,1,.87.17,2.46,2.46,0,0,1,.67.27,1.25,1.25,0,0,1,.44.44,1.35,1.35,0,0,1,.16.69,1.58,1.58,0,0,1-.12.6,1.34,1.34,0,0,1-.39.52,2.07,2.07,0,0,1-.7.37,3.41,3.41,0,0,1-1.06.14,4,4,0,0,1-1.06-.12,1.79,1.79,0,0,1-.68-0.33,1.3,1.3,0,0,1-.37-0.51,2.33,2.33,0,0,1-.15-0.66h0.84a1.14,1.14,0,0,0,.08.36,0.69,0.69,0,0,0,.23.3,1.27,1.27,0,0,0,.43.2,2.44,2.44,0,0,0,.66.07,2.29,2.29,0,0,0,1-.21,0.71,0.71,0,0,0,.41-0.68,0.84,0.84,0,0,0-.07-0.35,0.6,0.6,0,0,0-.24-0.25,1.79,1.79,0,0,0-.48-0.19,7.65,7.65,0,0,0-.77-0.15,7.33,7.33,0,0,1-.76-0.14,2,2,0,0,1-.6-0.24,1.14,1.14,0,0,1-.39-0.41,1.37,1.37,0,0,1-.14-0.67,1.47,1.47,0,0,1,.17-0.73,1.5,1.5,0,0,1,.47-0.51,2.13,2.13,0,0,1,.69-0.31A3.4,3.4,0,0,1,193,120a2.93,2.93,0,0,1,.82.11,2,2,0,0,1,.65.32,1.46,1.46,0,0,1,.43.52,1.64,1.64,0,0,1,.15.73h-0.82Z"/><path class="cls-2" d="M195.9,120.13H197v-1.54h0.83v1.54h1.59v0.68h-1.59v3.1a1.15,1.15,0,0,0,.16.62,0.68,0.68,0,0,0,.62.25,4.19,4.19,0,0,0,.56,0v0.73l-0.41,0h-0.36a1.5,1.5,0,0,1-1-.32,1.46,1.46,0,0,1-.36-1.12v-3.27H195.9v-0.68Z"/></svg>