<svg id="Layer_1" data-name="Layer 1" xmlns="http://www.w3.org/2000/svg" viewBox="0 0 250 158"><defs><style>.cls-1{fill:#00453f;}</style></defs><title>About-Us_Green_Icon-option</title><polygon class="cls-1" points="132.26 61.54 130.06 65.52 126.19 65.52 128.25 61.54 132.26 61.54"/><polygon class="cls-1" points="131.57 60.31 129.2 60.31 130.02 58.72 131.57 60.31"/><polygon class="cls-1" points="126.83 61.54 125 65.07 123.17 61.54 126.83 61.54"/><polygon class="cls-1" points="121.75 61.54 123.81 65.52 119.94 65.52 117.74 61.54 121.75 61.54"/><polygon class="cls-1" points="123.17 61.54 125 65.07 126.83 61.54 123.17 61.54"/><polygon class="cls-1" points="119.97 58.72 118.43 60.31 120.8 60.31 119.97 58.72"/><polygon class="cls-1" points="117.74 61.54 119.94 65.52 123.81 65.52 121.75 61.54 117.74 61.54"/><polygon class="cls-1" points="131.57 60.31 130.02 58.72 129.2 60.31 131.57 60.31"/><polygon class="cls-1" points="126.19 65.52 130.06 65.52 132.26 61.54 128.25 61.54 126.19 65.52"/><path class="cls-1" d="M130,67.14A12.93,12.93,0,1,0,137.93,79,12.89,12.89,0,0,0,130,67.14Zm-5,21.93a9.13,9.13,0,1,1,9.13-9.13A9.14,9.14,0,0,1,125,89.08Z"/><polygon class="cls-1" points="127.78 60.31 128.74 58.47 121.27 58.47 122.22 60.31 127.78 60.31"/><polygon class="cls-1" points="119.97 58.72 120.8 60.31 118.43 60.31 119.97 58.72"/><path class="cls-1" d="M71.27,111.92l0.51,0c0.36,0,.5-0.1.5-0.49v-6.88c0-.39-0.14-0.47-0.5-0.49l-0.51,0v-0.34h3.56c2,0,3.31.52,3.31,1.93,0,1.12-.93,1.9-2.46,2.08v0c1.87,0,3.11.67,3.11,2.07s-1.34,2.51-3.62,2.51H71.27v-0.34Zm3.55-4.43a1.57,1.57,0,0,0,1.78-1.72c0-1.14-.59-1.69-1.88-1.69h-1v3.42h1.07Zm0,4.35c1.54,0,2.36-.53,2.36-2s-0.87-2-2.29-2H73.75v3.93h1.06Z"/><path class="cls-1" d="M79.75,107.92a4.59,4.59,0,1,1,4.59,4.47A4.4,4.4,0,0,1,79.75,107.92Zm7.53,0c0-2.6-1.2-4-2.94-4s-2.94,1.43-2.94,4,1.21,4,2.94,4S87.28,110.51,87.28,107.92Z"/><path class="cls-1" d="M89.91,111.92l0.51,0c0.36,0,.5-0.1.5-0.49v-6.88c0-.39-0.14-0.47-0.5-0.49l-0.51,0v-0.34h3.51V104l-0.51,0c-0.37,0-.51.1-0.51,0.49v7.3h2.54a0.33,0.33,0,0,0,.34-0.16l1.79-2.2h0.24l-0.81,2.8h-6.6v-0.34Z"/><path class="cls-1" d="M98,111.92l0.51,0c0.36,0,.5-0.1.5-0.49v-6.88c0-.39-0.14-0.47-0.5-0.49L98,104v-0.34h3.28c3,0,5.27,1.39,5.27,4.25s-2.29,4.36-5.2,4.36H98v-0.34Zm3.28-.08c2.11,0,3.6-1,3.6-3.63,0-2.91-1.29-4.13-3.66-4.13h-0.74v7.77h0.79Z"/><path class="cls-1" d="M110.57,107.92c0-2.72,2-4.48,5-4.48a7.36,7.36,0,0,1,2.68.45l0.5,2.71h-0.24l-1.37-2.12a1,1,0,0,0-.6-0.49,3.7,3.7,0,0,0-1-.11c-1.67,0-3.3,1-3.3,3.75,0,2.41,1.17,4.34,3.43,4.34a3.68,3.68,0,0,0,1-.11,1.05,1.05,0,0,0,.6-0.5l1.37-2.11h0.24l-0.53,2.7a8.28,8.28,0,0,1-2.84.45C112.6,112.39,110.57,110.65,110.57,107.92Z"/><path class="cls-1" d="M120.72,108.9v-4.38c0-.39-0.15-0.47-0.51-0.49l-0.51,0v-0.34h3.51V104l-0.51,0c-0.36,0-.5.1-0.5,0.49v4.42c0,2,.84,2.78,2.5,2.78s2.59-.93,2.59-2.91v-4.29c0-.39-0.14-0.47-0.5-0.49l-0.51,0v-0.34h2.57V104l-0.51,0c-0.36,0-.51.1-0.51,0.49v4.37a3.15,3.15,0,0,1-3.51,3.51C122,112.39,120.72,111.32,120.72,108.9Z"/><path class="cls-1" d="M129.74,111.92l0.51,0c0.36,0,.5-0.1.5-0.49v-6.88c0-.39-0.14-0.47-0.5-0.49l-0.51,0v-0.34h3.42c2.16,0,3.63.5,3.63,2.08,0,1.08-.77,1.88-2.34,2.13l3.85,4.39h-1.86L132.78,108h-0.56v3.35c0,0.39.14,0.46,0.51,0.49l0.51,0v0.34h-3.51v-0.34Zm3.33-4.3c1.36,0,2.1-.57,2.1-1.77s-0.74-1.77-2.1-1.77h-0.84v3.54h0.84Z"/><path class="cls-1" d="M146.44,111.88l0.44,0v0.34h-3.58v-0.34l0.53,0c0.39,0,.52-0.11.39-0.45l-0.86-2.17h-3.08l-0.86,2.17c-0.14.34,0,.43,0.38,0.45l0.53,0v0.34h-2.54v-0.34l0.43,0a0.63,0.63,0,0,0,.66-0.45l3.36-8.26h0.19l3.35,8.26A0.62,0.62,0,0,0,146.44,111.88Zm-5.94-3.18h2.65l-1.32-3.33Z"/><path class="cls-1" d="M148.3,111.91l0.74,0c0.36,0,.5-0.08.5-0.46v-7.35h-1.6a0.32,0.32,0,0,0-.37.19l-1.21,2.27h-0.23l0.26-2.86h7.79l0.27,2.86H154.2L153,104.24a0.31,0.31,0,0,0-.36-0.19H151v7.35c0,0.39.14,0.44,0.51,0.46l0.74,0v0.35h-4v-0.35Z"/><path class="cls-1" d="M155.23,111.92l0.51,0c0.36,0,.5-0.1.5-0.49v-6.88c0-.39-0.14-0.47-0.5-0.49l-0.51,0v-0.34h3.51V104l-0.51,0c-0.37,0-.51.1-0.51,0.49v6.88c0,0.39.14,0.46,0.51,0.49l0.51,0v0.34h-3.51v-0.34Z"/><path class="cls-1" d="M159.7,107.92a4.59,4.59,0,1,1,4.59,4.47A4.4,4.4,0,0,1,159.7,107.92Zm7.53,0c0-2.6-1.2-4-2.94-4s-2.94,1.43-2.94,4,1.21,4,2.94,4S167.23,110.51,167.23,107.92Z"/><path class="cls-1" d="M169.89,111.92l0.51,0c0.37,0,.51-0.1.51-0.49v-6.52l-1.09-1.2v0h1.92l5.56,6v-5.15c0-.39-0.15-0.47-0.51-0.49l-0.51,0v-0.34h2.57V104l-0.51,0c-0.36,0-.5.1-0.5,0.49v7.95h0l-6.35-7v5.93c0,0.39.14,0.46,0.51,0.49l0.5,0v0.34h-2.57v-0.34Z"/><path class="cls-1" d="M52,118.16h0.86v5a2.49,2.49,0,0,0,.15.92,1.66,1.66,0,0,0,1.06,1,2.58,2.58,0,0,0,.82.13,2.38,2.38,0,0,0,.77-0.12,1.69,1.69,0,0,0,.65-0.4,2,2,0,0,0,.44-0.69,2.77,2.77,0,0,0,.16-1v-4.86h0.86V123a3.45,3.45,0,0,1-.23,1.32,2.71,2.71,0,0,1-.62.94,2.49,2.49,0,0,1-.91.56,3.36,3.36,0,0,1-1.11.18,3.65,3.65,0,0,1-1.25-.2,2.49,2.49,0,0,1-.91-0.56,2.34,2.34,0,0,1-.55-0.85,3.07,3.07,0,0,1-.19-1.1v-5.17Z"/><path class="cls-1" d="M63.46,122.67a1.78,1.78,0,0,0-.12-0.7,1.28,1.28,0,0,0-.31-0.45,1.08,1.08,0,0,0-.41-0.24,1.59,1.59,0,0,0-.45-0.07,1.54,1.54,0,0,0-.58.11,1.59,1.59,0,0,0-.51.33,1.67,1.67,0,0,0-.37.53,1.77,1.77,0,0,0-.14.73v3H59.72v-5.34h0.84v0.92h0a1.7,1.7,0,0,1,.75-0.75,2.36,2.36,0,0,1,1.06-.24,2.68,2.68,0,0,1,.57.07,1.74,1.74,0,0,1,1.13.83,1.75,1.75,0,0,1,.21.91v3.59H63.46v-3.21Z"/><path class="cls-1" d="M66.09,118.73a0.64,0.64,0,0,1,.64-0.64,0.59,0.59,0,0,1,.44.19,0.62,0.62,0,0,1,.18.45,0.62,0.62,0,0,1-.62.62,0.62,0.62,0,0,1-.45-0.18A0.59,0.59,0,0,1,66.09,118.73Zm0.2,1.82h0.84v5.34H66.3v-5.34Z"/><path class="cls-1" d="M73.4,125h0a1.71,1.71,0,0,1-.28.36,2.08,2.08,0,0,1-.43.32,2.48,2.48,0,0,1-.56.23,2.37,2.37,0,0,1-.66.09,2.48,2.48,0,0,1-1-.2,2.32,2.32,0,0,1-.79-0.58,2.62,2.62,0,0,1-.52-0.89,3.41,3.41,0,0,1-.18-1.14,3.19,3.19,0,0,1,.2-1.17,2.7,2.7,0,0,1,.56-0.89,2.36,2.36,0,0,1,.83-0.56,2.69,2.69,0,0,1,1-.19,2.23,2.23,0,0,1,.76.11,1.83,1.83,0,0,1,.52.28,1.76,1.76,0,0,1,.34.36,3.71,3.71,0,0,1,.21.33h0v-0.94h0.82v7.61H73.4V125Zm-3.57-1.78a2.79,2.79,0,0,0,.11.79,1.91,1.91,0,0,0,.32.65,1.55,1.55,0,0,0,1.27.61,1.77,1.77,0,0,0,.76-0.16,1.81,1.81,0,0,0,.58-0.43,2,2,0,0,0,.38-0.64,2.22,2.22,0,0,0,.14-0.78,2.24,2.24,0,0,0-.51-1.6,1.71,1.71,0,0,0-1.29-.54,1.62,1.62,0,0,0-1.29.54A2.31,2.31,0,0,0,69.83,123.24Z"/><path class="cls-1" d="M77,123.77a1.78,1.78,0,0,0,.12.7,1.27,1.27,0,0,0,.31.45,1.07,1.07,0,0,0,.41.24,1.53,1.53,0,0,0,1,0,1.56,1.56,0,0,0,.52-0.33,1.71,1.71,0,0,0,.52-1.27v-3h0.83v5.34H79.89V125h0a1.69,1.69,0,0,1-.76.75A2.4,2.4,0,0,1,78,126a2.6,2.6,0,0,1-.56-0.07,1.86,1.86,0,0,1-.62-0.28,1.68,1.68,0,0,1-.51-0.56,1.82,1.82,0,0,1-.2-0.92v-3.59H77v3.23Z"/><path class="cls-1" d="M87.52,124.67a2.33,2.33,0,0,1-1,1,3,3,0,0,1-1.51.35,2.81,2.81,0,0,1-1.21-.24,2.43,2.43,0,0,1-.83-0.62,2.46,2.46,0,0,1-.48-0.87,3.31,3.31,0,0,1-.15-1,3.42,3.42,0,0,1,.19-1.17,2.69,2.69,0,0,1,.55-0.92,2.5,2.5,0,0,1,.86-0.6,2.85,2.85,0,0,1,1.13-.22,3,3,0,0,1,1,.16,2.05,2.05,0,0,1,.78.49,2.23,2.23,0,0,1,.51.83,3.46,3.46,0,0,1,.18,1.18v0.35h-4.3a2.16,2.16,0,0,0,.13.77,1.79,1.79,0,0,0,.36.6,1.58,1.58,0,0,0,.57.39,2,2,0,0,0,.77.14,2.11,2.11,0,0,0,.63-0.08,2,2,0,0,0,.48-0.22,1.45,1.45,0,0,0,.34-0.29,1.72,1.72,0,0,0,.22-0.32Zm-0.79-1.94a1.81,1.81,0,0,0-.11-0.62,1.59,1.59,0,0,0-.31-0.52,1.37,1.37,0,0,0-.5-0.35,1.78,1.78,0,0,0-.69-0.12,2,2,0,0,0-.81.15,1.55,1.55,0,0,0-.55.39,1.71,1.71,0,0,0-.32.52,2.41,2.41,0,0,0-.14.56h3.43Z"/><path class="cls-1" d="M94.77,123.57a5.18,5.18,0,0,1-.09,1,1.9,1.9,0,0,1-.33.78,1.62,1.62,0,0,1-.69.52,2.94,2.94,0,0,1-1.14.19l-0.41,0a2.27,2.27,0,0,1-.45-0.07v-0.77a5,5,0,0,0,.84.08,1.85,1.85,0,0,0,.74-0.12,0.94,0.94,0,0,0,.43-0.36,1.48,1.48,0,0,0,.19-0.59,6.26,6.26,0,0,0,0-.79v-4.43H92.46v-0.78h2.31v5.41Z"/><path class="cls-1" d="M101.56,124.67a2.33,2.33,0,0,1-1,1,3,3,0,0,1-1.51.35,2.81,2.81,0,0,1-1.21-.24,2.43,2.43,0,0,1-.83-0.62,2.46,2.46,0,0,1-.48-0.87,3.31,3.31,0,0,1-.15-1,3.42,3.42,0,0,1,.19-1.17,2.69,2.69,0,0,1,.55-0.92,2.5,2.5,0,0,1,.86-0.6,2.85,2.85,0,0,1,1.13-.22,3,3,0,0,1,1,.16,2.05,2.05,0,0,1,.78.49,2.23,2.23,0,0,1,.51.83,3.46,3.46,0,0,1,.18,1.18v0.35h-4.3a2.16,2.16,0,0,0,.13.77,1.79,1.79,0,0,0,.36.6,1.58,1.58,0,0,0,.57.39,2,2,0,0,0,.77.14,2.11,2.11,0,0,0,.63-0.08,2,2,0,0,0,.48-0.22,1.45,1.45,0,0,0,.34-0.29,1.72,1.72,0,0,0,.22-0.32Zm-0.79-1.94a1.81,1.81,0,0,0-.11-0.62,1.59,1.59,0,0,0-.31-0.52,1.37,1.37,0,0,0-.5-0.35,1.78,1.78,0,0,0-.69-0.12,2,2,0,0,0-.81.15,1.55,1.55,0,0,0-.55.39,1.71,1.71,0,0,0-.32.52,2.41,2.41,0,0,0-.14.56h3.43Z"/><path class="cls-1" d="M102.66,120.55h0.92l1.34,4.08h0l1.35-4.08h0.78l1.42,4.08h0l1.32-4.08h0.89l-1.83,5.34h-0.82l-1.37-4.07h0l-1.4,4.07h-0.77Z"/><path class="cls-1" d="M116.88,124.67a2.33,2.33,0,0,1-1,1,3,3,0,0,1-1.51.35,2.81,2.81,0,0,1-1.21-.24,2.43,2.43,0,0,1-.83-0.62,2.46,2.46,0,0,1-.48-0.87,3.31,3.31,0,0,1-.15-1,3.42,3.42,0,0,1,.19-1.17,2.69,2.69,0,0,1,.55-0.92,2.5,2.5,0,0,1,.86-0.6,2.85,2.85,0,0,1,1.13-.22,3,3,0,0,1,1,.16,2.05,2.05,0,0,1,.78.49,2.23,2.23,0,0,1,.51.83,3.46,3.46,0,0,1,.18,1.18v0.35h-4.3a2.16,2.16,0,0,0,.13.77,1.79,1.79,0,0,0,.36.6,1.58,1.58,0,0,0,.57.39,2,2,0,0,0,.77.14,2.11,2.11,0,0,0,.63-0.08,2,2,0,0,0,.48-0.22,1.45,1.45,0,0,0,.34-0.29,1.72,1.72,0,0,0,.22-0.32Zm-0.79-1.94a1.81,1.81,0,0,0-.11-0.62,1.59,1.59,0,0,0-.31-0.52,1.37,1.37,0,0,0-.5-0.35,1.78,1.78,0,0,0-.69-0.12,2,2,0,0,0-.81.15,1.55,1.55,0,0,0-.55.39,1.71,1.71,0,0,0-.32.52,2.41,2.41,0,0,0-.14.56h3.43Z"/><path class="cls-1" d="M118.7,117.87h0.84v8H118.7v-8Z"/><path class="cls-1" d="M121.66,117.87h0.84v8h-0.84v-8Z"/><path class="cls-1" d="M129.4,124.67a2.33,2.33,0,0,1-1,1,3,3,0,0,1-1.51.35,2.81,2.81,0,0,1-1.21-.24,2.43,2.43,0,0,1-.83-0.62,2.46,2.46,0,0,1-.48-0.87,3.31,3.31,0,0,1-.15-1,3.42,3.42,0,0,1,.19-1.17,2.69,2.69,0,0,1,.55-0.92,2.5,2.5,0,0,1,.86-0.6,2.85,2.85,0,0,1,1.13-.22,3,3,0,0,1,1,.16,2.05,2.05,0,0,1,.78.49,2.23,2.23,0,0,1,.51.83,3.46,3.46,0,0,1,.18,1.18v0.35h-4.3a2.16,2.16,0,0,0,.13.77,1.79,1.79,0,0,0,.36.6,1.58,1.58,0,0,0,.57.39,2,2,0,0,0,.77.14,2.11,2.11,0,0,0,.63-0.08,2,2,0,0,0,.48-0.22,1.45,1.45,0,0,0,.34-0.29,1.72,1.72,0,0,0,.22-0.32Zm-0.79-1.94a1.81,1.81,0,0,0-.11-0.62,1.59,1.59,0,0,0-.31-0.52,1.37,1.37,0,0,0-.5-0.35,1.78,1.78,0,0,0-.69-0.12,2,2,0,0,0-.81.15,1.55,1.55,0,0,0-.55.39,1.71,1.71,0,0,0-.32.52,2.41,2.41,0,0,0-.14.56h3.43Z"/><path class="cls-1" d="M131.13,120.55H132v1.29h0a1.87,1.87,0,0,1,.26-0.44,2.55,2.55,0,0,1,.44-0.44,2.49,2.49,0,0,1,.57-0.34,1.62,1.62,0,0,1,.65-0.14h0.3v0.81h-0.27a1.77,1.77,0,0,0-.76.17,1.89,1.89,0,0,0-.61.45,2.19,2.19,0,0,0-.41.69,2.41,2.41,0,0,0-.15.87v2.42h-0.84v-5.34Z"/><path class="cls-1" d="M136.81,125.78l-2.11-5.24h1l1.62,4.34h0l1.65-4.34h0.91l-3.17,7.61h-0.91Z"/><path class="cls-1" d="M144.27,118.16h0.86v7.72h-0.86v-7.72Z"/><path class="cls-1" d="M151.05,122.67a1.78,1.78,0,0,0-.12-0.7,1.28,1.28,0,0,0-.31-0.45,1.08,1.08,0,0,0-.41-0.24,1.59,1.59,0,0,0-.45-0.07,1.54,1.54,0,0,0-.58.11,1.59,1.59,0,0,0-.51.33,1.67,1.67,0,0,0-.37.53,1.77,1.77,0,0,0-.14.73v3h-0.84v-5.34h0.84v0.92h0a1.7,1.7,0,0,1,.75-0.75,2.36,2.36,0,0,1,1.06-.24,2.68,2.68,0,0,1,.57.07,1.74,1.74,0,0,1,1.13.83,1.75,1.75,0,0,1,.21.91v3.59h-0.84v-3.21Z"/><path class="cls-1" d="M157,122.08a1.34,1.34,0,0,0-.1-0.4,0.91,0.91,0,0,0-.23-0.32,1.11,1.11,0,0,0-.39-0.22,1.86,1.86,0,0,0-.59-0.08,1.84,1.84,0,0,0-.48.06,1.43,1.43,0,0,0-.41.18,0.93,0.93,0,0,0-.28.29,0.71,0.71,0,0,0-.11.39,0.79,0.79,0,0,0,.07.35,0.52,0.52,0,0,0,.23.22,1.82,1.82,0,0,0,.41.15l0.62,0.12a7.7,7.7,0,0,1,.87.17,2.46,2.46,0,0,1,.67.27,1.25,1.25,0,0,1,.44.44,1.35,1.35,0,0,1,.16.69,1.58,1.58,0,0,1-.12.6,1.34,1.34,0,0,1-.39.52,2.07,2.07,0,0,1-.7.37,3.41,3.41,0,0,1-1.06.14,4,4,0,0,1-1.06-.12,1.79,1.79,0,0,1-.68-0.33,1.3,1.3,0,0,1-.37-0.51,2.33,2.33,0,0,1-.15-0.66h0.84a1.14,1.14,0,0,0,.08.36,0.69,0.69,0,0,0,.23.3,1.27,1.27,0,0,0,.43.2,2.44,2.44,0,0,0,.66.07,2.29,2.29,0,0,0,1-.21,0.71,0.71,0,0,0,.41-0.68,0.84,0.84,0,0,0-.07-0.35,0.6,0.6,0,0,0-.24-0.25,1.79,1.79,0,0,0-.48-0.19,7.65,7.65,0,0,0-.77-0.15,7.33,7.33,0,0,1-.76-0.14,2,2,0,0,1-.6-0.24,1.14,1.14,0,0,1-.39-0.41,1.37,1.37,0,0,1-.14-0.67,1.47,1.47,0,0,1,.17-0.73,1.5,1.5,0,0,1,.47-0.51,2.13,2.13,0,0,1,.69-0.31,3.4,3.4,0,0,1,.85-0.1,2.93,2.93,0,0,1,.82.11,2,2,0,0,1,.65.32,1.46,1.46,0,0,1,.43.52,1.64,1.64,0,0,1,.15.73H157Z"/><path class="cls-1" d="M159.49,120.55h0.84v0.94h0a3.44,3.44,0,0,1,.23-0.31,2,2,0,0,1,.39-0.36,2.46,2.46,0,0,1,.57-0.29,2.23,2.23,0,0,1,.78-0.12,2.47,2.47,0,0,1,.88.17,2.25,2.25,0,0,1,.79.51,2.64,2.64,0,0,1,.57.88,3.27,3.27,0,0,1,.22,1.26,3.08,3.08,0,0,1-.2,1.14,2.78,2.78,0,0,1-.56.89,2.44,2.44,0,0,1-.83.58,2.57,2.57,0,0,1-1,.2,2.14,2.14,0,0,1-.64-0.09,2.35,2.35,0,0,1-.52-0.23,1.79,1.79,0,0,1-.4-0.32,2,2,0,0,1-.27-0.36h0v3.13h-0.84v-7.61Zm4.4,2.69a3,3,0,0,0-.13-0.92,1.85,1.85,0,0,0-.36-0.66,1.49,1.49,0,0,0-.55-0.39,1.78,1.78,0,0,0-.68-0.13,1.69,1.69,0,0,0-.66.14,1.76,1.76,0,0,0-.59.4,2,2,0,0,0-.42.67,2.52,2.52,0,0,0-.16.93,2.39,2.39,0,0,0,.13.78,1.89,1.89,0,0,0,.36.64,1.76,1.76,0,0,0,.57.43,1.73,1.73,0,0,0,.76.16,1.59,1.59,0,0,0,1.29-.61,2,2,0,0,0,.33-0.65A2.69,2.69,0,0,0,163.89,123.24Z"/><path class="cls-1" d="M166.36,118.73a0.64,0.64,0,0,1,.64-0.64,0.59,0.59,0,0,1,.44.19,0.62,0.62,0,0,1,.18.45,0.62,0.62,0,0,1-.62.62,0.62,0.62,0,0,1-.45-0.18A0.59,0.59,0,0,1,166.36,118.73Zm0.2,1.82h0.84v5.34h-0.84v-5.34Z"/><path class="cls-1" d="M169.45,120.55h0.82v1.29h0a1.87,1.87,0,0,1,.26-0.44A2.55,2.55,0,0,1,171,121a2.49,2.49,0,0,1,.57-0.34,1.62,1.62,0,0,1,.65-0.14h0.3v0.81h-0.27a1.77,1.77,0,0,0-.76.17,1.89,1.89,0,0,0-.61.45,2.19,2.19,0,0,0-.41.69,2.41,2.41,0,0,0-.15.87v2.42h-0.84v-5.34Z"/><path class="cls-1" d="M177,125.18h0a1.32,1.32,0,0,1-.35.41,1.8,1.8,0,0,1-.45.26,2.31,2.31,0,0,1-.5.14,3.11,3.11,0,0,1-.49,0,2.54,2.54,0,0,1-.83-0.12,1.76,1.76,0,0,1-.6-0.33,1.4,1.4,0,0,1-.36-0.49,1.48,1.48,0,0,1-.12-0.6,1.57,1.57,0,0,1,.19-0.8,1.5,1.5,0,0,1,.52-0.53,2.36,2.36,0,0,1,.79-0.29,6.68,6.68,0,0,1,1-.11l1.23,0v-0.41a1.73,1.73,0,0,0-.06-0.47,0.89,0.89,0,0,0-.22-0.38,1.06,1.06,0,0,0-.41-0.25,2.1,2.1,0,0,0-.67-0.09,2.2,2.2,0,0,0-.61.07,1.22,1.22,0,0,0-.41.2,0.86,0.86,0,0,0-.25.32,1.55,1.55,0,0,0-.12.41h-0.83a1.83,1.83,0,0,1,.72-1.3,2.61,2.61,0,0,1,1.52-.4,2.47,2.47,0,0,1,1.63.47,1.64,1.64,0,0,1,.55,1.33v2.65c0,0.17,0,.34,0,0.53s0,0.36.06,0.51H177v-0.7Zm0-1.85-0.93,0q-0.45,0-.81.07a2,2,0,0,0-.6.17,0.92,0.92,0,0,0-.37.32,0.9,0.9,0,0,0-.13.5,0.79,0.79,0,0,0,.32.69,1.5,1.5,0,0,0,.89.23,2.13,2.13,0,0,0,.56-0.08,1.81,1.81,0,0,0,.53-0.24,1.29,1.29,0,0,0,.39-0.42A1.14,1.14,0,0,0,177,124v-0.69Z"/><path class="cls-1" d="M178.93,120.55H180V119h0.83v1.54h1.59v0.68h-1.59v3.1a1.15,1.15,0,0,0,.16.62,0.68,0.68,0,0,0,.62.25,4.19,4.19,0,0,0,.56,0v0.73l-0.41,0h-0.36a1.5,1.5,0,0,1-1-.32,1.46,1.46,0,0,1-.36-1.12v-3.27h-1.06v-0.68Z"/><path class="cls-1" d="M183.49,118.73a0.64,0.64,0,0,1,.64-0.64,0.59,0.59,0,0,1,.44.19,0.62,0.62,0,0,1,.18.45,0.62,0.62,0,0,1-.62.62,0.62,0.62,0,0,1-.45-0.18A0.59,0.59,0,0,1,183.49,118.73Zm0.2,1.82h0.84v5.34h-0.84v-5.34Z"/><path class="cls-1" d="M191.83,123.22a3,3,0,0,1-.18,1,2.81,2.81,0,0,1-.53.9,2.54,2.54,0,0,1-.86.64,2.8,2.8,0,0,1-1.19.24,3,3,0,0,1-1.24-.24,2.41,2.41,0,0,1-.86-0.64,2.6,2.6,0,0,1-.49-0.9,3.44,3.44,0,0,1-.16-1,3.15,3.15,0,0,1,.18-1,2.61,2.61,0,0,1,.53-0.9,2.66,2.66,0,0,1,2-.88,2.93,2.93,0,0,1,1.25.24,2.44,2.44,0,0,1,1.35,1.54A3.46,3.46,0,0,1,191.83,123.22Zm-4.61,0a2.56,2.56,0,0,0,.13.83,2,2,0,0,0,.37.65,1.67,1.67,0,0,0,.58.43,1.87,1.87,0,0,0,.77.15,1.91,1.91,0,0,0,.78-0.15,1.66,1.66,0,0,0,.58-0.43,1.93,1.93,0,0,0,.37-0.65,2.56,2.56,0,0,0,.13-0.83,2.53,2.53,0,0,0-.13-0.82,1.92,1.92,0,0,0-.37-0.65,1.66,1.66,0,0,0-.58-0.43,1.91,1.91,0,0,0-.78-0.15,1.87,1.87,0,0,0-.77.15,1.67,1.67,0,0,0-.58.43,1.94,1.94,0,0,0-.37.65A2.53,2.53,0,0,0,187.22,123.22Z"/><path class="cls-1" d="M197.27,122.67a1.78,1.78,0,0,0-.12-0.7,1.28,1.28,0,0,0-.31-0.45,1.08,1.08,0,0,0-.41-0.24,1.59,1.59,0,0,0-.45-0.07,1.54,1.54,0,0,0-.58.11,1.59,1.59,0,0,0-.51.33,1.67,1.67,0,0,0-.37.53,1.77,1.77,0,0,0-.14.73v3h-0.84v-5.34h0.84v0.92h0a1.7,1.7,0,0,1,.75-0.75,2.36,2.36,0,0,1,1.06-.24,2.68,2.68,0,0,1,.57.07,1.74,1.74,0,0,1,1.13.83,1.75,1.75,0,0,1,.21.91v3.59h-0.84v-3.21Z"/></svg>