<svg id="Layer_1" data-name="Layer 1" xmlns="http://www.w3.org/2000/svg" viewBox="0 0 250 158"><defs><style>.cls-1,.cls-3{fill:#00453f;}.cls-2{fill:none;stroke-miterlimit:10;stroke-width:1.25px;}.cls-2,.cls-3{stroke:#00453f;}.cls-3{stroke-linecap:round;stroke-linejoin:round;stroke-width:0.42px;}</style></defs><title>About-Us_Green_Icon-option</title><path class="cls-1" d="M52.38,110.94l0.51,0c0.38,0,.51-0.1.51-0.49V103.9l-1.09-1.2v0h1.92l5.56,6v-5.15c0-.39-0.15-0.47-0.51-0.49l-0.51,0v-0.34h2.57V103l-0.51,0c-0.36,0-.5.1-0.5,0.49v7.95h0l-6.35-7v5.93c0,0.39.14,0.46,0.51,0.49l0.5,0v0.34H52.38v-0.34Z"/><path class="cls-1" d="M62.08,106.95a4.59,4.59,0,1,1,4.59,4.47A4.4,4.4,0,0,1,62.08,106.95Zm7.53,0c0-2.6-1.2-4-2.94-4s-2.94,1.43-2.94,4,1.21,4,2.94,4S69.61,109.53,69.61,106.95Z"/><path class="cls-1" d="M82.7,114.11c-1.5,0-2.82-1.75-4.22-1.75a1.43,1.43,0,0,0-.65.13,0.52,0.52,0,0,1-.49.67,0.36,0.36,0,0,1-.34-0.39c0-.37.34-0.67,1.32-1.07l0.82-.33a4.34,4.34,0,0,1-3.88-4.43,4.59,4.59,0,1,1,4.6,4.47l-2,.79a4.23,4.23,0,0,1,1.13-.15c1.76,0,2.71.85,3.83,0.85a1.65,1.65,0,0,0,1.59-1.18l0.33,0.11C84.25,113,83.58,114.11,82.7,114.11Zm0.08-7.16c0-2.6-1.2-4-2.94-4s-2.94,1.43-2.94,4,1.21,4,2.94,4S82.78,109.53,82.78,106.95Z"/><path class="cls-1" d="M86.23,107.92v-4.38c0-.39-0.15-0.47-0.51-0.49l-0.51,0v-0.34h3.51V103l-0.51,0c-0.36,0-.5.1-0.5,0.49V108c0,2,.84,2.78,2.5,2.78s2.59-.93,2.59-2.91v-4.29c0-.39-0.14-0.47-0.5-0.49l-0.51,0v-0.34h2.57V103l-0.51,0c-0.36,0-.51.1-0.51,0.49v4.37a3.15,3.15,0,0,1-3.51,3.51C87.55,111.42,86.23,110.34,86.23,107.92Z"/><path class="cls-1" d="M95.25,110.94l0.51,0c0.36,0,.5-0.1.5-0.49v-6.88c0-.39-0.14-0.47-0.5-0.49l-0.51,0v-0.34h3.51V103l-0.51,0c-0.37,0-.51.1-0.51,0.49v6.88c0,0.39.14,0.46,0.51,0.49l0.51,0v0.34H95.25v-0.34Z"/><path class="cls-1" d="M99.91,110.94l0.51,0c0.36,0,.5-0.1.5-0.49v-6.88c0-.39-0.14-0.47-0.5-0.49l-0.51,0v-0.34h3.56c2,0,3.32.52,3.32,1.93,0,1.12-.93,1.9-2.46,2.08v0c1.87,0,3.11.67,3.11,2.07s-1.34,2.51-3.62,2.51H99.91v-0.34Zm3.55-4.43a1.57,1.57,0,0,0,1.78-1.72c0-1.14-.59-1.69-1.88-1.69h-1v3.42h1.07Zm0,4.35c1.54,0,2.36-.53,2.36-2s-0.87-2-2.29-2h-1.12v3.93h1.06Z"/><path class="cls-1" d="M108.47,110.94l0.51,0c0.36,0,.5-0.1.5-0.49v-6.88c0-.39-0.14-0.47-0.5-0.49l-0.51,0v-0.34H112c2,0,3.32.52,3.32,1.93,0,1.12-.93,1.9-2.46,2.08v0c1.87,0,3.11.67,3.11,2.07s-1.34,2.51-3.62,2.51h-3.91v-0.34Zm3.55-4.43a1.57,1.57,0,0,0,1.78-1.72c0-1.14-.59-1.69-1.88-1.69h-1v3.42H112Zm0,4.35c1.54,0,2.36-.53,2.36-2s-0.87-2-2.29-2H111v3.93H112Z"/><path class="cls-1" d="M117,110.94l0.51,0c0.36,0,.5-0.1.5-0.49v-6.88c0-.39-0.14-0.47-0.5-0.49L117,103v-0.34h3.51V103l-0.51,0c-0.37,0-.51.1-0.51,0.49v7.3h2.54a0.33,0.33,0,0,0,.34-0.16l1.79-2.2h0.24l-0.81,2.8H117v-0.34Z"/><path class="cls-1" d="M125.15,110.94l0.51,0c0.36,0,.5-0.1.5-0.49v-6.88c0-.39-0.14-0.47-0.5-0.49l-0.51,0v-0.34h6.53l0.4,2.79h-0.24l-1.36-2.16a0.32,0.32,0,0,0-.37-0.19h-2.46v3.44h1.51a0.19,0.19,0,0,0,.23-0.14l0.49-1.41h0.24v3.59h-0.24l-0.49-1.41a0.18,0.18,0,0,0-.23-0.14h-1.51v3.78h3a0.31,0.31,0,0,0,.33-0.16l1.8-2.2H133l-0.81,2.8h-7v-0.34Z"/><path class="cls-1" d="M136.8,110.94l0.51,0c0.36,0,.5-0.1.5-0.49v-6.88c0-.39-0.14-0.47-0.5-0.49l-0.51,0v-0.34h3.42c2.16,0,3.63.5,3.63,2.08,0,1.08-.77,1.88-2.34,2.13l3.85,4.39H143.5l-3.66-4.21h-0.56v3.35c0,0.39.14,0.46,0.51,0.49l0.51,0v0.34H136.8v-0.34Zm3.33-4.3c1.36,0,2.1-.57,2.1-1.77s-0.74-1.77-2.1-1.77h-0.84v3.54h0.84Z"/><path class="cls-1" d="M145.64,110.94l0.51,0c0.36,0,.5-0.1.5-0.49v-6.88c0-.39-0.14-0.47-0.5-0.49l-0.51,0v-0.34h6.53l0.4,2.79h-0.24L151,103.31a0.32,0.32,0,0,0-.37-0.19h-2.46v3.44h1.51a0.18,0.18,0,0,0,.23-0.14l0.49-1.41h0.24v3.59h-0.24l-0.49-1.41a0.18,0.18,0,0,0-.23-0.14h-1.51v3.78h3a0.31,0.31,0,0,0,.33-0.16l1.8-2.2h0.24l-0.81,2.8h-7v-0.34Z"/><path class="cls-1" d="M156,110.93l0.74,0c0.36,0,.5-0.08.5-0.46v-7.35h-1.6a0.32,0.32,0,0,0-.37.19l-1.21,2.27h-0.23l0.26-2.86h7.79l0.27,2.86h-0.24l-1.21-2.27a0.31,0.31,0,0,0-.36-0.19h-1.61v7.35c0,0.39.14,0.44,0.51,0.46l0.74,0v0.35h-4v-0.35Z"/><path class="cls-1" d="M163.72,107.92v-4.38c0-.39-0.15-0.47-0.51-0.49l-0.51,0v-0.34h3.51V103l-0.51,0c-0.36,0-.5.1-0.5,0.49V108c0,2,.84,2.78,2.5,2.78s2.59-.93,2.59-2.91v-4.29c0-.39-0.14-0.47-0.5-0.49l-0.51,0v-0.34h2.57V103l-0.51,0c-0.36,0-.51.1-0.51,0.49v4.37a3.15,3.15,0,0,1-3.51,3.51C165,111.42,163.72,110.34,163.72,107.92Z"/><path class="cls-1" d="M172.74,110.94l0.51,0c0.36,0,.5-0.1.5-0.49v-6.88c0-.39-0.14-0.47-0.5-0.49l-0.51,0v-0.34h3.42c2.16,0,3.63.5,3.63,2.08,0,1.08-.77,1.88-2.34,2.13l3.85,4.39h-1.86l-3.66-4.21h-0.56v3.35c0,0.39.14,0.46,0.51,0.49l0.51,0v0.34h-3.51v-0.34Zm3.33-4.3c1.36,0,2.1-.57,2.1-1.77s-0.74-1.77-2.1-1.77h-0.84v3.54h0.84Z"/><path class="cls-1" d="M181.61,110.94l0.51,0c0.37,0,.51-0.1.51-0.49V103.9l-1.09-1.2v0h1.92l5.56,6v-5.15c0-.39-0.15-0.47-0.51-0.49L188,103v-0.34h2.57V103l-0.51,0c-0.36,0-.5.1-0.5,0.49v7.95h0l-6.35-7v5.93c0,0.39.14,0.46,0.51,0.49l0.5,0v0.34h-2.57v-0.34Z"/><path class="cls-1" d="M192.18,111.07l-0.5-2.74h0.24l1.36,2.16a0.86,0.86,0,0,0,.49.41,2.72,2.72,0,0,0,.76.09c1.08,0,1.93-.53,1.93-1.49s-0.73-1.46-1.94-1.9l-0.61-.21a2.65,2.65,0,0,1-2.12-2.55c0-1.59,1.54-2.37,3.13-2.37a5.39,5.39,0,0,1,1.86.31l0.48,2.49H197l-1.33-2a0.61,0.61,0,0,0-.45-0.34,2.55,2.55,0,0,0-.52,0,1.55,1.55,0,0,0-1.75,1.37,1.64,1.64,0,0,0,1.35,1.61l0.61,0.22c1.59,0.56,2.74,1.17,2.74,2.75s-1.53,2.55-3.17,2.55A6.56,6.56,0,0,1,192.18,111.07Z"/><path class="cls-1" d="M72,119.19a1.7,1.7,0,0,0-.12-0.51,1.28,1.28,0,0,0-.31-0.43,1.46,1.46,0,0,0-.53-0.3,2.42,2.42,0,0,0-.78-0.11,1.93,1.93,0,0,0-1.31.39,1.21,1.21,0,0,0-.44.94,1.51,1.51,0,0,0,.07.49,0.89,0.89,0,0,0,.27.38,1.84,1.84,0,0,0,.54.3,5.31,5.31,0,0,0,.87.23,10.38,10.38,0,0,1,1.25.31,3.16,3.16,0,0,1,.87.41,1.48,1.48,0,0,1,.5.6,2.07,2.07,0,0,1,.16.85,2.38,2.38,0,0,1-.16.86,2,2,0,0,1-.51.74,2.55,2.55,0,0,1-.88.53,3.71,3.71,0,0,1-1.28.2,3,3,0,0,1-2-.61,2.4,2.4,0,0,1-.78-1.67H68.3a1.51,1.51,0,0,0,.6,1.15,2.4,2.4,0,0,0,1.37.35,2.44,2.44,0,0,0,.84-0.13,1.72,1.72,0,0,0,.58-0.34,1.28,1.28,0,0,0,.33-0.47,1.37,1.37,0,0,0,.1-0.52,1.34,1.34,0,0,0-.1-0.54,0.92,0.92,0,0,0-.31-0.37,2,2,0,0,0-.56-0.27,7.89,7.89,0,0,0-.86-0.22,10.82,10.82,0,0,1-1.16-.3,2.74,2.74,0,0,1-.82-0.41,1.58,1.58,0,0,1-.49-0.61,2.26,2.26,0,0,1-.17-0.93,1.9,1.9,0,0,1,.2-0.87,2,2,0,0,1,.54-0.67,2.62,2.62,0,0,1,.82-0.44,3.22,3.22,0,0,1,1-.16,3.68,3.68,0,0,1,1.2.17,2.16,2.16,0,0,1,.79.47,1.88,1.88,0,0,1,.45.68,3,3,0,0,1,.18.83H72Z"/><path class="cls-1" d="M78.39,121.7a1.79,1.79,0,0,0-.12-0.7,1.29,1.29,0,0,0-.31-0.45,1.08,1.08,0,0,0-.42-0.24,1.59,1.59,0,0,0-.45-0.07,1.54,1.54,0,0,0-.58.11,1.66,1.66,0,0,0-.52.33,1.62,1.62,0,0,0-.37.53,1.77,1.77,0,0,0-.14.73v3H74.64v-8h0.84v3.6h0a1.69,1.69,0,0,1,.76-0.75,2.4,2.4,0,0,1,1.07-.24,2.69,2.69,0,0,1,.57.07,1.74,1.74,0,0,1,1.13.83,1.75,1.75,0,0,1,.21.91v3.59H78.39V121.7Z"/><path class="cls-1" d="M86.4,122.24a3,3,0,0,1-.18,1,2.82,2.82,0,0,1-.53.9,2.56,2.56,0,0,1-.86.64,2.8,2.8,0,0,1-1.19.24,3,3,0,0,1-1.24-.24,2.41,2.41,0,0,1-.86-0.64,2.6,2.6,0,0,1-.49-0.9,3.43,3.43,0,0,1-.16-1,3.14,3.14,0,0,1,.18-1,2.61,2.61,0,0,1,.53-0.9,2.74,2.74,0,0,1,.86-0.64,2.71,2.71,0,0,1,1.18-.24,2.93,2.93,0,0,1,1.25.24,2.52,2.52,0,0,1,.86.64,2.55,2.55,0,0,1,.49.9A3.48,3.48,0,0,1,86.4,122.24Zm-4.61,0a2.54,2.54,0,0,0,.13.83,1.93,1.93,0,0,0,.37.65,1.66,1.66,0,0,0,.58.43,1.87,1.87,0,0,0,.77.15,1.91,1.91,0,0,0,.78-0.15,1.66,1.66,0,0,0,.58-0.43,1.93,1.93,0,0,0,.37-0.65,2.56,2.56,0,0,0,.13-0.83,2.53,2.53,0,0,0-.13-0.82,1.92,1.92,0,0,0-.37-0.65,1.66,1.66,0,0,0-.58-0.43,1.91,1.91,0,0,0-.78-0.15,1.87,1.87,0,0,0-.77.15,1.66,1.66,0,0,0-.58.43,1.92,1.92,0,0,0-.37.65A2.5,2.5,0,0,0,81.79,122.24Z"/><path class="cls-1" d="M88.1,119.57h0.84v0.94h0a3.39,3.39,0,0,1,.23-0.31,2,2,0,0,1,.39-0.36,2.46,2.46,0,0,1,.57-0.29,2.23,2.23,0,0,1,.78-0.12,2.47,2.47,0,0,1,.88.17,2.25,2.25,0,0,1,.79.51,2.64,2.64,0,0,1,.57.88,3.28,3.28,0,0,1,.22,1.26,3.07,3.07,0,0,1-.2,1.14,2.79,2.79,0,0,1-.56.89,2.44,2.44,0,0,1-.83.58,2.57,2.57,0,0,1-1,.2,2.13,2.13,0,0,1-.64-0.09,2.32,2.32,0,0,1-.52-0.23,1.78,1.78,0,0,1-.4-0.32A2,2,0,0,1,89,124h0v3.13H88.1v-7.61Zm4.4,2.69a3,3,0,0,0-.13-0.92,1.83,1.83,0,0,0-.36-0.66,1.49,1.49,0,0,0-.55-0.39,1.78,1.78,0,0,0-.68-0.13,1.7,1.7,0,0,0-.66.14,1.77,1.77,0,0,0-.59.4,2,2,0,0,0-.42.67,2.53,2.53,0,0,0-.16.93,2.38,2.38,0,0,0,.13.78,1.88,1.88,0,0,0,.36.64,1.75,1.75,0,0,0,.57.43,1.73,1.73,0,0,0,.75.16A1.59,1.59,0,0,0,92,123.7a1.93,1.93,0,0,0,.33-0.65A2.66,2.66,0,0,0,92.5,122.26Z"/><path class="cls-1" d="M97.36,119.57h0.92l1.34,4.08h0l1.35-4.08h0.78l1.42,4.08h0l1.32-4.08h0.89l-1.83,5.34h-0.82l-1.37-4.07h0l-1.4,4.07H99.21Z"/><path class="cls-1" d="M106.6,117.76a0.64,0.64,0,0,1,.64-0.64,0.59,0.59,0,0,1,.44.19,0.62,0.62,0,0,1,.18.45,0.62,0.62,0,0,1-.62.62,0.62,0.62,0,0,1-.45-0.18A0.59,0.59,0,0,1,106.6,117.76Zm0.21,1.82h0.84v5.34h-0.84v-5.34Z"/><path class="cls-1" d="M108.91,119.57H110V118h0.83v1.54h1.59v0.68h-1.59v3.1a1.15,1.15,0,0,0,.16.62,0.68,0.68,0,0,0,.63.25,4.17,4.17,0,0,0,.56,0v0.73l-0.41,0h-0.36a1.5,1.5,0,0,1-1-.32,1.46,1.46,0,0,1-.36-1.12v-3.27h-1.06v-0.68Z"/><path class="cls-1" d="M117.33,121.7a1.79,1.79,0,0,0-.12-0.7,1.29,1.29,0,0,0-.31-0.45,1.08,1.08,0,0,0-.42-0.24,1.59,1.59,0,0,0-.45-0.07,1.54,1.54,0,0,0-.58.11,1.66,1.66,0,0,0-.52.33,1.62,1.62,0,0,0-.37.53,1.77,1.77,0,0,0-.14.73v3h-0.84v-8h0.84v3.6h0a1.69,1.69,0,0,1,.76-0.75,2.4,2.4,0,0,1,1.07-.24,2.69,2.69,0,0,1,.57.07,1.74,1.74,0,0,1,1.13.83,1.75,1.75,0,0,1,.21.91v3.59h-0.84V121.7Z"/><path class="cls-1" d="M129,119.32a2.37,2.37,0,0,0-.82-1.08,2.59,2.59,0,0,0-1.56-.42,3,3,0,0,0-1.37.29,2.77,2.77,0,0,0-.93.75,3,3,0,0,0-.53,1,4.22,4.22,0,0,0-.16,1.16,4.48,4.48,0,0,0,.15,1.16,2.9,2.9,0,0,0,.5,1,2.6,2.6,0,0,0,.93.74,3.18,3.18,0,0,0,1.41.28,2.73,2.73,0,0,0,1.51-.4,2.4,2.4,0,0,0,.93-1.19l0.77,0.39a4.2,4.2,0,0,1-.44.72,2.89,2.89,0,0,1-.66.64,3.51,3.51,0,0,1-.94.45,4.11,4.11,0,0,1-1.26.18,4.17,4.17,0,0,1-1.54-.28,3.43,3.43,0,0,1-1.21-.79,3.6,3.6,0,0,1-.79-1.26,4.66,4.66,0,0,1-.28-1.67,4.19,4.19,0,0,1,.3-1.61,3.89,3.89,0,0,1,.82-1.27,3.75,3.75,0,0,1,1.24-.83,4,4,0,0,1,1.56-.3,4.38,4.38,0,0,1,1.28.17,3.14,3.14,0,0,1,.92.44,2.63,2.63,0,0,1,.63.62,3.49,3.49,0,0,1,.39.72Z"/><path class="cls-1" d="M136.31,122.24a3,3,0,0,1-.18,1,2.82,2.82,0,0,1-.53.9,2.56,2.56,0,0,1-.86.64,2.8,2.8,0,0,1-1.19.24,3,3,0,0,1-1.24-.24,2.41,2.41,0,0,1-.86-0.64,2.6,2.6,0,0,1-.49-0.9,3.43,3.43,0,0,1-.16-1,3.14,3.14,0,0,1,.18-1,2.61,2.61,0,0,1,.53-0.9,2.74,2.74,0,0,1,.86-0.64,2.71,2.71,0,0,1,1.18-.24,2.93,2.93,0,0,1,1.25.24,2.52,2.52,0,0,1,.86.64,2.55,2.55,0,0,1,.49.9A3.48,3.48,0,0,1,136.31,122.24Zm-4.61,0a2.54,2.54,0,0,0,.13.83,1.93,1.93,0,0,0,.37.65,1.66,1.66,0,0,0,.58.43,1.87,1.87,0,0,0,.77.15,1.91,1.91,0,0,0,.78-0.15,1.66,1.66,0,0,0,.58-0.43,1.93,1.93,0,0,0,.37-0.65,2.56,2.56,0,0,0,.13-0.83,2.53,2.53,0,0,0-.13-0.82,1.92,1.92,0,0,0-.37-0.65,1.66,1.66,0,0,0-.58-0.43,1.91,1.91,0,0,0-.78-0.15,1.87,1.87,0,0,0-.77.15,1.66,1.66,0,0,0-.58.43,1.92,1.92,0,0,0-.37.65A2.5,2.5,0,0,0,131.7,122.24Z"/><path class="cls-1" d="M141.75,121.7a1.79,1.79,0,0,0-.12-0.7,1.27,1.27,0,0,0-.31-0.45,1.08,1.08,0,0,0-.41-0.24,1.6,1.6,0,0,0-.46-0.07,1.54,1.54,0,0,0-.58.11,1.59,1.59,0,0,0-.51.33,1.67,1.67,0,0,0-.37.53,1.77,1.77,0,0,0-.14.73v3H138v-5.34h0.84v0.92h0a1.7,1.7,0,0,1,.76-0.75,2.36,2.36,0,0,1,1.06-.24,2.68,2.68,0,0,1,.57.07,1.75,1.75,0,0,1,1.13.83,1.76,1.76,0,0,1,.21.91v3.59h-0.84V121.7Z"/><path class="cls-1" d="M144.81,120.25h-1.13v-0.68h1.13v-0.36a4.15,4.15,0,0,1,.09-0.83,2.35,2.35,0,0,1,.28-0.74,1.55,1.55,0,0,1,.54-0.53,1.63,1.63,0,0,1,.85-0.2l0.33,0,0.36,0.06v0.79a1.08,1.08,0,0,0-.31-0.07l-0.37,0a0.78,0.78,0,0,0-.48.14,0.92,0.92,0,0,0-.28.36,1.68,1.68,0,0,0-.14.51,5,5,0,0,0,0,.58v0.32h1.54v0.68h-1.54v4.66h-0.84v-4.66Z"/><path class="cls-1" d="M148.16,117.76a0.64,0.64,0,0,1,.64-0.64,0.59,0.59,0,0,1,.44.19,0.62,0.62,0,0,1,.18.45,0.62,0.62,0,0,1-.62.62,0.62,0.62,0,0,1-.45-0.18A0.59,0.59,0,0,1,148.16,117.76Zm0.21,1.82h0.84v5.34h-0.84v-5.34Z"/><path class="cls-1" d="M153.46,125.06a2.48,2.48,0,0,1-.88-0.16,2.25,2.25,0,0,1-.79-0.51,2.64,2.64,0,0,1-.57-0.87,3.27,3.27,0,0,1-.22-1.27,3.07,3.07,0,0,1,.21-1.14,2.78,2.78,0,0,1,.56-0.89,2.48,2.48,0,0,1,.83-0.58,2.58,2.58,0,0,1,1-.2,2.37,2.37,0,0,1,.66.08,2.18,2.18,0,0,1,.52.22,1.7,1.7,0,0,1,.39.31,2,2,0,0,1,.26.36h0v-3.51h0.82v8h-0.82V124h0a2,2,0,0,1-.26.35,2.28,2.28,0,0,1-.42.35A2.28,2.28,0,0,1,153.46,125.06Zm-1.57-2.85a2.91,2.91,0,0,0,.13.93,1.85,1.85,0,0,0,.36.65,1.49,1.49,0,0,0,.55.39,1.78,1.78,0,0,0,.68.13,1.71,1.71,0,0,0,.66-0.14,1.76,1.76,0,0,0,.59-0.4,2.08,2.08,0,0,0,.43-0.66,2.43,2.43,0,0,0,.17-0.93,2.4,2.4,0,0,0-.12-0.78,1.91,1.91,0,0,0-.36-0.64,1.73,1.73,0,0,0-.58-0.43,1.77,1.77,0,0,0-.76-0.16,1.61,1.61,0,0,0-.74.17,1.64,1.64,0,0,0-.55.44,2,2,0,0,0-.33.65A2.69,2.69,0,0,0,151.89,122.21Z"/><path class="cls-1" d="M163.09,123.7a2.33,2.33,0,0,1-1,1,3,3,0,0,1-1.51.35,2.81,2.81,0,0,1-1.21-.24,2.43,2.43,0,0,1-.83-0.62,2.47,2.47,0,0,1-.48-0.87,3.34,3.34,0,0,1-.15-1,3.42,3.42,0,0,1,.19-1.17,2.69,2.69,0,0,1,.55-0.92,2.5,2.5,0,0,1,.86-0.6,2.86,2.86,0,0,1,1.13-.22,3,3,0,0,1,1,.16,2.05,2.05,0,0,1,.78.49,2.24,2.24,0,0,1,.51.83,3.48,3.48,0,0,1,.18,1.18v0.35h-4.3a2.16,2.16,0,0,0,.13.77,1.79,1.79,0,0,0,.37.6,1.57,1.57,0,0,0,.57.39,2,2,0,0,0,.77.14,2.11,2.11,0,0,0,.63-0.08,2,2,0,0,0,.48-0.22,1.45,1.45,0,0,0,.34-0.29,1.72,1.72,0,0,0,.22-0.32Zm-0.79-1.94a1.8,1.8,0,0,0-.11-0.62,1.59,1.59,0,0,0-.31-0.52,1.36,1.36,0,0,0-.5-0.35,1.78,1.78,0,0,0-.69-0.12,2,2,0,0,0-.82.15,1.55,1.55,0,0,0-.55.39,1.69,1.69,0,0,0-.32.52,2.38,2.38,0,0,0-.14.56h3.43Z"/><path class="cls-1" d="M168.57,121.7a1.79,1.79,0,0,0-.12-0.7,1.27,1.27,0,0,0-.31-0.45,1.08,1.08,0,0,0-.41-0.24,1.6,1.6,0,0,0-.46-0.07,1.54,1.54,0,0,0-.58.11,1.59,1.59,0,0,0-.51.33,1.67,1.67,0,0,0-.37.53,1.77,1.77,0,0,0-.14.73v3h-0.84v-5.34h0.84v0.92h0a1.7,1.7,0,0,1,.76-0.75,2.36,2.36,0,0,1,1.06-.24,2.68,2.68,0,0,1,.57.07,1.75,1.75,0,0,1,1.13.83,1.76,1.76,0,0,1,.21.91v3.59h-0.84V121.7Z"/><path class="cls-1" d="M175.2,121a1.51,1.51,0,0,0-.47-0.6,1.53,1.53,0,0,0-.94-0.24,1.65,1.65,0,0,0-1.35.63,2,2,0,0,0-.35.69,3,3,0,0,0-.12.86,2.69,2.69,0,0,0,.1.72,1.64,1.64,0,0,0,.88,1.07,1.86,1.86,0,0,0,.84.17,1.45,1.45,0,0,0,.94-0.26,1.65,1.65,0,0,0,.48-0.62l0.82,0.26a2.38,2.38,0,0,1-.28.48,2.11,2.11,0,0,1-.45.44,2.33,2.33,0,0,1-.65.32,2.74,2.74,0,0,1-.86.13,3,3,0,0,1-1.15-.21,2.43,2.43,0,0,1-.85-0.58,2.46,2.46,0,0,1-.52-0.86,3.07,3.07,0,0,1-.18-1.06,3.35,3.35,0,0,1,.22-1.24,2.67,2.67,0,0,1,.59-0.92,2.56,2.56,0,0,1,.87-0.57,2.78,2.78,0,0,1,1-.2,2.6,2.6,0,0,1,1.44.37,1.73,1.73,0,0,1,.75,1Z"/><path class="cls-1" d="M182.42,123.7a2.33,2.33,0,0,1-1,1,3,3,0,0,1-1.51.35,2.81,2.81,0,0,1-1.21-.24,2.43,2.43,0,0,1-.83-0.62,2.47,2.47,0,0,1-.48-0.87,3.34,3.34,0,0,1-.15-1,3.42,3.42,0,0,1,.19-1.17,2.69,2.69,0,0,1,.55-0.92,2.5,2.5,0,0,1,.86-0.6,2.86,2.86,0,0,1,1.13-.22,3,3,0,0,1,1,.16,2.05,2.05,0,0,1,.78.49,2.24,2.24,0,0,1,.51.83,3.48,3.48,0,0,1,.18,1.18v0.35h-4.3a2.16,2.16,0,0,0,.13.77,1.79,1.79,0,0,0,.37.6,1.57,1.57,0,0,0,.57.39,2,2,0,0,0,.77.14,2.11,2.11,0,0,0,.63-0.08,2,2,0,0,0,.48-0.22,1.45,1.45,0,0,0,.34-0.29,1.72,1.72,0,0,0,.22-0.32Zm-0.79-1.94a1.8,1.8,0,0,0-.11-0.62,1.59,1.59,0,0,0-.31-0.52,1.36,1.36,0,0,0-.5-0.35,1.78,1.78,0,0,0-.69-0.12,2,2,0,0,0-.82.15,1.55,1.55,0,0,0-.55.39,1.69,1.69,0,0,0-.32.52,2.38,2.38,0,0,0-.14.56h3.43Z"/><rect class="cls-2" x="106.72" y="58.05" width="36.56" height="29.82" rx="3.01" ry="3.01"/><rect class="cls-3" x="106.72" y="67.29" width="36.55" height="0.6"/><rect class="cls-3" x="116.46" y="58.05" width="0.6" height="29.82"/><rect class="cls-2" x="123.79" y="75.62" width="15.46" height="8.03"/><path class="cls-3" d="M116.71,67.94V67.6a3.21,3.21,0,0,1,.73-2.43,2.14,2.14,0,0,1,1.56-.64,1.8,1.8,0,0,1,1.87,1.22c0.06,0.41-.08,1.17-1.68,1.77h0l-0.25.08-0.07,0h0l-0.11,0-1.67.24ZM119,65.13a1.55,1.55,0,0,0-1.13.46,2.47,2.47,0,0,0-.56,1.65l1.37-.19h0l0.16-.05,0.05,0c1.07-.38,1.42-0.84,1.38-1.14A1.27,1.27,0,0,0,119,65.13Z"/><path class="cls-3" d="M117.19,67.81l-2.35-.49h0l-0.15,0h-0.11l-0.17,0h0c-1.7-.48-1.72-1.5-1.69-1.81a1.6,1.6,0,0,1,1.61-1.34c0.58,0,2,.32,2.76,3.29Zm-2.87-3.15a1,1,0,0,0-1,.81c-0.06.53,0.47,1,1.43,1.21L116.37,67C115.9,65.53,115.16,64.66,114.32,64.66Z"/><path class="cls-3" d="M114.55,74.47l-0.1,0a2.59,2.59,0,0,1-2-1.77A4.88,4.88,0,0,1,113.64,69a4.31,4.31,0,0,1,3.06-1.78,0.3,0.3,0,0,1,0,.6,3.78,3.78,0,0,0-2.61,1.56A4.33,4.33,0,0,0,113,72.57a2.05,2.05,0,0,0,1.62,1.31A0.3,0.3,0,0,1,114.55,74.47Z"/><path class="cls-3" d="M120,73.63h0a1.09,1.09,0,0,1-.88-0.73,1.52,1.52,0,0,1,.26-1.59,3.62,3.62,0,0,1,.8-0.67,5.7,5.7,0,0,0-.57-0.81,6,6,0,0,0-2.93-2,0.3,0.3,0,1,1,.16-0.58A6.68,6.68,0,0,1,120,69.45a6.59,6.59,0,0,1,.63.91,3.42,3.42,0,0,1,1.15-.29,2.82,2.82,0,0,1,2.77,2.14,0.3,0.3,0,1,1-.59.12,2.29,2.29,0,0,0-2.15-1.66,2.79,2.79,0,0,0-.92.23,2.32,2.32,0,0,1,0,2.12A1,1,0,0,1,120,73.63Zm0.39-2.45a2.94,2.94,0,0,0-.61.52,0.92,0.92,0,0,0-.15,1,0.54,0.54,0,0,0,.36.36,0.47,0.47,0,0,0,.37-0.31A1.74,1.74,0,0,0,120.35,71.18Z"/></svg>