<svg id="Layer_1" data-name="Layer 1" xmlns="http://www.w3.org/2000/svg" viewBox="0 0 250 158"><defs><style>.cls-1{fill:#00453f;}</style></defs><title>About-Us_Green_Icon-option</title><path class="cls-1" d="M35.53,112L36,112c0.36,0,.5-0.1.5-0.49v-6.88c0-.39-0.14-0.47-0.5-0.49l-0.51,0v-0.34h6.85l0.41,2.79H42.54l-1.38-2.16a0.33,0.33,0,0,0-.36-0.19H38v3.44h1.63a0.19,0.19,0,0,0,.23-0.14l0.48-1.41h0.24v3.59H40.35l-0.48-1.41c0-.11-0.08-0.14-0.23-0.14H38v3.36c0,0.39.14,0.45,0.51,0.46l0.94,0v0.36H35.53V112Z"/><path class="cls-1" d="M43.6,112l0.51,0c0.36,0,.5-0.1.5-0.49v-6.88c0-.39-0.14-0.47-0.5-0.49l-0.51,0v-0.34H47c2.16,0,3.63.5,3.63,2.08,0,1.08-.77,1.88-2.34,2.13l3.85,4.39H50.3l-3.66-4.21H46.09v3.35c0,0.39.14,0.46,0.51,0.49l0.51,0v0.34H43.6V112Zm3.33-4.3c1.36,0,2.1-.57,2.1-1.77s-0.74-1.77-2.1-1.77H46.09v3.54h0.84Z"/><path class="cls-1" d="M52.44,112l0.51,0c0.36,0,.5-0.1.5-0.49v-6.88c0-.39-0.14-0.47-0.5-0.49l-0.51,0v-0.34H59l0.4,2.79H59.12l-1.36-2.16a0.32,0.32,0,0,0-.37-0.19H54.92v3.44h1.51a0.18,0.18,0,0,0,.23-0.14l0.49-1.41h0.24v3.59H57.15l-0.49-1.41a0.18,0.18,0,0,0-.23-0.14H54.92v3.78h3a0.31,0.31,0,0,0,.33-0.16l1.8-2.2h0.24l-0.81,2.8h-7V112Z"/><path class="cls-1" d="M61.1,112l0.51,0c0.36,0,.5-0.1.5-0.49v-6.88c0-.39-0.14-0.47-0.5-0.49l-0.51,0v-0.34h6.53l0.4,2.79H67.79l-1.36-2.16a0.32,0.32,0,0,0-.37-0.19H63.59v3.44H65.1a0.19,0.19,0,0,0,.23-0.14l0.49-1.41h0.24v3.59H65.81l-0.49-1.41a0.18,0.18,0,0,0-.23-0.14H63.59v3.78h3a0.31,0.31,0,0,0,.33-0.16l1.8-2.2H69l-0.81,2.8h-7V112Z"/><path class="cls-1" d="M72.75,112l0.51,0c0.36,0,.5-0.1.5-0.49v-6.88c0-.39-0.14-0.47-0.5-0.49l-0.51,0v-0.34H76c3,0,5.27,1.39,5.27,4.25s-2.29,4.36-5.2,4.36H72.75V112ZM76,112c2.11,0,3.6-1,3.6-3.63,0-2.91-1.29-4.13-3.66-4.13H75.24V112H76Z"/><path class="cls-1" d="M82.26,112l0.51,0c0.36,0,.5-0.1.5-0.49v-6.88c0-.39-0.14-0.47-0.5-0.49l-0.51,0v-0.34h6.53l0.4,2.79H88.95l-1.36-2.16a0.32,0.32,0,0,0-.37-0.19H84.75v3.44h1.51a0.19,0.19,0,0,0,.23-0.14L87,106.1h0.24v3.59H87l-0.49-1.41a0.18,0.18,0,0,0-.23-0.14H84.75v3.78h3a0.31,0.31,0,0,0,.33-0.16l1.8-2.2h0.24l-0.81,2.8h-7V112Z"/><path class="cls-1" d="M90.92,112l0.51,0c0.36,0,.5-0.1.5-0.49v-6.88c0-.39-0.14-0.47-0.5-0.49l-0.51,0v-0.34h3.51v0.34l-0.51,0c-0.37,0-.51.1-0.51,0.49v7.3H96a0.33,0.33,0,0,0,.34-0.16l1.79-2.2h0.24l-0.81,2.8h-6.6V112Z"/><path class="cls-1" d="M99,112l0.51,0c0.36,0,.5-0.1.5-0.49v-6.88c0-.39-0.14-0.47-0.5-0.49l-0.51,0v-0.34h3.51v0.34l-0.51,0c-0.37,0-.51.1-0.51,0.49v6.88c0,0.39.14,0.46,0.51,0.49l0.51,0v0.34H99V112Z"/><path class="cls-1" d="M104,104.59a0.61,0.61,0,0,0-.65-0.45l-0.44,0v-0.34h3.58v0.34l-0.53,0c-0.37,0-.52.11-0.37,0.45l2.45,5.93,2.47-5.93c0.14-.34,0-0.43-0.39-0.45l-0.52,0v-0.34h2.54v0.34l-0.43,0a0.64,0.64,0,0,0-.66.45l-3.43,8.09h-0.21Z"/><path class="cls-1" d="M112.51,112l0.51,0c0.36,0,.5-0.1.5-0.49v-6.88c0-.39-0.14-0.47-0.5-0.49l-0.51,0v-0.34H119l0.4,2.79H119.2l-1.36-2.16a0.32,0.32,0,0,0-.37-0.19H115v3.44h1.51a0.19,0.19,0,0,0,.23-0.14l0.49-1.41h0.24v3.59h-0.24l-0.49-1.41a0.18,0.18,0,0,0-.23-0.14H115v3.78h3a0.31,0.31,0,0,0,.33-0.16l1.8-2.2h0.24l-0.81,2.8h-7V112Z"/><path class="cls-1" d="M121.18,112l0.51,0c0.36,0,.5-0.1.5-0.49v-6.88c0-.39-0.14-0.47-0.5-0.49l-0.51,0v-0.34h3.42c2.16,0,3.63.5,3.63,2.08,0,1.08-.77,1.88-2.34,2.13l3.85,4.39h-1.86l-3.66-4.21h-0.56v3.35c0,0.39.14,0.46,0.51,0.49l0.51,0v0.34h-3.51V112Zm3.33-4.3c1.36,0,2.1-.57,2.1-1.77s-0.74-1.77-2.1-1.77h-0.84v3.54h0.84Z"/><path class="cls-1" d="M131.54,112l0.74,0c0.35,0,.5-0.08.5-0.46v-3l-2.66-3.89a0.73,0.73,0,0,0-.66-0.45l-0.43,0v-0.34h3.61v0.34l-0.52,0c-0.37,0-.6.14-0.39,0.45L134,108l2.3-3.37c0.23-.33,0-0.43-0.37-0.45l-0.53,0v-0.34H138v0.34l-0.44,0a0.7,0.7,0,0,0-.65.45l-2.67,3.89v3c0,0.39.15,0.44,0.52,0.46l0.73,0v0.35h-4V112Z"/><path class="cls-1" d="M141,110c0-1.33,1.16-2.11,2.4-2.6a2.67,2.67,0,0,1-1.1-1.94,2.23,2.23,0,0,1,2.48-1.93c1.29,0,2.17.58,2.17,1.51s-1.09,1.54-2.12,1.93a29.68,29.68,0,0,1,2.53,2.47l1-1.74c0.28-.49.18-0.71-0.25-0.73l-0.58,0v-0.31h2.72V107l-0.48,0a1,1,0,0,0-.82.57l-1.33,2.21c0.42,0.47.82,0.94,1.17,1.4a1.81,1.81,0,0,0,1,.85l0.4,0v0.31h-2.32c-0.28-.4-0.66-0.89-1.09-1.4a3.78,3.78,0,0,1-2.92,1.53A2.63,2.63,0,0,1,141,110Zm3.52,1.75a2.57,2.57,0,0,0,2.05-1.1,27.26,27.26,0,0,0-3-3.08,2,2,0,0,0-1.16,1.87A2.14,2.14,0,0,0,144.49,111.77Zm0.1-5a1.76,1.76,0,0,0,1.28-1.67,1.1,1.1,0,0,0-1.15-1.25,1.07,1.07,0,0,0-1.21,1.09A2.51,2.51,0,0,0,144.59,106.82Z"/><path class="cls-1" d="M153.62,112l0.51,0c0.36,0,.5-0.1.5-0.49v-6.88c0-.39-0.14-0.47-0.5-0.49l-0.51,0v-0.34H157c2.16,0,3.63.5,3.63,2.08,0,1.08-.77,1.88-2.34,2.13l3.85,4.39h-1.86l-3.66-4.21h-0.56v3.35c0,0.39.14,0.46,0.51,0.49l0.51,0v0.34h-3.51V112Zm3.33-4.3c1.36,0,2.1-.57,2.1-1.77s-0.74-1.77-2.1-1.77h-0.84v3.54h0.84Z"/><path class="cls-1" d="M162.46,112l0.51,0c0.36,0,.5-0.1.5-0.49v-6.88c0-.39-0.14-0.47-0.5-0.49l-0.51,0v-0.34H169l0.4,2.79h-0.24l-1.36-2.16a0.32,0.32,0,0,0-.37-0.19h-2.46v3.44h1.51a0.18,0.18,0,0,0,.23-0.14l0.49-1.41h0.24v3.59h-0.24l-0.49-1.41a0.18,0.18,0,0,0-.23-0.14h-1.51v3.78h3a0.31,0.31,0,0,0,.33-0.16l1.8-2.2h0.24l-0.81,2.8h-7V112Z"/><path class="cls-1" d="M172.84,112l0.74,0c0.36,0,.5-0.08.5-0.46v-7.35h-1.6a0.32,0.32,0,0,0-.37.19l-1.21,2.27h-0.23l0.26-2.86h7.79l0.27,2.86h-0.24l-1.21-2.27a0.31,0.31,0,0,0-.36-0.19h-1.61v7.35c0,0.39.14,0.44,0.51,0.46l0.74,0v0.35h-4V112Z"/><path class="cls-1" d="M180.54,109v-4.38c0-.39-0.15-0.47-0.51-0.49l-0.51,0v-0.34H183v0.34l-0.51,0c-0.36,0-.5.1-0.5,0.49V109c0,2,.84,2.78,2.5,2.78s2.59-.93,2.59-2.91v-4.29c0-.39-0.14-0.47-0.5-0.49l-0.51,0v-0.34h2.57v0.34l-0.51,0c-0.36,0-.51.1-0.51,0.49V109a3.15,3.15,0,0,1-3.51,3.51C181.86,112.51,180.54,111.43,180.54,109Z"/><path class="cls-1" d="M189.56,112l0.51,0c0.36,0,.5-0.1.5-0.49v-6.88c0-.39-0.14-0.47-0.5-0.49l-0.51,0v-0.34H193c2.16,0,3.63.5,3.63,2.08,0,1.08-.77,1.88-2.34,2.13l3.85,4.39h-1.86l-3.66-4.21H192v3.35c0,0.39.14,0.46,0.51,0.49l0.51,0v0.34h-3.51V112Zm3.33-4.3c1.36,0,2.1-.57,2.1-1.77s-0.74-1.77-2.1-1.77H192v3.54h0.84Z"/><path class="cls-1" d="M198.43,112l0.51,0c0.37,0,.51-0.1.51-0.49V105l-1.09-1.2v0h1.92l5.56,6v-5.15c0-.39-0.15-0.47-0.51-0.49l-0.51,0v-0.34h2.57v0.34l-0.51,0c-0.36,0-.5.1-0.5,0.49v7.95h0l-6.35-7v5.93c0,0.39.14,0.46,0.51,0.49l0.5,0v0.34h-2.57V112Z"/><path class="cls-1" d="M209,112.15l-0.5-2.74h0.24l1.36,2.16a0.86,0.86,0,0,0,.49.41,2.72,2.72,0,0,0,.76.09c1.08,0,1.93-.53,1.93-1.49s-0.73-1.46-1.94-1.9l-0.61-.21a2.65,2.65,0,0,1-2.12-2.55c0-1.59,1.54-2.37,3.13-2.37a5.39,5.39,0,0,1,1.86.31l0.48,2.49h-0.24l-1.33-2a0.61,0.61,0,0,0-.45-0.34,2.55,2.55,0,0,0-.52,0,1.55,1.55,0,0,0-1.75,1.37,1.64,1.64,0,0,0,1.35,1.61l0.61,0.22c1.59,0.56,2.74,1.17,2.74,2.75s-1.53,2.55-3.17,2.55A6.56,6.56,0,0,1,209,112.15Z"/><path class="cls-1" d="M81.29,122.14a4.19,4.19,0,0,1,.3-1.61,3.89,3.89,0,0,1,.82-1.27,3.75,3.75,0,0,1,1.24-.83,4,4,0,0,1,1.56-.3,4.34,4.34,0,0,1,1.57.28,3.53,3.53,0,0,1,1.24.8,3.68,3.68,0,0,1,.82,1.26,4.45,4.45,0,0,1,.3,1.67,4.18,4.18,0,0,1-.3,1.61A3.86,3.86,0,0,1,88,125a3.77,3.77,0,0,1-1.25.83,4,4,0,0,1-1.55.3,4.33,4.33,0,0,1-1.57-.28,3.51,3.51,0,0,1-1.24-.79,3.67,3.67,0,0,1-.81-1.26A4.51,4.51,0,0,1,81.29,122.14Zm6.92,0A4.19,4.19,0,0,0,88,121a3,3,0,0,0-.53-1,2.78,2.78,0,0,0-.93-0.75,3.4,3.4,0,0,0-2.75,0,2.77,2.77,0,0,0-.93.75,3,3,0,0,0-.53,1,4.23,4.23,0,0,0,0,2.33,3,3,0,0,0,.52,1,2.62,2.62,0,0,0,.93.73,3.57,3.57,0,0,0,2.77,0,2.64,2.64,0,0,0,.93-0.73,3,3,0,0,0,.52-1A4.21,4.21,0,0,0,88.21,122.15Z"/><path class="cls-1" d="M94.5,122.78a1.79,1.79,0,0,0-.12-0.7,1.27,1.27,0,0,0-.31-0.45,1.08,1.08,0,0,0-.41-0.24,1.6,1.6,0,0,0-.46-0.07,1.54,1.54,0,0,0-.58.11,1.59,1.59,0,0,0-.51.33,1.67,1.67,0,0,0-.37.53,1.77,1.77,0,0,0-.14.73v3H90.76v-5.34H91.6v0.92h0a1.7,1.7,0,0,1,.76-0.75,2.36,2.36,0,0,1,1.06-.24,2.68,2.68,0,0,1,.57.07,1.75,1.75,0,0,1,1.13.83,1.76,1.76,0,0,1,.21.91V126H94.5v-3.21Z"/><path class="cls-1" d="M102.34,118.28h0.9l2.94,7.72h-1l-0.78-2.18h-3.27L100.32,126h-1Zm0.43,1.09h0L101.4,123h2.68Z"/><path class="cls-1" d="M107.42,118h0.84v8h-0.84v-8Z"/><path class="cls-1" d="M110.38,118h0.84v8h-0.84v-8Z"/><path class="cls-1" d="M116.2,118.28h0.86v5a2.49,2.49,0,0,0,.15.92,1.66,1.66,0,0,0,1.06,1,2.58,2.58,0,0,0,.82.13,2.38,2.38,0,0,0,.77-0.12,1.68,1.68,0,0,0,.65-0.4,2,2,0,0,0,.44-0.69,2.77,2.77,0,0,0,.16-1v-4.86H122v4.87a3.44,3.44,0,0,1-.23,1.32,2.7,2.7,0,0,1-.62.94,2.48,2.48,0,0,1-.91.56,3.37,3.37,0,0,1-1.11.18,3.65,3.65,0,0,1-1.25-.2,2.49,2.49,0,0,1-.91-0.56,2.35,2.35,0,0,1-.55-0.85,3.07,3.07,0,0,1-.19-1.1v-5.17Z"/><path class="cls-1" d="M124.07,118.28h0.86v3.65h0l3.33-3.65h1.16l-3.53,3.7,3.58,4h-1.19L125,122.09h0V126h-0.86v-7.72Z"/><path class="cls-1" d="M133.31,122.14a4.19,4.19,0,0,1,.3-1.61,3.89,3.89,0,0,1,.82-1.27,3.75,3.75,0,0,1,1.24-.83,4,4,0,0,1,1.56-.3,4.34,4.34,0,0,1,1.57.28,3.53,3.53,0,0,1,1.24.8,3.68,3.68,0,0,1,.82,1.26,4.45,4.45,0,0,1,.3,1.67,4.18,4.18,0,0,1-.3,1.61A3.86,3.86,0,0,1,140,125a3.77,3.77,0,0,1-1.25.83,4,4,0,0,1-1.55.3,4.33,4.33,0,0,1-1.57-.28,3.51,3.51,0,0,1-1.24-.79,3.67,3.67,0,0,1-.81-1.26A4.51,4.51,0,0,1,133.31,122.14Zm6.92,0a4.19,4.19,0,0,0-.17-1.16,3,3,0,0,0-.53-1,2.78,2.78,0,0,0-.93-0.75,3.4,3.4,0,0,0-2.75,0,2.77,2.77,0,0,0-.93.75,3,3,0,0,0-.53,1,4.23,4.23,0,0,0,0,2.33,3,3,0,0,0,.52,1,2.62,2.62,0,0,0,.93.73,3.57,3.57,0,0,0,2.77,0,2.64,2.64,0,0,0,.93-0.73,3,3,0,0,0,.52-1A4.21,4.21,0,0,0,140.23,122.15Z"/><path class="cls-1" d="M142.78,120.66h0.82V122h0a1.85,1.85,0,0,1,.26-0.44,2.53,2.53,0,0,1,.44-0.44,2.49,2.49,0,0,1,.57-0.34,1.62,1.62,0,0,1,.65-0.14h0.29v0.81h-0.27a1.76,1.76,0,0,0-.76.17,1.89,1.89,0,0,0-.61.45,2.18,2.18,0,0,0-.41.69,2.4,2.4,0,0,0-.15.87V126h-0.84v-5.34Z"/><path class="cls-1" d="M149,126.15a2.48,2.48,0,0,1-.88-0.16,2.25,2.25,0,0,1-.79-0.51,2.64,2.64,0,0,1-.57-0.87,3.27,3.27,0,0,1-.22-1.27,3.07,3.07,0,0,1,.21-1.14,2.78,2.78,0,0,1,.56-0.89,2.48,2.48,0,0,1,.83-0.58,2.58,2.58,0,0,1,1-.2,2.37,2.37,0,0,1,.66.08,2.18,2.18,0,0,1,.52.22,1.7,1.7,0,0,1,.39.31,2,2,0,0,1,.26.36h0V118h0.82v8H151v-0.93h0a2,2,0,0,1-.26.35,2.28,2.28,0,0,1-.42.35A2.28,2.28,0,0,1,149,126.15Zm-1.57-2.85a2.91,2.91,0,0,0,.13.93,1.85,1.85,0,0,0,.36.65,1.49,1.49,0,0,0,.55.39,1.78,1.78,0,0,0,.68.13,1.71,1.71,0,0,0,.66-0.14,1.76,1.76,0,0,0,.59-0.4,2.08,2.08,0,0,0,.43-0.66,2.43,2.43,0,0,0,.17-0.93,2.4,2.4,0,0,0-.12-0.78,1.91,1.91,0,0,0-.36-0.64,1.73,1.73,0,0,0-.58-0.43,1.77,1.77,0,0,0-.76-0.16,1.61,1.61,0,0,0-.74.17,1.64,1.64,0,0,0-.55.44,2,2,0,0,0-.33.65A2.69,2.69,0,0,0,147.47,123.29Z"/><path class="cls-1" d="M158.67,124.78a2.33,2.33,0,0,1-1,1,3,3,0,0,1-1.51.35,2.81,2.81,0,0,1-1.21-.24,2.43,2.43,0,0,1-.83-0.62,2.47,2.47,0,0,1-.48-0.87,3.34,3.34,0,0,1-.15-1,3.42,3.42,0,0,1,.19-1.17,2.69,2.69,0,0,1,.55-0.92,2.5,2.5,0,0,1,.86-0.6,2.86,2.86,0,0,1,1.13-.22,3,3,0,0,1,1,.16,2.05,2.05,0,0,1,.78.49,2.24,2.24,0,0,1,.51.83,3.48,3.48,0,0,1,.18,1.18v0.35h-4.3a2.16,2.16,0,0,0,.13.77,1.79,1.79,0,0,0,.37.6,1.57,1.57,0,0,0,.57.39,2,2,0,0,0,.77.14,2.11,2.11,0,0,0,.63-0.08,2,2,0,0,0,.48-0.22,1.45,1.45,0,0,0,.34-0.29,1.72,1.72,0,0,0,.22-0.32Zm-0.79-1.94a1.8,1.8,0,0,0-.11-0.62,1.59,1.59,0,0,0-.31-0.52,1.36,1.36,0,0,0-.5-0.35,1.78,1.78,0,0,0-.69-0.12,2,2,0,0,0-.82.15,1.55,1.55,0,0,0-.55.39,1.69,1.69,0,0,0-.32.52,2.38,2.38,0,0,0-.14.56h3.43Z"/><path class="cls-1" d="M160.41,120.66h0.82V122h0a1.85,1.85,0,0,1,.26-0.44,2.53,2.53,0,0,1,.44-0.44,2.49,2.49,0,0,1,.57-0.34,1.62,1.62,0,0,1,.65-0.14h0.29v0.81h-0.27a1.76,1.76,0,0,0-.76.17,1.89,1.89,0,0,0-.61.45,2.18,2.18,0,0,0-.41.69,2.4,2.4,0,0,0-.15.87V126h-0.84v-5.34Z"/><path class="cls-1" d="M167.89,122.19a1.33,1.33,0,0,0-.1-0.4,0.91,0.91,0,0,0-.23-0.32,1.1,1.1,0,0,0-.39-0.22,1.87,1.87,0,0,0-.59-0.08,1.84,1.84,0,0,0-.48.06,1.43,1.43,0,0,0-.41.18,0.91,0.91,0,0,0-.28.29,0.71,0.71,0,0,0-.11.39,0.8,0.8,0,0,0,.07.35,0.52,0.52,0,0,0,.23.22,1.82,1.82,0,0,0,.41.15l0.63,0.12a7.71,7.71,0,0,1,.87.17,2.47,2.47,0,0,1,.67.27,1.24,1.24,0,0,1,.44.44,1.35,1.35,0,0,1,.16.69,1.57,1.57,0,0,1-.12.6,1.34,1.34,0,0,1-.39.52,2.06,2.06,0,0,1-.7.37,3.42,3.42,0,0,1-1.06.14,4,4,0,0,1-1.06-.12,1.79,1.79,0,0,1-.68-0.33,1.29,1.29,0,0,1-.37-0.51,2.31,2.31,0,0,1-.15-0.66h0.84a1.14,1.14,0,0,0,.08.36,0.69,0.69,0,0,0,.23.3,1.27,1.27,0,0,0,.43.2,2.45,2.45,0,0,0,.66.07,2.29,2.29,0,0,0,1-.21,0.71,0.71,0,0,0,.41-0.68,0.84,0.84,0,0,0-.07-0.35,0.61,0.61,0,0,0-.24-0.25,1.79,1.79,0,0,0-.48-0.19,7.65,7.65,0,0,0-.77-0.15,7.32,7.32,0,0,1-.76-0.14,2,2,0,0,1-.6-0.24,1.14,1.14,0,0,1-.39-0.41,1.37,1.37,0,0,1-.14-0.67,1.48,1.48,0,0,1,.17-0.73,1.51,1.51,0,0,1,.47-0.51,2.14,2.14,0,0,1,.69-0.31,3.4,3.4,0,0,1,.85-0.1,2.93,2.93,0,0,1,.82.11,2,2,0,0,1,.65.32,1.45,1.45,0,0,1,.43.52,1.65,1.65,0,0,1,.15.73h-0.82Z"/><path class="cls-1" d="M120,69.34l0,0-0.08,0Z"/><path class="cls-1" d="M120.4,63.21l0.11,0.11s0,0,0,0a0.68,0.68,0,0,1-.11-0.1v0Z"/><path class="cls-1" d="M121.43,70.76a0.06,0.06,0,0,0,0,0,0.32,0.32,0,0,1-.25-0.22,0.21,0.21,0,0,0-.2-0.14l-0.25.07-0.15.14a0.55,0.55,0,0,1,0,.18c0,0.09,0,.21-0.13.25a0.05,0.05,0,0,0,0,0c0.11,0.13,0,.19-0.08.28a0.56,0.56,0,0,0-.07.37,0.17,0.17,0,0,0,.13.15h0A6.87,6.87,0,0,1,121.43,70.76Z"/><path class="cls-1" d="M117.08,72.91s0.06,0,.08,0,0,0,.07,0a0.13,0.13,0,0,0,.16,0c0.05-.06,0-0.08,0-0.12s-0.17-.09-0.18-0.2a0.05,0.05,0,0,0-.07-0.06,0.07,0.07,0,0,0,0,0s0,0.06.05,0.09a0.32,0.32,0,0,1,0,.27S117.06,72.86,117.08,72.91Z"/><path class="cls-1" d="M125,63.26l0,0,0,0,0,0A0,0,0,0,1,125,63.26Zm-1.13-.6a0,0,0,0,1,0,0,0,0,0,0,1,0,.06s0,0,0,0S123.81,62.67,123.85,62.67Zm-0.23-.22,0,0-0.06,0,0,0A0,0,0,0,1,123.62,62.45Z"/><path class="cls-1" d="M138.32,81.6s0,0.08,0,.12a1.4,1.4,0,0,0,.08.45l0,0,0.23-.42Z"/><path class="cls-1" d="M138.13,78.9a0.38,0.38,0,0,0-.13-0.29,0.14,0.14,0,0,1,0-.17,0.8,0.8,0,0,0,.07-0.35h-0.19a2,2,0,0,0-.54.15l-0.07,0a0,0,0,0,1,0,.06s0,0-.06,0a0.08,0.08,0,0,1-.05-0.06l-0.33.19-0.44.27-0.24.12a0.08,0.08,0,0,0,0,.07c0,0.05,0,.06-0.06.06a0.08,0.08,0,0,1-.1,0,0.07,0.07,0,0,1,0,0h0a1,1,0,0,1-.44,0l-0.07,0a0,0,0,0,1-.05,0v0a0.43,0.43,0,0,1-.26-0.18,0.46,0.46,0,0,1,.15-0.58,0.52,0.52,0,0,1,.4,0l0.39,0.1,0.19-.73L136,77.45a1.37,1.37,0,0,0-1,0,1.36,1.36,0,0,0-.46,1.72,1.09,1.09,0,0,0,.41.37s0-.05,0,0a0.1,0.1,0,0,1,.07.1l0.21,0.08,0,0c0.07,0,0,0,.06.06h0a1.62,1.62,0,0,0,.64,0,1.93,1.93,0,0,0,.54-0.16,3.59,3.59,0,0,0,.47-0.26l0.44-.27a1.84,1.84,0,0,1,.44-0.19A0.91,0.91,0,0,1,138.13,78.9Zm-3.18.32a0,0,0,0,1-.05,0s0,0,0,0a0,0,0,0,1,.06,0A0.06,0.06,0,0,1,135,79.22Zm0.11-1.42a0.06,0.06,0,0,1-.06-0.06s0-.06,0-0.05a0.08,0.08,0,0,1,.06.06A0,0,0,0,1,135.07,77.81Zm0.64,1.79a0,0,0,0,1,0,0,0,0,0,0,1,0,0,0,0,0,0,1,0,0A0,0,0,0,1,135.71,79.6Zm-0.11-.2a0,0,0,0,1,0,0l0.08-.1,0.11-.09s0,0,0,0Zm1.81-.39a0.07,0.07,0,0,1,0-.08s0-.08,0-0.08,0,0,0,.08S137.43,79,137.41,79Z"/><path class="cls-1" d="M138.07,80.17a0.26,0.26,0,0,0,0-.22,1,1,0,0,1,0-.27l-0.16,0-0.19.73,0.19,0,0.07,0A0.76,0.76,0,0,1,138.07,80.17Z"/><path class="cls-1" d="M138.63,74.71H136A1.31,1.31,0,0,0,135,75a1.16,1.16,0,0,0-.33.9,1.19,1.19,0,0,0,.33.9,1.33,1.33,0,0,0,1,.3h2a0.59,0.59,0,0,1,.15-0.41,0.6,0.6,0,0,0,.19-0.39h-2.38a0.55,0.55,0,0,1-.39-0.11,0.41,0.41,0,0,1-.11-0.3,0.4,0.4,0,0,1,.11-0.3,0.53,0.53,0,0,1,.39-0.11h2.43a0.25,0.25,0,0,0,0-.1,0.18,0.18,0,0,1,.06-0.21c0.09-.12.25-0.22,0.13-0.42a0.05,0.05,0,0,1,0-.05,0.06,0.06,0,0,1,.07,0,0.19,0.19,0,0,1,.05.16c0,0.07,0,.13,0,0.2a0.48,0.48,0,0,1-.08.4h0.1a0.52,0.52,0,0,1,.39.11,0.4,0.4,0,0,1,.11.3,0.41,0.41,0,0,1-.11.3,0.47,0.47,0,0,1-.28.11,0,0,0,0,1,0,0s0,0,0,0h-0.27a0.59,0.59,0,0,0,0,.39,0.42,0.42,0,0,1,0,.21,0.49,0.49,0,0,0,0,.14l0,0.06h0.1a1.72,1.72,0,0,0,.45-0.06,0.08,0.08,0,0,1,0,0s0,0,.06,0a0.06,0.06,0,0,1,.05,0,1,1,0,0,0,.39-0.23,1.16,1.16,0,0,0,.33-0.9,1.17,1.17,0,0,0-.33-0.9A1.35,1.35,0,0,0,138.63,74.71Zm-1.22,1.72s0,0,0,0,0,0,0,0l0,0A0,0,0,0,1,137.41,76.42Zm1.29,0h0ZM139,76.95s0,0,0,0a0.05,0.05,0,0,1,0,0s0-.09,0-0.11h0V76.77h0l0,0h0C139,76.78,139,76.88,139,76.95Z"/><path class="cls-1" d="M125.24,85.17a1.37,1.37,0,0,0-1.75-.29,0.83,0.83,0,0,0-.15.15l0.13,0c0.12,0,.17.09,0.12,0.22a0.31,0.31,0,0,0,.17.34h0.06l0.07-.05a0.29,0.29,0,0,1,.09-0.1,0.43,0.43,0,0,1,.31-0.06,0.44,0.44,0,0,1,.19.07,0.55,0.55,0,0,1,.2,0,0.09,0.09,0,0,0,.07-0.1,0.26,0.26,0,0,1,.3-0.19h0a0,0,0,0,1,0,0h0l0,0h0a0.51,0.51,0,0,1-.13.14,0.11,0.11,0,0,0-.06.1c0.08,0.23-.09.14-0.18,0.14l-0.12,0,0,0a0.54,0.54,0,0,1,0,.4l0,0.12h0c0.1,0,.13.2,0.27,0.14s0.05,0,0,.06,0,0.14-.08.13-0.14,0-.07.13a0.07,0.07,0,0,1,0,.09s-0.07,0-.1,0a0.37,0.37,0,0,0-.14-0.11l-0.15.89a0.23,0.23,0,0,1,.2.16,0.06,0.06,0,0,0,.06.06c0.08,0,.14,0,0.16.07a0.23,0.23,0,0,1-.08.24,0.37,0.37,0,0,0-.17.23,0.34,0.34,0,0,1-.34.23l0,0.29A0.53,0.53,0,0,1,124,89a0.42,0.42,0,0,1-.32.06l-0.08,0a0.05,0.05,0,0,1,0,0c0,0.08-.09,0-0.14,0s-0.07,0-.09.07,0,0.15,0,.16,0-.1,0-0.15,0-.22-0.18-0.2a0.09,0.09,0,0,1-.1-0.06,0.27,0.27,0,0,0-.37-0.06l0,0a1.05,1.05,0,0,0,.16.46,1.36,1.36,0,0,0,1.76.29,1.05,1.05,0,0,0,.27-0.32h0a0.05,0.05,0,0,1-.06-0.06c0-.08.06-0.07,0.11-0.07h0a1.82,1.82,0,0,0,.12-0.43l0.14-.85-0.17-.15s0,0,0,0a0.18,0.18,0,0,1,.17,0l0.26-1.59A1.35,1.35,0,0,0,125.24,85.17Z"/><path class="cls-1" d="M124.9,86.69a0.07,0.07,0,0,1-.07-0.07,0,0,0,0,1,0,0,0.09,0.09,0,0,1,.08.07A0,0,0,0,1,124.9,86.69Z"/><path class="cls-1" d="M125,86a0,0,0,0,1,0,0s0,0,0,0a0,0,0,0,1,0,0A0,0,0,0,1,125,86Z"/><path class="cls-1" d="M125.05,86.46a0.09,0.09,0,0,1-.06-0.07s0,0,.05,0a0.06,0.06,0,0,1,.05.07A0,0,0,0,1,125.05,86.46Z"/><path class="cls-1" d="M125.09,85.9h0c-0.06,0-.19,0-0.2-0.06a0.4,0.4,0,0,1,.19-0.08c0.09-.07.09,0,0.11,0.07S125.16,85.95,125.09,85.9Z"/><path class="cls-1" d="M135.21,86.07a1.35,1.35,0,0,0-.36-0.93l-1.66-2a1.33,1.33,0,0,0-.84-0.54,1.18,1.18,0,0,0-.91.31l0,0s0,0,0,0a1.13,1.13,0,0,0-.4.75,1.33,1.33,0,0,0,.35.93L133,86.67a1.33,1.33,0,0,0,.84.54,1.18,1.18,0,0,0,.91-0.31A1.2,1.2,0,0,0,135.21,86.07Zm-0.43-.47s0,0,0,0a0.06,0.06,0,0,1,0,0,0,0,0,0,1,0,0S134.77,85.61,134.78,85.6ZM134,84.39s0.05,0,0,0a0.08,0.08,0,0,1-.06.07,0,0,0,0,1-.05,0A0.06,0.06,0,0,1,134,84.39Zm-1.49.53,0,0s0,0,0,0a0,0,0,0,1,0,0S132.52,84.93,132.48,84.92Zm1.94,1.13a0.39,0.39,0,0,1-.16.28,0.4,0.4,0,0,1-.3.11,0.54,0.54,0,0,1-.33-0.23l-1.73-2.13a0.55,0.55,0,0,1-.16-0.37,0.42,0.42,0,0,1,.16-0.28,0.41,0.41,0,0,1,.31-0.1,0.54,0.54,0,0,1,.33.23l1.73,2.13A0.55,0.55,0,0,1,134.43,86.06Zm0.06,0.4a0,0,0,0,1,0,0,0.05,0.05,0,0,1,0,0,0,0,0,0,1,0,0A0.13,0.13,0,0,1,134.49,86.45Z"/><path class="cls-1" d="M130.48,83.68l-0.72.33,0.88,1.9-0.94.43L130,87l0.94-.43,0.33,0.72h0a0.08,0.08,0,0,1,.1,0,0.08,0.08,0,0,1-.07.06L131.58,88l-1.19.55,0.3,0.66,1.92-.88Z"/><path class="cls-1" d="M116.86,75.11a0.09,0.09,0,0,0,.07.1s0,0,0-.07a0.08,0.08,0,0,0-.06-0.09A0,0,0,0,0,116.86,75.11Z"/><path class="cls-1" d="M139.44,79.61a1.13,1.13,0,0,0-.1-0.94,1.38,1.38,0,0,0-.84-0.53l-0.24,0a0.11,0.11,0,0,1,0,0s0,0.06,0,.09a0.15,0.15,0,0,1,0,.17,0.24,0.24,0,0,0,0,.28,0.11,0.11,0,0,1,0,.11,0.24,0.24,0,0,0,0,.09l0,0,0.17,0a0.56,0.56,0,0,1,.35.2,0.38,0.38,0,0,1,0,.31,0.38,0.38,0,0,1-.18.25,0.4,0.4,0,0,1-.22,0,1,1,0,0,1-.07.4,0.2,0.2,0,0,0,.07.22,0.27,0.27,0,0,1,.11.13,1.05,1.05,0,0,0,.44-0.11A1.11,1.11,0,0,0,139.44,79.61Zm-0.85.63-0.06,0,0.06,0,0,0A0,0,0,0,1,138.59,80.25Zm0.18-.07a0,0,0,0,1,0-.05s0-.05,0,0a0.05,0.05,0,0,1,0,.06S138.79,80.18,138.77,80.17Zm0.05,0.06h0s0,0,0,0h0S138.83,80.23,138.83,80.23Zm0.06,0h0v0Z"/><path class="cls-1" d="M126,87.74c-0.16,0-.21,0-0.22.18a0.11,0.11,0,0,1,0,.07l0.05,2,0.8,0-0.13-5.08-0.67,0a0.1,0.1,0,0,1-.1.05h0l0.07,2.74h0.08s0,0,0-.08,0-.08,0-0.07a0.29,0.29,0,0,1,.18.19C126.13,87.75,126.1,87.75,126,87.74Z"/><path class="cls-1" d="M125.87,86.32a0,0,0,0,1,0,0s0-.05,0,0a0.05,0.05,0,0,1,0,0S125.89,86.31,125.87,86.32Z"/><path class="cls-1" d="M126.56,68.45c-0.17,0-.22.21-0.07,0.36a0.37,0.37,0,0,1,0,.33,6.89,6.89,0,0,1-.64,13.75h-0.34a0.08,0.08,0,0,1-.07.06s0,0,0-.06h0a6.81,6.81,0,0,1-3-.9,0.7,0.7,0,0,1-.06.38s0,0.11-.06.1,0-.09,0-0.12a1,1,0,0,0,.05-0.39A6.88,6.88,0,0,1,120,72.4h0a1.37,1.37,0,0,0-.56.18,0.14,0.14,0,0,0-.06.16c0,0.13,0,.26,0,0.39s0,0.16-.13.15a1.22,1.22,0,0,0-.36.08,0.08,0.08,0,0,0-.05,0,0.75,0.75,0,0,1-.18.24,7.63,7.63,0,0,0,3.75,9.16s0-.07,0-0.1,0-.09,0-0.09,0,0.06,0,.1,0,0.08,0,.12a7.57,7.57,0,0,0,3.42.81h0.17a0,0,0,0,1,0,0,0,0,0,0,1,0,0,7.62,7.62,0,0,0,6-12,0,0,0,0,1,0,0h0a7.64,7.64,0,0,0-5.4-3.19A0.15,0.15,0,0,1,126.56,68.45Zm-7,4.84h0s0,0,0,0a0,0,0,0,1,0,0h0Zm-0.77,4.21a0,0,0,0,1,0,0s0,0,0,0a0,0,0,0,1,0,0A0,0,0,0,1,118.76,77.51Zm2,4.13c-0.06,0,0-.07,0-0.11s0-.09,0-0.09,0,0.07,0,.11S120.85,81.64,120.8,81.64Zm0.05-.36h0a0.32,0.32,0,0,1,0-.22h0A0.19,0.19,0,0,1,120.85,81.28Zm3.91,1.84a0,0,0,0,1-.05,0s-0.06,0,0,0,0-.06.07,0A0.05,0.05,0,0,1,124.76,83.11Zm4.07-.28,0,0a0.05,0.05,0,0,1,0-.06l0,0A0,0,0,0,1,128.83,82.84Zm1.38-.92a0.05,0.05,0,0,1,0,0s0-.06,0,0l0,0S130.25,81.93,130.21,81.92Zm2.42-2.7s-0.12,0-.13-0.05,0.05-.08.11-0.07a0.11,0.11,0,0,1,.13.09C132.74,79.26,132.67,79.22,132.63,79.22ZM133,77.5a0,0,0,0,1,0,0,0.09,0.09,0,0,1,0,0,0,0,0,0,1,0,0A0.09,0.09,0,0,1,133,77.5Zm-0.45-4.94s0,0,0,.07a0.05,0.05,0,0,1,0,.07s0,0,0-.05S132.47,72.56,132.53,72.56Zm-1.73-2a0.06,0.06,0,0,1,.07-0.05l0,0a0.13,0.13,0,0,1-.09.08S130.8,70.58,130.8,70.55Z"/><path class="cls-1" d="M131.92,67.11a0.69,0.69,0,1,0,.69-0.69A0.69,0.69,0,0,0,131.92,67.11Zm0.89-.38,0.06,0.07s0,0,0,0l-0.05-.05v0Zm-0.49.87a0,0,0,0,1,0,.05,0,0,0,0,1,0,0,0,0,0,0,1,0-.06S132.29,67.6,132.31,67.61Z"/><path class="cls-1" d="M121.67,70.09L122,70.31a7.3,7.3,0,0,1,.91-0.52l0.06-.12a0.19,0.19,0,0,0,0-.25,0.18,0.18,0,0,1,0-.27,0.31,0.31,0,0,0,.11-0.24,7.65,7.65,0,0,0-1.71.95C121.47,69.93,121.56,70,121.67,70.09Z"/><path class="cls-1" d="M126.35,67a0.08,0.08,0,0,1-.07-0.06,0.07,0.07,0,0,1,.06-0.08,0,0,0,0,1,.06.06S126.4,67,126.35,67Zm1.33-3a0.05,0.05,0,0,1,.07,0s0.06,0,0,0a0.09,0.09,0,0,1-.08.07A0,0,0,0,1,127.68,64.05Zm-0.25.93a0,0,0,0,1,0,0,0,0,0,0,1,0,0s0,0,0,0A0,0,0,0,1,127.43,65Zm-0.11-.2h0.07s0,0,0,0a0,0,0,0,1-.06,0S127.3,64.8,127.32,64.78Zm-0.34.4,0,0h0l0,0s0,0,0,0h0a0,0,0,0,1,0,0A0.07,0.07,0,0,1,127,65.18Zm-0.22-.88a0,0,0,0,1,.06,0,0,0,0,0,1,0,0,0,0,0,0,1-.05,0S126.75,64.32,126.76,64.3Zm0,0.69a0.19,0.19,0,0,0,.08-0.18,0.22,0.22,0,0,0,0-.15s0-.08,0-0.1,0.07,0,.08.06,0.07,0.17.09,0.26a0.11,0.11,0,0,1-.05.13,0.25,0.25,0,0,1-.18.05C126.65,65,126.69,65,126.71,65Z"/><path class="cls-1" d="M122.64,61A15.32,15.32,0,0,1,125,60.7c0-.06,0-0.11,0-0.17a0.45,0.45,0,0,1,.18-0.3,0.2,0.2,0,0,0,.06-0.27,16.08,16.08,0,0,0-2.75.35c0,0.09,0,.19,0,0.29s0,0.25.15,0.29,0.06,0.07,0,.13h0Zm2.12-.8s0,0,0,0a0.08,0.08,0,0,1-.07.08,0.08,0.08,0,0,1,0,0A0.05,0.05,0,0,1,124.76,60.21Zm-0.54.26a0,0,0,0,1,0,0,0.06,0.06,0,0,1,0,0s-0.06,0-.05,0A0,0,0,0,1,124.22,60.47Zm-0.47-.31s0.06,0,.07,0,0,0.06,0,.06-0.07,0-.08,0A0,0,0,0,1,123.75,60.16Z"/><path class="cls-1" d="M120.23,68.73a0,0,0,0,1,0,.05,0.08,0.08,0,0,1-.07-0.06s0,0,0,0A0.06,0.06,0,0,1,120.23,68.73ZM120,68.5a1.22,1.22,0,0,1,.13-0.13s0,0,.05.06,0,0.12-.09.12S120,68.53,120,68.5Z"/><path class="cls-1" d="M119.4,64a0.14,0.14,0,0,0,.07-0.11l0-.05h0A1.15,1.15,0,0,0,119.4,64Z"/><path class="cls-1" d="M137.23,82.86l-0.41.73,0.63,0.36,0.3-.52s0-.07,0-0.09l0,0,0.42-.74,0-.09a6.56,6.56,0,0,1-.19-1h0l-0.11.2s0.06,0,.06,0a0.07,0.07,0,0,1-.09.07h0l-0.24.42-3-1.68h0L133.83,80l-0.39.69Zm0.8-.57a0,0,0,0,1,.07,0,0.11,0.11,0,0,1,0,0,0,0,0,0,1-.06,0A0,0,0,0,1,138,82.28Zm-0.15.69a0,0,0,0,1,0,0,0,0,0,0,1,0,0h0A0.08,0.08,0,0,1,137.87,83Zm-0.22.16s0,0,0,0a0.09,0.09,0,0,1-.06.09,0.17,0.17,0,0,1,0-.05A0.08,0.08,0,0,1,137.65,83.14Zm-0.31-.62a0.09,0.09,0,0,1,0,0,0,0,0,0,1,0,0s0,0,0,0A0,0,0,0,1,137.34,82.51Zm-2.54-1.46s0,0,.08,0,0.13-.05.2,0,0.08,0,.08,0,0,0.05-.06,0a0.39,0.39,0,0,0-.2.09s-0.06,0-.09,0A0.11,0.11,0,0,1,134.8,81.05Z"/><path class="cls-1" d="M134.37,73.31l1.84-.51,0.1,0.36a1.16,1.16,0,0,0,.55.78,1.33,1.33,0,0,0,1,0l0.64-.18a1.33,1.33,0,0,0,.82-0.53,1.15,1.15,0,0,0,.07-0.95L139,71.18l-4,1.11a0.1,0.1,0,0,0,0,0c0,0.05,0,.13-0.07.14s-0.08-.05-0.08-0.1v0l-0.77.21Zm4.26-1.3a0.08,0.08,0,0,1,0,0,0,0,0,0,1,0,0,0.06,0.06,0,0,1,0,0A0,0,0,0,1,138.63,72Zm0,0.25s0,0,0,0a0,0,0,0,1,0,0s0,0,0,0A0,0,0,0,1,138.64,72.27Zm-0.56-.79a0.11,0.11,0,0,1,0,0s0,0,0,0a0.07,0.07,0,0,1,0,0S138.05,71.46,138.09,71.47Zm0.48,0.68,0.1,0.36a0.38,0.38,0,0,1,0,.31v0a0.11,0.11,0,0,1,0,.15,0.55,0.55,0,0,1,0,.08l0,0s0-.1,0-0.16a0.73,0.73,0,0,1-.29.14l-0.73.2a0.52,0.52,0,0,1-.39,0A0.38,0.38,0,0,1,137,73l-0.1-.36Zm-1.66,1.37h0l-0.05.05s0,0,0,0A0.14,0.14,0,0,1,136.9,73.52Zm-1.71-1.05a0,0,0,0,1,0,0,0.07,0.07,0,0,1-.05.07,0,0,0,0,1,0,0A0.06,0.06,0,0,1,135.19,72.47Z"/><path class="cls-1" d="M135.25,89l0,0a0,0,0,0,1,0,0,0,0,0,0,1,0,0,16.34,16.34,0,0,0,2.45-2.2,0.09,0.09,0,0,1-.1-0.1,0.16,0.16,0,0,1,.15-0.17s0.1,0,.08-0.08-0.07,0-.11,0l-0.11,0s-0.09,0-.06-0.06a0.68,0.68,0,0,0,.08-0.65,15.55,15.55,0,0,1-2.78,2.62h0l0,0a0,0,0,0,1,0,0,0,0,0,0,1,0,0h0a15.26,15.26,0,0,1-9,2.93q-0.6,0-1.19,0c0,0.06,0,.11,0,0.17s0,0.14-.07.16-0.09,0-.1-0.11-0.11-.09-0.18-0.06a0.24,0.24,0,0,1-.22,0c-0.13-.06-0.15,0-0.14.1a0.54,0.54,0,0,0,.14.38h0A16.07,16.07,0,0,0,135.25,89Z"/><path class="cls-1" d="M123.34,85.34a0.12,0.12,0,0,0-.1.08,0,0,0,0,0,0,0,0.12,0.12,0,0,0,.09-0.08A0,0,0,0,0,123.34,85.34Z"/><path class="cls-1" d="M122.58,85.23a0.77,0.77,0,0,1,.12.13s0,0,0-.06a0.07,0.07,0,0,0-.09-0.1A0.07,0.07,0,0,0,122.58,85.23Z"/><path class="cls-1" d="M112.53,74a0.06,0.06,0,0,1,.1,0,0.25,0.25,0,0,1-.14.28s0,0,0-.06A1.87,1.87,0,0,0,112.53,74Z"/><path class="cls-1" d="M122.43,85.08a0.12,0.12,0,0,0-.08-0.07,0.06,0.06,0,0,0-.08.06,0.07,0.07,0,0,0,.08.06A0.07,0.07,0,0,0,122.43,85.08Z"/><path class="cls-1" d="M122.27,85.32a0,0,0,0,0,0,0l0,0s0,0,0,0Z"/><path class="cls-1" d="M122.72,84.33v0a3.1,3.1,0,0,0,0,.47,0.09,0.09,0,0,0,.1.09L123,85l0.18-.4Z"/><path class="cls-1" d="M123.33,85.8a0,0,0,0,0,0,0,0.52,0.52,0,0,0-.16.07s0,0,.07,0S123.32,85.89,123.33,85.8Z"/><path class="cls-1" d="M129.51,89l-0.09.12s0,0,0,0a0.46,0.46,0,0,1,0-.32h0l0.06,0.08-0.87-4.31-0.78.16,0.23,1.15a0.05,0.05,0,0,1,0,0,0.07,0.07,0,0,1,0,0l0.17,0.83-1,.21,0.14,0.71,1-.21,0.3,1.5-1.29.26,0.15,0.71,2.07-.42Z"/><path class="cls-1" d="M128.39,85s0,0,0,0a0.15,0.15,0,0,1,0,0s0,0,0,0A0.06,0.06,0,0,1,128.39,85Z"/><path class="cls-1" d="M141.18,71.09l-0.14,0h0s0,0,0,0l0,0a0.34,0.34,0,0,0,0,0h0c0-.07.05-0.14,0.08-0.21a16,16,0,0,0-2.33-4.47,0,0,0,0,1,0,0,0,0,0,0,1,0,0,0,0,0,0,1,0,0,16,16,0,0,0-12.87-6.45h-0.36a0.37,0.37,0,0,0,0,.22s0,0,0,.05-0.08,0-.06.08,0.06,0,.09,0h0.05a0,0,0,0,1,0,0c-0.08,0-.08.07,0,0.13a0.66,0.66,0,0,1,.05.21h0.28a15.26,15.26,0,0,1,10,3.69,0.05,0.05,0,0,1,.06,0s0.07,0,.08,0a0.06,0.06,0,0,1-.08,0h0A15.31,15.31,0,0,1,138.31,85a5.74,5.74,0,0,1-.16.56,0.52,0.52,0,0,1-.15.31,0,0,0,0,0,0,.05,1.76,1.76,0,0,1,.06.59l0.18-.21,0,0a0.15,0.15,0,0,1-.08-0.12,0.13,0.13,0,0,1,0,0l0.15,0.11A16,16,0,0,0,141.18,71.09ZM126,60.52a0,0,0,0,1,0,0s0-.05,0,0a0.05,0.05,0,0,1,0,0A0.1,0.1,0,0,1,126,60.52Zm1.19,0,0,0a0,0,0,0,1,0,0l0,0A0,0,0,0,1,127.14,60.54Zm0.42-.29a0.08,0.08,0,0,1-.07-0.06s0,0,0,0a0.06,0.06,0,0,1,.07.05S127.61,60.25,127.57,60.24ZM132,61.72h0a0,0,0,0,1,0,0s0,0,0,0h0a0,0,0,0,1,0,0,0,0,0,0,1,0,0s0,0,0,0h0v0h0Zm2,0.85A0.07,0.07,0,0,1,134,62.5a0.06,0.06,0,0,1,.07-0.05,0.07,0.07,0,0,1,.06.07A0.06,0.06,0,0,1,134,62.57Zm2.31,1.7a0.05,0.05,0,0,1,0,0c0-.06.07,0,0.1-0.06s0,0,0,0A0.15,0.15,0,0,1,136.35,64.27Zm0.31,0.24s0,0,0,0h0a0.07,0.07,0,0,1-.08,0s0,0,.05,0l0,0h0Zm0-.23a0.06,0.06,0,0,1-.08,0s0,0,.07,0,0.07,0,.07,0S136.69,64.28,136.66,64.28Zm0.21,0.44s0,0,0,0a0.07,0.07,0,0,1,0,0s0,0,0,.06A0.08,0.08,0,0,1,136.87,64.72Zm0.21,0a0.06,0.06,0,0,1-.07,0,0,0,0,0,1,0,0h0S137.09,64.68,137.08,64.71Zm0.6,1.36a0.06,0.06,0,0,1-.07,0s0,0,0,0a0.05,0.05,0,0,1,0,0A0,0,0,0,1,137.68,66.08Zm0.11,0.2a0.06,0.06,0,0,1-.06-0.07,0,0,0,0,1,.05,0,0.06,0.06,0,0,1,.05.06A0,0,0,0,1,137.79,66.27Zm2.81,3.78a0.19,0.19,0,0,1-.15-0.06,0,0,0,0,1,0,0h0.05s0.06,0.09.1,0a0,0,0,0,1,0,0h0l0,0,0,0v0S140.65,70.05,140.6,70.06Zm0.19,1.76s0,0,0-.07,0-.07,0-0.07,0,0,0,.05S140.83,71.81,140.79,71.82Zm0.15-.31a0.08,0.08,0,0,1-.08,0c-0.05,0,0-.06,0-0.1a2,2,0,0,1,.16-0.25h0a0.09,0.09,0,0,1,0,.05A0.39,0.39,0,0,0,140.94,71.5Zm-0.31,8.95a0,0,0,0,1,0,0,0,0,0,0,1,0,0A0,0,0,1,1,140.62,80.45Zm-2.23,5.35-0.07,0,0.06,0,0,0S138.41,85.8,138.39,85.8Zm0.12-.45s-0.06.08,0,.12h0c-0.11,0-.13-0.09-0.07-0.15l0.05,0S138.52,85.32,138.51,85.35Zm1.18-2.27s0,0,0,0a0.23,0.23,0,0,1,.1-0.19s0,0,0,.07A0.16,0.16,0,0,1,139.7,83.08Zm0.93-2.36a0.06,0.06,0,0,1-.07,0,0,0,0,0,1,0-.06,0.07,0.07,0,0,1,.08.06S140.65,80.72,140.62,80.73Zm1.23-3.48a0.08,0.08,0,0,1-.06-0.07,0,0,0,0,1,.05,0,0.07,0.07,0,0,1,.06.07A0,0,0,0,1,141.85,77.25Z"/><path class="cls-1" d="M121.37,91.25a0.19,0.19,0,0,1,.15,0c0.29,0.07.44,0,.38-0.31v-0.1a15.38,15.38,0,0,1-11.1-12.12l0,0a0.12,0.12,0,0,1,0-.05,15.51,15.51,0,0,1-.23-2.61,14.84,14.84,0,0,1,.08-1.59,0,0,0,0,1,0,0h0A15.36,15.36,0,0,1,122.54,61a0.47,0.47,0,0,0-.11-0.22,0.34,0.34,0,0,1-.06-0.23,1,1,0,0,1,0-.27l-0.2,0h0a16.13,16.13,0,0,0-11.57,10.75,0,0,0,0,1,0,0h0a16.07,16.07,0,0,0,10.7,20.22A0.41,0.41,0,0,1,121.37,91.25Z"/><path class="cls-1" d="M122.34,61s0,0,0,0l0,0s0,0,0,0A0,0,0,0,1,122.34,61Z"/><path class="cls-1" d="M121.64,60.61s0.05,0,.05,0a0.06,0.06,0,0,1,0,0s-0.08,0-.08,0A0,0,0,0,1,121.64,60.61Z"/><path class="cls-1" d="M121.35,60.83s0.11,0,.11,0a0.09,0.09,0,0,1-.11.08,0.14,0.14,0,0,1-.13-0.09Z"/><path class="cls-1" d="M119.34,61.46s0-.09.06-0.07a0.06,0.06,0,0,1,.05.09,0.77,0.77,0,0,0,0,.34,0.05,0.05,0,0,1,0,0s0,0,0-.05,0-.13,0-0.19h0C119.34,61.57,119.34,61.51,119.34,61.46Z"/><path class="cls-1" d="M119.11,62.05a0.11,0.11,0,0,1,0,0l0,0a0.11,0.11,0,0,1,0,0A0,0,0,0,1,119.11,62.05Z"/><path class="cls-1" d="M117.27,62.74s0.06,0,.08.06a0.38,0.38,0,0,1,.1.25s0,0.09,0,.1,0-.05,0-0.08-0.07-.15-0.1-0.23S117.23,62.76,117.27,62.74Z"/><path class="cls-1" d="M116.53,63.49a0.09,0.09,0,0,1,0,0,0.15,0.15,0,0,1,0,0s0,0,0,0S116.49,63.49,116.53,63.49Z"/><path class="cls-1" d="M114.75,65.05a0.06,0.06,0,0,1,0-.1c0.06,0,.07,0,0.08.1a0.57,0.57,0,0,1-.07.16,0.28,0.28,0,0,1-.09.12,0.28,0.28,0,0,1,0-.13C114.81,65.13,114.77,65.1,114.75,65.05Z"/><path class="cls-1" d="M110.64,71.54s0,0,0,.06,0,0-.05,0l0,0A0.06,0.06,0,0,1,110.64,71.54Z"/><path class="cls-1" d="M110.42,76c-0.05,0-.12,0-0.12-0.08s0,0,.08,0,0.12,0,.12.09S110.45,76,110.42,76Z"/><path class="cls-1" d="M110.81,79.7a0.07,0.07,0,0,1-.09.07c-0.06,0,0-.06,0-0.09a0.58,0.58,0,0,0,0-.21s0-.06,0-0.06,0,0,0,.07,0,0.08,0,.12h0S110.81,79.66,110.81,79.7Z"/><path class="cls-1" d="M110.89,80.32s-0.07,0-.06,0a0.08,0.08,0,0,1,.08-0.07,0.07,0.07,0,0,1,.07.07C111,80.33,110.93,80.32,110.89,80.32Z"/><path class="cls-1" d="M112.4,79.29a1,1,0,0,1-.15-0.22s0,0,0,0a0.16,0.16,0,0,1,.13.18S112.41,79.3,112.4,79.29Z"/><path class="cls-1" d="M116.56,84.2A0.68,0.68,0,0,0,117,84a0.85,0.85,0,0,1-.22-0.18,0.09,0.09,0,0,1,0-.12s0.07,0,.09,0a0.24,0.24,0,1,0,.37-0.25,0.69,0.69,0,0,0-.48-0.66,2.09,2.09,0,0,1,0,.3c0,0.15,0,.3,0,0.45s0,0.08,0,.08-0.05,0-.05-0.08c0-.19,0-0.39,0-0.58a0.77,0.77,0,0,0,0-.18h-0.13A0.69,0.69,0,0,0,116.56,84.2Zm-0.43-.67h0s0,0,0,0,0.09,0,.11,0,0,0,0,0a0.54,0.54,0,0,1-.1-0.08h0Z"/><path class="cls-1" d="M122,87.26h0a0.29,0.29,0,0,1,.14-0.3l0.08-.18v0c0-.19-0.18-0.33-0.25-0.51a1.46,1.46,0,0,1,0-.34,0.3,0.3,0,0,0-.1-0.21l-0.25.55-1-.45-0.3.66,1,0.45-0.58,1.29-1.26-.57-0.3.66,2,0.89Z"/><path class="cls-1" d="M126.16,68.46l0,0s0,0-.05,0-0.06,0-.05,0A0,0,0,0,0,126.16,68.46Z"/><path class="cls-1" d="M126.37,68.81h0c-0.1-.1-0.16-0.07-0.24.1a0.09,0.09,0,0,1-.1.08s0-.07,0-0.1a0.18,0.18,0,0,0-.09-0.21s0-.05,0-0.08,0,0,0-.05a0.5,0.5,0,0,1-.29-0.12,0.13,0.13,0,0,0-.12.06c0,0.06,0,.08,0,0.11a0.13,0.13,0,0,1,0,.12c0,0.07-.12,0-0.14.09a0.92,0.92,0,0,1,.16,0s0,0,0,0h-0.12c-0.07,0-.11,0-0.06.12l0.07,0.13H126s0.09-.08.14,0l0,0h0.25a0.15,0.15,0,0,0,0-.06c0-.06,0-0.1,0-0.13S126.49,68.84,126.37,68.81Z"/><path class="cls-1" d="M125.5,67.06h0l0.34-.05-0.06-.12A0.76,0.76,0,0,1,125.5,67.06Z"/><path class="cls-1" d="M122.27,84.46a0.07,0.07,0,0,0,.06,0,0.93,0.93,0,0,0,.27-0.23l-1.37-.62-0.3.66,0.94,0.43a1.05,1.05,0,0,0,0-.42c0-.09,0-0.09.08-0.06A0.57,0.57,0,0,1,122.27,84.46ZM121.46,84h0c0-.05-0.14,0-0.13-0.11s0,0,0,0a0.13,0.13,0,0,1,.1.16h0Zm0.28,0.2-0.06,0a0.05,0.05,0,0,1,0,0l0.06,0.06S121.75,84.22,121.74,84.21Z"/><path class="cls-1" d="M125,69s0.08,0,.12,0,0,0.1.1,0,0-.06,0-0.1a0.37,0.37,0,0,1,.06-0.31c0-.07,0-0.14.06-0.21l-0.51.05,0.06,0.07a0.13,0.13,0,0,1,0,.21s-0.11,0-.06.11A0.17,0.17,0,0,0,125,69Z"/><path class="cls-1" d="M117.67,71.24a0.05,0.05,0,0,0,.06,0,0,0,0,0,0,0,0s-0.06,0-.06,0A0,0,0,0,0,117.67,71.24Z"/><path class="cls-1" d="M163.87,65.46a0.21,0.21,0,0,0,0,.16l0.16-.15A0.16,0.16,0,0,0,163.87,65.46Z"/><path class="cls-1" d="M167.91,68.49a0.15,0.15,0,0,0,.07-0.2,0.1,0.1,0,0,0-.05-0.06l-0.14.16C167.82,68.45,167.83,68.51,167.91,68.49Z"/><path class="cls-1" d="M167.24,69.07a0.2,0.2,0,0,0,.15-0.15,0.1,0.1,0,0,0,0-.1l-0.21.23S167.2,69.09,167.24,69.07Z"/><path class="cls-1" d="M168.09,69.1c-0.09,0-.06-0.19-0.18-0.12a0.49,0.49,0,0,0-.07.29,0.09,0.09,0,0,0,0,.1l0.09-.1C167.82,69.16,168,69.14,168.09,69.1Z"/><path class="cls-1" d="M164.59,64.82a0.14,0.14,0,0,0-.06.16l0.14-.14S164.66,64.77,164.59,64.82Z"/><path class="cls-1" d="M167,70.18c-0.06,0,0,.08,0,0.12l0.08-.08A0.07,0.07,0,0,0,167,70.18Z"/><path class="cls-1" d="M162.18,66.84a0.23,0.23,0,0,0-.09.23l0.23-.17A1.94,1.94,0,0,0,162,66.4a0.08,0.08,0,0,0-.1,0c-0.06,0,0,.07,0,0.1s0,0.13,0,.19,0,0.29.23,0.14a0.06,0.06,0,0,1,.09,0C162.27,66.85,162.2,66.82,162.18,66.84Z"/><path class="cls-1" d="M168.62,67.48s0,0.14-.12.09h0L168,68.1a0.43,0.43,0,0,0,.34.28c0.08,0,.05.06,0,0.1s-0.05.08-.07,0.12a0.27,0.27,0,0,0,0,.27l0.36-.41c0-.13,0-0.31-0.26-0.27a0.17,0.17,0,0,1-.06-0.09,0,0,0,0,1,0-.05c0.21,0,.11-0.08.09-0.16s-0.12-.09,0-0.14a0.39,0.39,0,0,1,.39-0.08c0.07,0,.05.11,0,0.2a0.37,0.37,0,0,0,0,.32,0,0,0,0,0,.08,0c0.63-.75,1.17-1.5,1.64-2.19h0c-0.05,0,0-.07,0-0.09h0.06c0.2-.3.39-0.59,0.56-0.87l0,0c0-.08,0-0.12.08-0.17a0,0,0,0,1,.07,0c0.4-.65.71-1.22,0.94-1.66h0s0-.07,0-0.08l0,0c0.25-.49.39-0.8,0.4-0.84L172,61.93a26.11,26.11,0,0,1-1.8,3.21,0.1,0.1,0,0,1,.08,0,0.21,0.21,0,0,1-.08.15,0.06,0.06,0,0,1-.09,0l-0.16.25a0.56,0.56,0,0,0,.22,0,0.12,0.12,0,0,1,0,.05,0.2,0.2,0,0,1-.11,0l-0.14,0c-0.38.56-.81,1.15-1.29,1.76A0.16,0.16,0,0,1,168.62,67.48Z"/><path class="cls-1" d="M164.27,64.89s0-.06-0.07,0a0.07,0.07,0,0,0,0,.05,0.46,0.46,0,0,1,0,.24,0.15,0.15,0,0,0,.08.12l0.16-.15,0,0A0.2,0.2,0,0,1,164.27,64.89Z"/><path class="cls-1" d="M162.29,66.18c0.09,0,0,.06,0,0.09a0.26,0.26,0,0,0,0,.12c0.06,0,.07,0,0.09-0.07s0.06,0,.08,0,0.08,0.23.12,0.33c0.3-.23.59-0.48,0.89-0.74l0-.08h0a0.2,0.2,0,0,1,.1,0l0.15-.14a0.54,0.54,0,0,0-.08-0.25,0.3,0.3,0,0,1-.06-0.26,0.26,0.26,0,0,0-.11-0.25l-0.14.13a0.19,0.19,0,0,0,.06.13,0.22,0.22,0,0,1,0,.15s0,0.14,0,.13a0.11,0.11,0,0,1-.07-0.16,0.15,0.15,0,0,0,0-.2l-0.18.16c0,0.06,0,.12,0,0.18a0.08,0.08,0,0,1-.05.1,0.07,0.07,0,0,1-.09,0,0.11,0.11,0,0,1,0-.11v0q-0.39.34-.78,0.65C162.18,66.15,162.17,66.2,162.29,66.18Z"/><path class="cls-1" d="M165.49,71.06c-0.1,0-.06.09-0.05,0.14a0.69,0.69,0,0,0,.12.34l0.14-.12a0.05,0.05,0,0,1,0,0,1.91,1.91,0,0,1-.05-0.2A0.1,0.1,0,0,0,165.49,71.06Z"/><path class="cls-1" d="M147.25,69.12a0.12,0.12,0,0,1,0,0l-0.05,0h0c-0.32,0-.63.11-0.94,0.18h0a0.09,0.09,0,0,1-.12,0l-0.16,0v0s0.07,0.12,0,.12a0.11,0.11,0,0,1-.12-0.12c-0.43.11-.85,0.25-1.28,0.4h0a0.06,0.06,0,0,1,0,0c0,0.07.15,0.14,0,.18a0.2,0.2,0,0,1-.21-0.16c-0.34.13-.68,0.28-1,0.44a19,19,0,0,0-5.82,4.43l-0.12.14h0a0.25,0.25,0,0,1,0,.09s0,0-.07,0c-0.32.36-.62,0.71-0.9,1.06a0.94,0.94,0,0,1,0,.21c0,0.06-.13.11,0,0.18s0.12,0,.18-0.07,0.25,0,.36.1L137,76.5q0.51-.64,1.09-1.27a19,19,0,0,1,4.79-3.87l0.07-.05a0.3,0.3,0,0,1,.22-0.1l0.41-.21a0.38,0.38,0,0,1,.18-0.34,1,1,0,0,0,.29-0.42c0-.13.12-0.14,0.21-0.06a0.57,0.57,0,0,0,.29.16c0.1,0,0,.11,0,0.18a0.05,0.05,0,0,1,0,.05,12.81,12.81,0,0,1,3.64-.85,1.19,1.19,0,0,0-.4-0.47,1.27,1.27,0,0,1-.24-0.2l-0.26,0v0Zm-10,6.79a0.34,0.34,0,0,1-.35,0s0.06-.06.1-0.1a0.28,0.28,0,0,1,.32,0S137.31,75.89,137.26,75.9Zm0.31-.82a0.16,0.16,0,0,1-.06.19s-0.11,0-.13-0.07a0.14,0.14,0,0,1,0-.17A0.12,0.12,0,0,1,137.57,75.09Zm4.13-3.43c-0.17.09-.22-0.07-0.31-0.14s0-.07,0-0.09a0.29,0.29,0,0,1,.34.09C141.8,71.58,141.76,71.63,141.7,71.66Zm1.46-.91a0.16,0.16,0,0,1-.19-0.09,0.15,0.15,0,0,1,.06-0.19c0.08,0,.1,0,0.13.08S143.25,70.7,143.16,70.75Zm1.63-.38c-0.06,0-.07,0-0.09-0.05s0-.08,0-0.1,0.07,0,.09.06A0.05,0.05,0,0,1,144.8,70.37Z"/><path class="cls-1" d="M148.56,69.43a0.16,0.16,0,0,0-.06.18,0.18,0.18,0,0,0,.22,0,0.07,0.07,0,0,0,0-.11C148.7,69.42,148.64,69.38,148.56,69.43Z"/><path class="cls-1" d="M151.28,69.84h0l0.23,0A1,1,0,0,0,151.28,69.84Z"/><path class="cls-1" d="M146.09,75.29l-0.08,0h0.34a0.16,0.16,0,0,1,.15.1,0.17,0.17,0,0,0,.15.12c0.08,0,.13.08,0,0.16a0.12,0.12,0,0,0-.06.13l0.57-.24a0.09,0.09,0,0,1,0-.08,0.07,0.07,0,0,1,.1,0h0L148,75.3l0,0a0.55,0.55,0,0,1,0-.26,0.43,0.43,0,0,1,.2.1,1,1,0,0,1,0,.13L148.9,75h0a0.47,0.47,0,0,0-.12-0.18c-0.26,0-.13-0.28-0.2-0.41a0.06,0.06,0,0,1,0-.06A14.31,14.31,0,0,0,146.09,75.29Z"/><path class="cls-1" d="M144.48,70.58h0a0.08,0.08,0,0,1,0-.12s0.06-.07,0-0.05a1.39,1.39,0,0,0-.23-0.08c-0.06.05,0.05,0.08,0.09,0.12a0.42,0.42,0,0,1,.11.18Z"/><path class="cls-1" d="M154,64.63h0l0.12,0L154,64.47C153.91,64.52,153.88,64.58,154,64.63Z"/><path class="cls-1" d="M152.8,69.3a0.21,0.21,0,0,0,0,.11s0,0.06.06,0a0.09,0.09,0,0,0,0-.11S152.82,69.27,152.8,69.3Z"/><path class="cls-1" d="M158.45,68.92l0.09,0.14c0.3-.12.6-0.25,0.9-0.39l0.09,0a0.16,0.16,0,0,1,.09-0.07h0l0.56-.29a0.66,0.66,0,0,1,.1-0.14c0.06-.05.08,0,0.11,0L160.7,68h0s0-.1,0-0.14a0.29,0.29,0,0,1,.15,0c0.36-.22.71-0.45,1.07-0.7a0.65,0.65,0,0,1,0-.1,0.54,0.54,0,0,0-.44-0.41,0.08,0.08,0,0,1-.08,0L161,67a0.09,0.09,0,0,1,.08,0s0,0.07,0,.1-0.06,0-.08,0a0.06,0.06,0,0,1,0-.08,15,15,0,0,1-2.81,1.45ZM161.36,67c0.13,0,.16.06,0.21,0.14a0.37,0.37,0,0,1,0,.11,1.55,1.55,0,0,1-.26-0.18S161.33,67,161.36,67Zm-0.56.55a0.13,0.13,0,0,1,.13.05s0,0.06,0,.08a0.08,0.08,0,0,1-.12,0A0.07,0.07,0,0,1,160.8,67.53Z"/><path class="cls-1" d="M154,64.38a0.05,0.05,0,0,0-.06,0c-0.06,0,0,.07,0,0.11S154,64.43,154,64.38Z"/><path class="cls-1" d="M169.21,57.06a0.34,0.34,0,0,1,.2.1l0.37,0.4,0.11-.24,0,0a0.19,0.19,0,0,0,0-.11l-0.59-.26Z"/><path class="cls-1" d="M156.87,69.34c0-.06,0-0.09.06-0.1,0.21,0,.09-0.11,0-0.18a1.08,1.08,0,0,0-.13-0.12,0.31,0.31,0,0,1,0-.08l-0.11,0a0.1,0.1,0,0,1,0,.07,0.14,0.14,0,0,1,0,.07,0.34,0.34,0,0,1-.1-0.11,12.79,12.79,0,0,1-3.12.35,0.28,0.28,0,0,0,.15,0s0,0.09-.07.09a1.79,1.79,0,0,1-.29,0c-0.07,0-.09-0.15-0.17-0.08a0.3,0.3,0,0,0-.07.28,0.16,0.16,0,0,1,0,.19,0.07,0.07,0,0,1-.06,0,0.16,0.16,0,0,1-.05-0.19c0.05-.25-0.18-0.17-0.28-0.22a0.17,0.17,0,0,1-.15-0.14h0q-0.48,0-1-.12C151,69.06,150.65,69,150.26,69a2.09,2.09,0,0,0,.38.53s0.07,0.06.1,0a0.38,0.38,0,0,1,.46,0c0.08,0,.21.11,0.29,0a0.06,0.06,0,0,1,0,0,0.83,0.83,0,0,0,.56-0.08s0.07,0,.09,0a0.06,0.06,0,0,1,0,.08c-0.34.12-.33,0.24,0,0.38l0,0A13.3,13.3,0,0,0,154,70a0.1,0.1,0,0,1,0-.13c0-.14-0.09-0.23-0.06-0.36s0-.11-0.1,0h0s0,0,0,0h0s-0.12-.07,0-0.13a0.1,0.1,0,0,1,.17,0,0.84,0.84,0,0,0,.45.39,0.65,0.65,0,0,0,.37,0c0.08,0,.14,0,0.16.09a0.1,0.1,0,0,1,0,.07,13.34,13.34,0,0,0,2.12-.39C157,69.49,156.93,69.41,156.87,69.34Z"/><path class="cls-1" d="M160.63,74.3h0a0.32,0.32,0,0,0-.17-0.08l-0.06,0a0.15,0.15,0,0,0,0,0,0.11,0.11,0,0,1,.08.05Z"/><path class="cls-1" d="M161.71,59.17a0.37,0.37,0,0,0,.22.34,0.15,0.15,0,0,1,.09.15s0,0,0,.06l0.46-.48c0.33-.36.64-0.72,0.94-1.08-0.07,0-.13,0-0.11-0.07a1.25,1.25,0,0,1,.24-0.36h0a0.67,0.67,0,0,1,0,.08,0.44,0.44,0,0,0-.1.28,28.28,28.28,0,0,0,3.71-5.87l-0.67-.29A26.94,26.94,0,0,1,164,56.23c0.05,0.07.11,0.13,0,.23h0a1.42,1.42,0,0,0,.2.22c0.15,0.08,0,.19.05,0.28s0,0-.06,0,0-.36-0.29-0.15c0,0,0,0,0-.07s-0.06-.11-0.13,0a0.05,0.05,0,0,1-.08,0l-0.14.19a0.07,0.07,0,0,1,.07.08,1.21,1.21,0,0,1-.09.29s-0.11,0-.1,0a0.17,0.17,0,0,0,0-.22l-0.24.31c0,0.06.15,0.09,0.08,0.17s-0.09,0-.14-0.08c-0.31.39-.64,0.78-1,1.17v0s0,0.08,0,.1,0,0-.06-0.06l-0.09.1-0.27.29A0.47,0.47,0,0,1,161.71,59.17Zm1.85-1.7a0.14,0.14,0,0,0,.08-0.17,0.12,0.12,0,0,1,0-.17,0.05,0.05,0,0,1,.08,0c0,0.09.2,0.09,0.12,0.21a0.28,0.28,0,0,1-.26.19l-0.08,0c-0.05,0-.06.16-0.12,0.09A0.16,0.16,0,0,1,163.56,57.47Z"/><path class="cls-1" d="M134.81,79.39a0,0,0,0,1,0,0,1.5,1.5,0,0,0,.3-0.25l0.05-.09H135a0.22,0.22,0,0,0-.07.08,0.14,0.14,0,0,1-.17,0c0-.07,0-0.08.08-0.09s0.16-.17,0-0.24a0.18,0.18,0,0,1-.1-0.1,0.47,0.47,0,0,0,0-.38q-0.3.46-.56,0.89s0.1-.05.07,0a0.18,0.18,0,0,1-.19.17h0l-0.14.24a0.44,0.44,0,0,1,.41,0s0.11,0,.12,0a0.27,0.27,0,0,0,0-.18s-0.06,0-.08,0a0.08,0.08,0,0,1-.1,0,0.14,0.14,0,0,1,0-.1s0-.08.06-0.13a0.19,0.19,0,0,1,.06-0.17c0.06,0,.08,0,0.09.08s0.13,0.13,0,.16a0.07,0.07,0,0,0,0,0,0.29,0.29,0,0,0,.1,0c0.05,0,.1,0,0.14,0a0.13,0.13,0,0,1,0,.16,0.2,0.2,0,0,0,0,.27v0l0.22-.36Z"/><path class="cls-1" d="M138.59,83c-0.08,0-.2,0-0.25.09s0,0-.06,0,0-.11-0.1-0.06a0.12,0.12,0,0,0-.07.15,0.34,0.34,0,0,1,0,.29s-0.12.06,0,.13a0.12,0.12,0,0,0,.13,0l0.41-.6A0.07,0.07,0,0,1,138.59,83Z"/><path class="cls-1" d="M164,56.46h0a0.49,0.49,0,0,0-.16,0l-0.07.09a0.45,0.45,0,0,0,.23-0.06h0Z"/><path class="cls-1" d="M130.74,67.39a0.57,0.57,0,0,1,0-.12,0.19,0.19,0,0,1,0-.07c0.05,0,.08,0,0.09,0,0.49-.65,1-1.32,1.64-2a21.7,21.7,0,0,1,2.22-2.12c0-.07,0-0.14,0-0.21,0-.27.08-0.54,0.1-0.82a19.73,19.73,0,0,0-1.79,1.53,0.71,0.71,0,0,1,.14.18c0.06,0.1.14,0.19,0,.28a0.44,0.44,0,0,1-.45-0.14h0q-0.39.38-.76,0.79l-0.37.42a0.23,0.23,0,0,1,.13.1c0.05,0.07,0,.14-0.07.18s-0.14.06-.17,0a0.54,0.54,0,0,1,.11-0.26,26.93,26.93,0,0,0-1.72,2.17,1.82,1.82,0,0,0,.36.54,0.24,0.24,0,0,1,.08.12Zm2.76-4.06a0.11,0.11,0,0,1,.16,0,0.11,0.11,0,0,1-.06.13c-0.06,0-.13,0-0.16,0A0.11,0.11,0,0,1,133.5,63.33Zm-1.21,1.79a0.06,0.06,0,0,1,.09,0s0,0.07,0,.1a0.07,0.07,0,0,1-.09,0S132.25,65.14,132.29,65.12Zm-0.23,0c0.06,0,.07,0,0.09.08s0.07,0.09,0,.13-0.09,0-.12-0.06S132,65.13,132.06,65.09Zm-1.41,1.26a0.06,0.06,0,0,1,.09,0,0.08,0.08,0,0,1-.06.09,0.06,0.06,0,0,1-.09,0S130.61,66.38,130.65,66.36Z"/><path class="cls-1" d="M143.09,59.32a4.34,4.34,0,0,0,.27.37,13.39,13.39,0,0,1,2.42.16l0.18,0a0.6,0.6,0,0,1,.18-0.26,0.25,0.25,0,0,1,.27.11,0.46,0.46,0,0,1,.06.08,0.24,0.24,0,0,0,0,.12l0.29,0a0.08,0.08,0,0,1,0-.06s0.06,0,.09.06H147a0.16,0.16,0,0,0,0-.05,0.19,0.19,0,0,1-.07-0.14l0,0,0,0c-0.05,0-.11.13-0.17,0.06a0.27,0.27,0,0,1-.12-0.24s0-.06.05,0c0.07,0.28.29,0.08,0.43,0.11a0.18,0.18,0,0,1,.18.16,0.44,0.44,0,0,0,.05.18h0.11l0.08,0a0.13,0.13,0,0,1,.16,0,13.35,13.35,0,0,0,2.86-.22,0.25,0.25,0,0,1-.07-0.06s-0.08-.09,0-0.13,0.08,0,.12,0a0.12,0.12,0,0,0,.16,0,0.14,0.14,0,0,1,.2,0s0.07,0,0,.07-0.06,0-.09,0-0.07-.06-0.11,0a0.06,0.06,0,0,0,0,.09l0.44-.1a0.2,0.2,0,0,1,0-.13c0-.11.06-0.19-0.1-0.22s-0.15.07-.16,0a0.44,0.44,0,0,1,.09-0.21s0.08,0,.07,0a0.07,0.07,0,0,0-.08-0.05h-0.24l-0.26.05c0,0.05.07,0.14,0,.13a0.17,0.17,0,0,1-.11-0.09,12.79,12.79,0,0,1-2.85.18h0c0,0.06.08,0.12,0,.19a0.14,0.14,0,0,1-.15-0.07,0.14,0.14,0,0,1,0-.13,13,13,0,0,1-1.37-.15,14.15,14.15,0,0,0-3.12-.15A1.65,1.65,0,0,1,143.09,59.32Zm4.36,0.27s0.12,0,.13,0a0.28,0.28,0,0,1-.09.27c-0.07,0-.09,0-0.14-0.11S147.41,59.64,147.45,59.59Zm-1-.31s0.07,0,.07,0a0.5,0.5,0,0,1,0,.14,0.05,0.05,0,0,1-.08,0A0.09,0.09,0,0,1,146.47,59.28Zm-0.52.23a0.12,0.12,0,0,1-.09.14s-0.1.06-.12,0,0-.11.08-0.15S145.92,59.45,145.94,59.51Zm-0.45-.16a0.6,0.6,0,0,1,.16.08,0.08,0.08,0,0,1,0,.06c-0.07,0-.11,0-0.14-0.06S145.46,59.35,145.49,59.36Z"/><path class="cls-1" d="M133.67,81.65l0.11-.23h0a0.26,0.26,0,0,0-.19,0c-0.05,0,0,.11,0,0.16Z"/><path class="cls-1" d="M165.48,63.24c-0.09.08-.15,0.17-0.21,0a0.13,0.13,0,0,0,0-.06l-0.3.34,0.09,0a0.14,0.14,0,0,1,.13.2c-0.05.17,0,.2,0.17,0.2s0.14,0,.13.1l0.27-.31c0-.07,0-0.15,0-0.22s0.06,0,.06,0a0.45,0.45,0,0,0,0,.12l0.34-.4v0l0.34-.43-0.11-.07s0-.07,0-0.12l0.14,0.1,0.09-.11h0a0.34,0.34,0,0,1,0-.16,0.13,0.13,0,0,1,.1,0,29.23,29.23,0,0,0,2.92-4.67,1.33,1.33,0,0,1-.44-0.44l0,0s-0.05-.08-0.07-0.13a28.56,28.56,0,0,1-3.73,5.77C165.47,63,165.64,63.1,165.48,63.24Zm0.15,0.29c0,0.09-.09.09-0.09,0.15s-0.06,0-.06,0a0.24,0.24,0,0,1,.09-0.22S165.61,63.5,165.63,63.53Z"/><path class="cls-1" d="M155.59,64.13q0.54-.21,1.07-0.45c0.3-.14.59-0.29,0.89-0.46,0.45-.25.89-0.52,1.33-0.82l0,0s-0.15-.06-0.1-0.14a0.16,0.16,0,0,0-.08-0.27s-0.12-.09,0-0.13h0s0,0,0-.07h0s0,0,0,.07a1.35,1.35,0,0,1,.28.39,0.6,0.6,0,0,1,0,.1l0.28-.2a2.15,2.15,0,0,0-.36-0.48,0.18,0.18,0,0,1,0-.13,15.1,15.1,0,0,1-3.64,2C155.36,63.7,155.48,63.91,155.59,64.13Zm3.07-2.41a0.07,0.07,0,0,1,.07,0s0,0,0,0h0S158.63,61.73,158.66,61.72Zm-0.68.42a0.09,0.09,0,0,1,.12.07,0.3,0.3,0,0,1,0,.21s-0.09,0-.12-0.08A0.14,0.14,0,0,1,158,62.14Zm-2.07,1.33c0-.06.05-0.08,0.09-0.11l0.08,0,0.1-.05a0.19,0.19,0,0,1,.22,0c0,0.07-.06.11-0.15,0.12a0.63,0.63,0,0,1-.19.11C156,63.48,155.94,63.56,155.91,63.47Z"/><path class="cls-1" d="M146.31,59.8a0.07,0.07,0,0,0-.09.08v0l0.19,0v0A0.08,0.08,0,0,0,146.31,59.8Z"/><path class="cls-1" d="M133.9,79.94a0.45,0.45,0,0,0-.08.19s0.06,0,.1,0,0-.11.05-0.17A0,0,0,0,0,133.9,79.94Z"/><path class="cls-1" d="M151.31,59.14l0,0-0.18,0a0,0,0,0,0,0,.07A0.19,0.19,0,0,0,151.31,59.14Z"/><path class="cls-1" d="M161.46,59.38a0.33,0.33,0,0,0,.08-0.07,0.16,0.16,0,0,0-.06-0.06h0l-0.11.11A0.12,0.12,0,0,0,161.46,59.38Z"/><path class="cls-1" d="M152,58.75a0.5,0.5,0,0,1-.2.22s-0.07,0,0,.08a0.15,0.15,0,0,0,.08,0c0.11,0,.23-0.18.34,0s0.09,0,.12,0,0-.07,0-0.08-0.06,0-.06-0.06S152.12,58.77,152,58.75Z"/><path class="cls-1" d="M132.59,73.71a0.43,0.43,0,0,1-.08-0.1c0-.14.14-0.14,0.24-0.15a27.08,27.08,0,0,1,2.54-3.24,16.76,16.76,0,0,1,7.63-5h0a0.07,0.07,0,0,1,.1,0l0.71-.18,0,0a0.12,0.12,0,0,0,.07-0.12c0-.06-0.08,0-0.12,0l-0.1,0s-0.09-.05-0.13,0a0.31,0.31,0,0,0,0,.11,0.31,0.31,0,0,1,0,.1c-0.05,0,0,0-.08-0.05-0.26-.1-0.27-0.23,0-0.4a0.2,0.2,0,0,0,0-.09l-0.05,0c-0.1.09-.12,0-0.16-0.06l0,0a14.32,14.32,0,0,0-2.66,1,17.6,17.6,0,0,0-3.93,2.61h0s0,0.06,0,.08h0l0,0s0.08,0.07,0,.13-0.07,0-.11,0-0.19,0-.13.15a0.06,0.06,0,0,1,0,0,0.22,0.22,0,0,1-.09.05,0.44,0.44,0,0,0-.16-0.08c-0.48.44-.94,0.91-1.4,1.41-0.23.25-.45,0.49-0.66,0.74a1.14,1.14,0,0,0,0,.26,0.66,0.66,0,0,0,.06.29s0.06,0.06,0,.1-0.15.09-.18,0.2a0.13,0.13,0,0,1-.16.1c-0.09,0-.1-0.08-0.08-0.16a4.85,4.85,0,0,0,.14-0.49,28.85,28.85,0,0,0-2.11,2.92h0a0.57,0.57,0,0,1,.45-0.05,0.54,0.54,0,0,1,.23.34ZM142,65a0.05,0.05,0,0,1,.08,0,0.16,0.16,0,0,1-.07.13h0A0.12,0.12,0,0,1,142,65Zm-1,.4a0.13,0.13,0,0,1,.15,0,0.17,0.17,0,0,1,0,.05H141A0.18,0.18,0,0,1,141,65.39Zm-1.14.62a0.32,0.32,0,0,1,.28,0,0.05,0.05,0,0,1,0,.09,0.76,0.76,0,0,1-.3-0.05S139.82,66,139.87,66Zm-4.55,3.55h0.1a0.53,0.53,0,0,1-.08.12,0,0,0,0,1-.07,0A0.07,0.07,0,0,1,135.32,69.56Z"/><path class="cls-1" d="M133.73,80.3s0-.06,0-0.06,0,0,0,.06,0,0.1,0,.15l0.09,0.08c0-.1.15-0.14,0.14-0.2s-0.09,0-.15,0S133.73,80.33,133.73,80.3Z"/><path class="cls-1" d="M146.29,64.24a0.22,0.22,0,0,0,0,.07h0c0.25-.2.2,0.1,0.28,0.17a0.32,0.32,0,0,1,.13.2,13.47,13.47,0,0,1,1.86.17,13.7,13.7,0,0,0,5.23-.17,1.21,1.21,0,0,1-.06-0.4c0-.07-0.1-0.22.08-0.29a0.05,0.05,0,0,0,0,0h0a13,13,0,0,1-5.09.18,14.45,14.45,0,0,0-2.55-.17,0.46,0.46,0,0,0,.2.12C146.43,64.11,146.34,64.19,146.29,64.24Zm2.42-.06a0.1,0.1,0,0,1,.12,0,0.1,0.1,0,0,1-.05.12,0.08,0.08,0,0,1-.12,0A0.13,0.13,0,0,1,148.71,64.18Zm-0.79.44a1,1,0,0,1,.16-0.36c0.05,0,.12,0,0.12,0a0.63,0.63,0,0,1-.22.36S147.91,64.66,147.92,64.62Z"/><path class="cls-1" d="M135.37,62a0.29,0.29,0,0,1,.24.25l0.05,0.13c0.44-.32.89-0.6,1.33-0.86a0.34,0.34,0,0,1,0-.13s0.19-.2.29-0.07h0A13.46,13.46,0,0,1,140.76,60l0,0a0.06,0.06,0,0,1,0-.11,1.41,1.41,0,0,1,.26,0s0,0.06,0,.09l0.19,0a3.14,3.14,0,0,0-.38-0.39l-0.08,0c-0.05,0,0,.12-0.07.06s0-.1,0-0.14,0-.1,0-0.13l-0.71.18,0.06,0.11s0.07,0.07,0,.1a0.08,0.08,0,0,1-.11,0,0.46,0.46,0,0,0-.09-0.13,14.15,14.15,0,0,0-1.76.64c0.06,0,.14,0,0.14.08a0.75,0.75,0,0,0,.18.28s0.09,0,0,.09a0.13,0.13,0,0,1-.1,0,0.37,0.37,0,0,1-.33-0.36s0,0,0-.06l-0.28.13-0.64.32h0a0,0,0,0,1,0,0,17.47,17.47,0,0,0-1.71,1.05l0,0c0.05,0.05,0,.08,0,0.12s-0.13.08-.19,0v0l-0.06,0,0,0A0.25,0.25,0,0,0,135.37,62Zm1.89-.94a1.3,1.3,0,0,0,.14-0.25,0.15,0.15,0,0,1,.14.08c0.06,0.12-.2.16-0.09,0.3A0.41,0.41,0,0,1,137.27,61.08Zm-0.83.22s0.08,0,.11,0a0.11,0.11,0,0,1,0,.15,0.09,0.09,0,0,1-.12,0A0.11,0.11,0,0,1,136.43,61.3Z"/><path class="cls-1" d="M145.72,75.58l-0.11,0a15.92,15.92,0,0,0-1.49.87,0.19,0.19,0,0,0,.3.07,2.27,2.27,0,0,1,.56-0.14,0.27,0.27,0,0,1,.27.23q0.61-.36,1.24-0.65Zm-1.24.79s-0.08.06-.1,0a0.1,0.1,0,0,1,.06-0.13,0.06,0.06,0,0,1,.1,0C144.57,76.33,144.52,76.35,144.48,76.37Z"/><path class="cls-1" d="M159.45,61.44a3,3,0,0,0,.27.35c0.37-.29.74-0.59,1.1-0.92a0.07,0.07,0,0,1-.09,0,0.48,0.48,0,0,1,0-.15l0.16,0.08,0,0,0.25-.24a0.41,0.41,0,0,1-.23,0,0.24,0.24,0,0,0-.24-0.09c-0.06,0-.07,0-0.08-0.06s0,0,.1-0.1a0.81,0.81,0,0,1,.49.17,0,0,0,0,1,0,0l0.39-.37a0.2,0.2,0,0,0-.1-0.07,0.38,0.38,0,0,1-.29-0.33,0.2,0.2,0,0,1,0-.08c0.18-.09.16-0.15,0.07-0.22a21.45,21.45,0,0,1-1.93,1.71A1.21,1.21,0,0,1,159.45,61.44Zm1.69-1.33a0.08,0.08,0,0,1,.13.07s0.1,0.06,0,.09a0.17,0.17,0,0,1-.16-0.08A0,0,0,0,1,161.14,60.11Zm-0.79.64a0.27,0.27,0,0,1,.26.13s0,0.1,0,.09-0.18-.12-0.3-0.12A0.11,0.11,0,0,1,160.34,60.74Z"/><path class="cls-1" d="M138.59,83l0,0c0.25-.35.51-0.72,0.8-1.09a0.72,0.72,0,0,0-.32-0.25l-0.08,0,0.06,0c0.09,0,.12.08,0,0.15a0.07,0.07,0,0,0,0,.1,0.24,0.24,0,0,1-.12.3c-0.09.06-.2,0.18-0.33,0h-0.06a0.19,0.19,0,0,0,0,.06c0.07,0.12,0,.19-0.11.18a0.11,0.11,0,0,0-.11.07,0.12,0.12,0,0,0,0,.16A1.1,1.1,0,0,0,138.59,83Z"/><path class="cls-1" d="M166.5,70.55a0.27,0.27,0,0,0-.29-0.29,0.2,0.2,0,0,1-.16-0.1l-0.66.58a0.22,0.22,0,0,0,.17.08,0.11,0.11,0,0,1,.1.08,0.69,0.69,0,0,0,.16.39h0c0.24-.2.48-0.41,0.72-0.63C166.52,70.66,166.51,70.61,166.5,70.55Z"/><path class="cls-1" d="M144.31,76.87s-0.1,0-.08.08,0.06,0,.08,0a0.83,0.83,0,0,1,.16.12l0.23-.15-0.18,0A0.2,0.2,0,0,0,144.31,76.87Z"/><path class="cls-1" d="M161.31,73.54a3.3,3.3,0,0,0,.26.41l0.63-.28,0.35-.17,0,0a0,0,0,0,1,0-.06l0.14,0,0.38-.2,0.18-.1,0,0a0.07,0.07,0,0,1,0-.09,0.08,0.08,0,0,1,.1,0h0a17.06,17.06,0,0,0,1.86-1.24,0.69,0.69,0,0,0-.08-0.22,1.15,1.15,0,0,0-.22-0.24,0.51,0.51,0,0,1-.07-0.07,0.16,0.16,0,0,1,0-.1l-0.09.07a0.1,0.1,0,0,1,0,0,0.45,0.45,0,0,1-.1.12s0,0,0,0l-0.29.21a0.21,0.21,0,0,1,.14.12c0,0.07,0,.17.06,0.26a0.18,0.18,0,0,1,0,.07,2.08,2.08,0,0,0-.28,0,0.14,0.14,0,0,1,0-.18,0.12,0.12,0,0,0,0-.14,0.27,0.27,0,0,1,0-.1q-0.48.34-1,.64a0.24,0.24,0,0,0,.11,0c0,0.08,0,.11-0.06.14a0.15,0.15,0,0,1-.19,0,0.06,0.06,0,0,1,0-.09,14.77,14.77,0,0,1-1.85.92C161.24,73.38,161.27,73.46,161.31,73.54Z"/><path class="cls-1" d="M149,74.58c-0.08,0,0-.14,0-0.21V74.28l-0.22.05,0,0c-0.16.09-.13,0.16,0,0.21a0.1,0.1,0,0,1,.06.09,2.57,2.57,0,0,0,.13.26,0.62,0.62,0,0,0,.09.09l0.24-.05a0.31,0.31,0,0,1,0-.07A0.37,0.37,0,0,0,149,74.58Z"/><path class="cls-1" d="M149.55,74.18a0.09,0.09,0,0,1,0,.05c-0.24.12-.07,0.2,0,0.28s0.12,0,.1.09a0.12,0.12,0,0,1-.13.07,0.19,0.19,0,0,0-.07,0l0.07,0h0.14a0.24,0.24,0,0,0,.25-0.22c0-.1-0.12-0.08-0.2-0.09l-0.12,0c-0.05,0-.06-0.06,0-0.1h0.05c0.07,0,.14,0,0.13-0.11a0.11,0.11,0,0,0,0-.05l-0.19,0h0Z"/><path class="cls-1" d="M131.07,76.32a0.43,0.43,0,0,1-.23-0.34,0.15,0.15,0,0,1,0-.09,0.1,0.1,0,0,1,.09,0,1.9,1.9,0,0,0,.19.22c0.13-.25.28-0.54,0.47-0.86,0,0,0-.09,0-0.11h0l0.43-.73a0.36,0.36,0,0,1-.12-0.06,2.21,2.21,0,0,1-.44-0.39v0l-0.52.87a0.35,0.35,0,0,1,.2,0l0,0a0.64,0.64,0,0,0,.21.45c0.08,0.11,0,.19-0.12.25l-1,.48-0.07.15a2.25,2.25,0,0,0,.63.39Z"/><path class="cls-1" d="M161.13,74.12l0.21-.08h-0.06a0,0,0,0,1-.06,0c0-.09-0.06-0.16-0.13-0.13s0,0.11,0,.18A0.16,0.16,0,0,0,161.13,74.12Z"/><path class="cls-1" d="M133.48,81c0.08,0.26.27,0.16,0.43,0.12l0.27-.51a0.12,0.12,0,0,1-.12,0c0-.06,0-0.09,0-0.14a0.24,0.24,0,0,0,.09-0.14,0.06,0.06,0,0,0-.06,0,0.21,0.21,0,0,0-.15.14,0.23,0.23,0,0,0,0,.1c0,0.14-.09.16-0.19,0.18s-0.15-.08-0.15-0.16a0.27,0.27,0,0,0-.11-0.24l-0.18.34A1.59,1.59,0,0,0,133.48,81Z"/><path class="cls-1" d="M129.52,69.18l-0.07,0a0.4,0.4,0,0,1-.1-0.41c0-.1.12-0.06,0.2-0.06a0.09,0.09,0,0,0,.09,0,0.31,0.31,0,0,1,.38-0.22l0.22-.33a0.43,0.43,0,0,1-.1-0.16,1.47,1.47,0,0,1-.34-0.49l-0.31.44a0.14,0.14,0,0,1,.06.13,0.29,0.29,0,0,0,.06.24s0,0.1-.07.12a0.07,0.07,0,0,1-.11-0.06,0.12,0.12,0,0,0-.14-0.14c-0.21.31-.4,0.61-0.57,0.89a0.36,0.36,0,0,0,.07.08s0,0.12,0,.15a0.11,0.11,0,0,1-.14,0l-0.28.47a0,0,0,0,1,0,.07h0c-0.16.27-.3,0.53-0.42,0.75a0.36,0.36,0,0,0,.14,0c0.1,0,.18.09,0.07,0.17a1.09,1.09,0,0,0-.32.64l0,0.08a0.33,0.33,0,0,1-.18.22c-0.07,0-.1-0.11-0.13-0.18l0-.05-0.12.26,0.67,0.3A25.25,25.25,0,0,1,129.52,69.18Zm0.17-.79a0.1,0.1,0,0,1,.08-0.12s0.08-.07.1,0,0,0.1-.09.13S129.72,68.46,129.69,68.39Zm-0.76.55a0.11,0.11,0,0,1,.11-0.12,0.14,0.14,0,0,1,.14,0c-0.17.11,0,.15,0,0.23s-0.14.1-.23,0.07S128.93,69,128.93,68.94Z"/><path class="cls-1" d="M130.19,76.46v0c-0.08.17-.13,0.27-0.14,0.3l0.4,0.17Z"/><path class="cls-1" d="M135.75,86.37l-0.17.37,0.5,0.22Z"/><path class="cls-1" d="M133,81.41l-0.16.33,0.45,0.2Z"/><path class="cls-1" d="M135.95,86.15v0c0.19-.05.16,0.13,0.22,0.21s0.06,0.06.12,0a0.8,0.8,0,0,1,.31-0.11c0.27-.53.71-1.32,1.28-2.24a1,1,0,0,0-.26-0.28c-0.05,0,0-.1.06-0.12a0.34,0.34,0,0,0,.25-0.43A0.27,0.27,0,0,1,138,83s0.31-.06,0-0.19c-0.05,0,.05-0.14.09-0.21a0.59,0.59,0,0,0,0-.09l-0.06,0a0.19,0.19,0,0,1-.13,0,28.5,28.5,0,0,0-2,3.32A0.23,0.23,0,0,1,135.95,86.15Z"/><path class="cls-1" d="M159.65,74.51c0-.05,0-0.07,0-0.07a2.81,2.81,0,0,1,.38,0h0l0.33-.1c-0.07,0-.14,0-0.14,0a0.56,0.56,0,0,0-.17-0.41,0.08,0.08,0,0,1,0-.11,0.11,0.11,0,0,1,.08,0c0.06,0,0,.07,0,0.1s0.1,0.08.15,0.1a0.24,0.24,0,0,0,.19,0,0.14,0.14,0,0,0,0-.2,0.28,0.28,0,0,1-.11-0.12,12.79,12.79,0,0,1-3.17.64l0.07,0.08a0.13,0.13,0,0,1,0,.2,0.16,0.16,0,0,1-.21-0.1,0.24,0.24,0,0,1,0-.17c-0.3,0-.6,0-0.91,0a0,0,0,0,1,0,0c-0.06,0-.07,0-0.06,0a14.11,14.11,0,0,1-1.87-.17l-0.11,0a3.81,3.81,0,0,0,.43.5,1.89,1.89,0,0,1,.25.33,13.53,13.53,0,0,0,5-.37A0.31,0.31,0,0,0,159.65,74.51Zm-4.23.3a0,0,0,0,1-.07,0,0.11,0.11,0,0,1,0-.14,0.05,0.05,0,0,1,.09,0A0.13,0.13,0,0,1,155.42,74.81Zm2.9-.32a0.5,0.5,0,0,1-.29-0.11c-0.05,0,0-.06,0-0.07a1.16,1.16,0,0,1,.28.1v0.07Z"/><path class="cls-1" d="M152.66,59.19q0.62-.23,1.23-0.52c0.3-.14.59-0.29,0.88-0.45q0.71-.39,1.4-0.87l0,0a0.1,0.1,0,0,1,0-.14,0.11,0.11,0,0,1,.14,0l0,0a20.34,20.34,0,0,0,2.37-2c-0.05,0,0-.1,0-0.17h0c0.08-.05-0.11-0.17,0-0.2s0.08,0.12.14,0.18c0.28-.27.55-0.55,0.82-0.85,0.43-.46.82-0.92,1.18-1.38h0a0.23,0.23,0,0,1-.22-0.13,0.13,0.13,0,0,1,0-.17l0.22,0.22a0.06,0.06,0,0,1,0,.05l0.29-.36,0,0s0-.07,0-0.08h0.11c0.56-.74,1-1.44,1.45-2.09-0.1-.11-0.19-0.23-0.29-0.33a0.12,0.12,0,0,1,0-.15c0.05-.07.1,0,0.15,0a0.3,0.3,0,0,1,.13.2l0.13,0.14a23.9,23.9,0,0,0,1.59-2.91l-0.67-.29a27.4,27.4,0,0,1-2.59,4.37,0.35,0.35,0,0,0,.25.14c0.07,0,.12,0,0.11.07s0.12,0.08,0,.14a0.23,0.23,0,0,1-.26,0,1.13,1.13,0,0,1-.25-0.19,26.55,26.55,0,0,1-1.86,2.28c-0.35.38-.7,0.74-1.06,1.08a0.5,0.5,0,0,1,.06.13,0.13,0.13,0,0,0,.15.1l0,0s0.06-.09.11-0.08a0.1,0.1,0,0,1,0,.08c0,0.05,0,.17-0.17.15a0.44,0.44,0,0,1-.27-0.28,18.68,18.68,0,0,1-2,1.67l0.09,0.1a0.69,0.69,0,0,0,.1.3,0.1,0.1,0,0,1,0,.08,0.07,0.07,0,0,1-.06,0,2.92,2.92,0,0,0-.27-0.37,14.81,14.81,0,0,1-3.61,1.89Zm8.25-7.25a0.16,0.16,0,0,1,.09-0.17,0.25,0.25,0,0,1,.3,0,0.41,0.41,0,0,1,.1.24c0,0.05-.05.07-0.09,0.08s-0.06,0-.06-0.08,0-.11-0.06-0.13-0.07.06-.09,0.1a0.07,0.07,0,0,1-.08,0A0.13,0.13,0,0,1,160.91,51.94Zm0,0.41a0.24,0.24,0,0,1,0,.26s-0.08,0-.06,0-0.24-.11-0.09-0.25S160.87,52.26,160.89,52.35Zm-0.36-.05a0.17,0.17,0,0,1,.07-0.17s0.07,0,.09,0,0,0.1-.08.13S160.55,52.37,160.54,52.3Zm0,0.08h0Zm0,0.22c0.05,0,.08,0,0.1.07a0.12,0.12,0,0,1,0,.16c-0.06,0-.08,0-0.1-0.08S160.4,52.64,160.47,52.6Zm-2.2,2.2a0.14,0.14,0,0,1,0-.05l0.24,0a0.14,0.14,0,0,1,0,.06A0.31,0.31,0,0,1,158.27,54.79Z"/><path class="cls-1" d="M152.06,59.24a1.12,1.12,0,0,1,0,.16l0.1,0c0-.13.1-0.12,0.19-0.13s0.1,0,.09-0.1l-0.34.06S152,59.19,152.06,59.24Z"/><path class="cls-1" d="M144.16,64.25a0.09,0.09,0,0,0,0-.11l-0.14,0v0S144.12,64.29,144.16,64.25Z"/><path class="cls-1" d="M141.07,80l0.19-.2A0.21,0.21,0,0,0,141.07,80Z"/><path class="cls-1" d="M138.89,81.48a0.09,0.09,0,0,0,.12.06,0.25,0.25,0,0,0,0-.13,0.07,0.07,0,0,0-.11,0C138.87,81.39,138.85,81.43,138.89,81.48Z"/><path class="cls-1" d="M141.42,78.73a0.23,0.23,0,0,1,0,.26,0.2,0.2,0,0,0,.06.2,0.51,0.51,0,0,1,.12.18c0.24-.24.49-0.47,0.74-0.7a0.61,0.61,0,0,1-.33-0.31c0-.05.06-0.1,0.12-0.07a0.09,0.09,0,0,0,.14,0,0.28,0.28,0,0,1,.45-0.16,0.18,0.18,0,0,0,.1,0c0.08-.1.16-0.13,0.22,0,0.22-.19.45-0.36,0.68-0.53-0.09,0-.16-0.07-0.08-0.22s0-.05,0,0c-0.2.21-.13-0.09-0.21-0.1a0.1,0.1,0,0,1,0,0,0.57,0.57,0,0,0-.1-0.16l-0.09.06a0.31,0.31,0,0,0,0,.16,0.23,0.23,0,0,1-.09.21c-0.08.08-.07,0-0.11,0a0.36,0.36,0,0,1-.2,0l-0.18.14v0a0.29,0.29,0,0,1-.25.28,0.46,0.46,0,0,0-.2.27h0v0h0a0.35,0.35,0,0,0-.09-0.15l-0.5.45h0.16l0.07,0a0.51,0.51,0,0,1,.22.19l0,0.05c-0.06-.13-0.23.12-0.28-0.08a0.12,0.12,0,0,0-.09,0,0.18,0.18,0,0,1-.24,0l-0.17.17A0.19,0.19,0,0,1,141.42,78.73Z"/><path class="cls-1" d="M145.86,64.69h0.09l0,0S145.87,64.67,145.86,64.69Z"/><path class="cls-1" d="M134.88,63l0.49-.38-0.23-.5A0.13,0.13,0,0,0,135,62c-0.07,0,0,.08,0,0.13,0,0.28,0,.55-0.07.83A0,0,0,0,0,134.88,63Z"/><path class="cls-1" d="M144.32,64.21a0.06,0.06,0,0,0,.09,0,0.06,0.06,0,0,0,0-.1l0,0h-0.07A0.24,0.24,0,0,0,144.32,64.21Z"/><path class="cls-1" d="M114.22,77.48a4.74,4.74,0,0,1,2.09,0,1.13,1.13,0,0,1,.77,1,1.15,1.15,0,0,1-.48,1.21,5.63,5.63,0,0,1-2.21.66,4.81,4.81,0,0,1-2.1,0,1.14,1.14,0,0,1-.77-1,1.17,1.17,0,0,1,.31-1.08,2.26,2.26,0,0,1,.84-0.45A9.34,9.34,0,0,1,114.22,77.48Zm0.2,0.75a8.83,8.83,0,0,0-1.85.41,0.53,0.53,0,0,0-.39.59,0.52,0.52,0,0,0,.5.46,7.49,7.49,0,0,0,1.74-.13,6.94,6.94,0,0,0,1.63-.38,0.53,0.53,0,0,0,.36-0.58,0.52,0.52,0,0,0-.48-0.44A5.44,5.44,0,0,0,114.41,78.24Z"/><path class="cls-1" d="M111.49,75.27l0.15-.62,2.29,0,0.86,0,0.89,0.07-0.09,0,0,0-0.59-.25-0.56-.23L114,74.12l-2-.92,0.15-.62,5.46,0.77-0.16.69-1.84-.31-0.24,0-0.17,0-0.72-.14-0.66-.14H113.7l0.1,0,0.32,0.13,0.23,0.1,0.47,0.21L115,73.9l2.22,1-0.12.48L115,75.33l-0.84,0-0.89-.08,3.63,1.08-0.16.68Z"/><path class="cls-1" d="M113.26,70.08l0.39-.57,2.22,0.65a19.88,19.88,0,0,1,1.95.67c-0.38-.19-0.72-0.38-1-0.55s-0.57-.35-0.82-0.52l-1.68-1.17,0.42-.61,4.5,3.14-0.4.57-2.5-.73-0.7-.23-0.73-.28-0.11,0-0.16-.06,0.14,0.08,0.1,0.05,0.48,0.29,0.58,0.36L116,71.18l0.15,0.1,2,1.34-0.42.6Z"/><path class="cls-1" d="M116.26,66.46l1.55-1.2,0.38,0.5-1,.75,1.06,1.38,0.86-.66,0.38,0.5-0.86.66,1.14,1.48,1-.75,0.38,0.5-1.56,1.2Z"/><path class="cls-1" d="M124.2,68.48l-0.32.47-0.54-.37a1.44,1.44,0,0,1-.61.42,1.16,1.16,0,0,1-1.29-.25,5.94,5.94,0,0,1-1.11-2.08,4.59,4.59,0,0,1-.39-2,1.13,1.13,0,0,1,.81-0.93A1.16,1.16,0,0,1,122,64a5.59,5.59,0,0,1,1.09,2,4.77,4.77,0,0,1,.42,2Zm-1.85-1.26,0.44,0.3a8.44,8.44,0,0,0-.34-1.14,8.6,8.6,0,0,0-.78-1.75,0.55,0.55,0,0,0-.67-0.27,0.51,0.51,0,0,0-.34.56,6,6,0,0,0,.42,1.53,8,8,0,0,0,.75,1.66,0.54,0.54,0,0,0,.65.26,0.52,0.52,0,0,0,.25-0.2l-0.67-.47Z"/><path class="cls-1" d="M124.33,62.94h0.73l0,3.88a1.92,1.92,0,0,0,.11.79,0.46,0.46,0,0,0,.44.19,0.46,0.46,0,0,0,.43-0.17,1.56,1.56,0,0,0,.1-0.71l0-4h0.72l0,4a1.93,1.93,0,0,1-.27,1.21,1.28,1.28,0,0,1-1,.37,1.15,1.15,0,0,1-1-.46,2.41,2.41,0,0,1-.22-1.21Z"/><path class="cls-1" d="M129,63.28l1.88,0.58-0.18.6-1.17-.36L129,65.76l1,0.32-0.18.6-1-.32-0.55,1.79,1.17,0.36-0.18.6-1.88-.58Z"/></svg>