<?xml version="1.0" encoding="UTF-8"?>
<svg width="30px" height="31px" viewBox="0 0 30 31" version="1.1" xmlns="http://www.w3.org/2000/svg" xmlns:xlink="http://www.w3.org/1999/xlink">
    <title>key</title>
    <g id="Page-1" stroke="none" stroke-width="1" fill="none" fill-rule="evenodd">
        <g id="SELL-WITH-OMNEQUE" transform="translate(-60.000000, -1004.000000)" fill="#000000" fill-rule="nonzero">
            <g id="ACCESS" transform="translate(43.500000, 1004.000000)">
                <g id="key" transform="translate(16.500000, 0.000000)">
                    <path d="M19.7004621,0 C14.0212442,0 9.40080509,4.70025391 9.40080509,10.4775762 C9.40080509,11.761957 9.62513119,13.0100703 10.0680696,14.1953359 L0.219862194,24.2143906 C0.0791003942,24.3576445 0,24.5518184 0,24.7542871 L0,30.2364434 C0,30.6581523 0.336042758,31 0.750590723,31 L5.1916404,31 C5.39049248,31 5.58119049,30.9197754 5.72195229,30.7768242 L7.2185508,29.2566738 C7.35961019,29.1134199 7.43882962,28.9190039 7.43882962,28.716293 L7.43882962,26.8468477 L9.27420875,26.8468477 C9.68875671,26.8468477 10.0247995,26.505 10.0247995,26.083291 L10.0247995,25.3349316 L10.7605105,25.3349316 C11.174999,25.3349316 11.5111012,24.993084 11.5111012,24.571375 L11.5111012,22.928375 L13.1262015,22.928375 C13.3252322,22.928375 13.5161087,22.8479082 13.6569301,22.7047148 L16.0448811,20.2755137 C17.2101983,20.7265273 18.437296,20.9550312 19.700343,20.9550312 C25.3795609,20.9550312 30,16.2547773 30,10.4774551 C30,4.70025391 25.3796799,0 19.7004621,0 Z M19.7004621,19.427918 C18.4718764,19.427918 17.2836445,19.175498 16.1686801,18.6775605 C15.8803713,18.5488379 15.5556966,18.6196777 15.3430957,18.8304414 C15.3407745,18.8326816 15.3385128,18.834498 15.3362511,18.8368594 L12.8153947,21.4012617 L10.7606295,21.4012617 C10.3460816,21.4012617 10.0100388,21.7431094 10.0100388,22.1648184 L10.0100388,23.8078184 L9.27432779,23.8078184 C8.85983934,23.8078184 8.52373706,24.149666 8.52373706,24.571375 L8.52373706,25.3197344 L6.68829842,25.3197344 C6.27380997,25.3197344 5.9377077,25.661582 5.9377077,26.083291 L5.9377077,28.3996328 L4.88107165,29.4728262 L1.50130048,29.4728262 L1.50130048,28.3938203 L10.6755773,19.061125 C10.9394238,18.7927207 10.9394238,18.3576309 10.6755773,18.0892871 C10.4117307,17.8209434 9.98414818,17.8208223 9.72012308,18.0892871 L1.50130048,26.4501445 L1.50130048,25.0706445 L11.4823537,14.9164492 C11.4846154,14.9141484 11.4863414,14.9120293 11.4884246,14.9097891 C11.6956688,14.6936973 11.7655438,14.3634141 11.639007,14.0698828 C11.1500011,12.9357188 10.9021651,11.7270215 10.9021651,10.4776367 C10.9021651,5.54233984 14.8491498,1.52717383 19.7006406,1.52717383 C24.5521315,1.52717383 28.4989971,5.5422793 28.4989971,10.4776367 C28.4989971,15.4128125 24.5518339,19.427918 19.7004621,19.427918 Z" id="Shape"></path>
                    <path d="M23,5 C21.3457671,5 20,6.34576709 20,8 C20,9.65423291 21.3457671,11 23,11 C24.6542329,11 26,9.65423291 26,8 C26,6.34576709 24.6542964,5 23,5 Z M23,9.39816246 C22.2290577,9.39816246 21.6018375,8.77094227 21.6018375,8 C21.6018375,7.22905773 22.2290577,6.60183754 23,6.60183754 C23.7709423,6.60183754 24.3981625,7.22905773 24.3981625,8 C24.3981625,8.77094227 23.7709423,9.39816246 23,9.39816246 Z" id="Shape"></path>
                </g>
            </g>
        </g>
    </g>
</svg>