<svg width="23" height="19" xmlns="http://www.w3.org/2000/svg"><path d="M21.988 4.424a.406.406 0 00-.23-.286l-5.472-3.075a.623.623 0 00-.23-.063H6.945a.623.623 0 00-.23.063L1.243 4.138a.406.406 0 00-.23.286.428.428 0 00.066.348l10.03 13.22c.098.126.229.19.36.19.13 0 .295-.064.36-.19l10.03-13.22c.13-.095.163-.222.13-.348zM6.552 2.173l.72 2.346H2.39s0 0 0 0l4.163-2.346zm1.671 2.346l-.82-2.631h8.161l-.786 2.63H8.223zm6.293.887L11.5 15.297l-3.016-9.89h6.03zm-6.981 0l3.244 10.652L2.717 5.406h4.818zm7.931 0h4.85l-8.094 10.652 3.244-10.652zm5.146-.887h-4.884l.721-2.346 4.163 2.346c.032 0 0 0 0 0z" fill="#000" fill-rule="nonzero" stroke="#000" stroke-width=".1"/></svg>