<svg width="22" height="22" xmlns="http://www.w3.org/2000/svg"><g fill="#000" fill-rule="nonzero"><path d="M22 10.436c0 .138-.035.241-.035.379a8.58 8.58 0 01-.383 2.1 9.563 9.563 0 01-2.37 3.991c-1.43 1.48-3.137 2.444-5.124 2.995-.627.172-1.255.275-1.917.344-.593.069-1.185.069-1.813.034a10.667 10.667 0 01-2.335-.378H7.92c-1.325.688-2.684 1.376-4.009 2.065-.035 0-.035.034-.07.034v-.103-4.027c0-.069 0-.103-.07-.138-.836-.688-1.568-1.445-2.16-2.34a9.472 9.472 0 01-1.255-2.684 9.876 9.876 0 01-.349-3.029A9.777 9.777 0 011.506 5a10.361 10.361 0 013.729-3.51A11.463 11.463 0 018.51.248a12.31 12.31 0 012.963-.24c1.743.068 3.38.516 4.914 1.307a10.575 10.575 0 012.963 2.272 11.63 11.63 0 011.743 2.58c.348.792.627 1.584.732 2.444.07.379.07.757.104 1.136v.103c.07.207.07.413.07.585zM4.782 20.486c.034 0 .034-.035.07-.035l2.823-1.445a.5.5 0 01.383-.035c.627.173 1.255.31 1.917.345.871.068 1.743.068 2.614-.07a11.309 11.309 0 002.614-.722c1.638-.688 2.998-1.72 4.043-3.132 1.046-1.41 1.639-2.96 1.743-4.715a7.74 7.74 0 00-.313-2.822 8.733 8.733 0 00-2.3-3.889 10.11 10.11 0 00-2.615-1.893 10.699 10.699 0 00-3.974-1.1c-1.045-.07-2.056 0-3.067.206-1.29.275-2.544.791-3.66 1.548-1.324.895-2.37 2.03-3.102 3.407a8.283 8.283 0 00-.976 3.27 8.698 8.698 0 00.07 2.134 7.823 7.823 0 001.15 3.028c.663 1.067 1.5 1.996 2.51 2.72.035.033.07.068.07.137V20.486z"/><path d="M17 8.015c-1.81 1.972-3.619 3.979-5.428 5.985l-2.647-2.89c-1.641.918-3.283 1.87-4.925 2.788 1.843-1.972 3.652-3.945 5.495-5.883l2.714 2.755C13.784 9.817 15.392 8.9 17 8.015c0-.034 0 0 0 0z"/></g></svg>