<svg width="21" height="21" xmlns="http://www.w3.org/2000/svg"><path d="M19.13 20.014c-.154.137-.302.27-.438.4-.402.383-1.087.586-1.98.586-2.623 0-7.031-1.708-10.968-5.526C3.379 13.137 1.564 10.41.63 7.798c-.854-2.395-.84-4.342.036-5.208.177-.175.37-.394.575-.626C2.013 1.089 2.973 0 4.206 0c.78 0 1.54.447 2.256 1.327 2.42 2.975 2.092 3.743.446 5.344-.092.09-.188.182-.287.28-.41.406.609 2.614 2.856 4.835 1.63 1.611 3.565 2.826 4.5 2.826.217 0 .287-.068.31-.09.103-.1.202-.202.3-.301.594-.604 1.208-1.229 2.138-1.229.837 0 1.781.524 2.973 1.649.888.837 1.313 1.646 1.302 2.473-.018 1.247-1.044 2.164-1.87 2.9zm-.099-4.683c-.987-.932-1.741-1.385-2.306-1.385-.496 0-.873.357-1.445.94-.103.104-.207.21-.314.314-.171.167-.482.367-.989.367-1.409 0-3.618-1.56-5.183-3.107-1.035-1.022-1.965-2.204-2.553-3.243-.78-1.379-.882-2.368-.303-2.94l.293-.286c1.318-1.282 1.555-1.513-.522-4.066-.524-.644-1.03-.97-1.503-.97-.794 0-1.56.869-2.236 1.636-.216.245-.42.476-.62.674-.467.461-.606 1.977.192 4.216.885 2.48 2.62 5.08 4.882 7.315 3.739 3.627 7.861 5.25 10.288 5.25.88 0 1.21-.223 1.31-.32.142-.135.299-.275.461-.42.722-.644 1.54-1.374 1.551-2.206.007-.538-.33-1.134-1.003-1.77z" fill="#000" fill-rule="nonzero"/></svg>