<?xml version="1.0" encoding="UTF-8"?>
<svg width="37px" height="30px" viewBox="0 0 37 30" version="1.1" xmlns="http://www.w3.org/2000/svg" xmlns:xlink="http://www.w3.org/1999/xlink">
    <title>Shape</title>
    <g id="Page-1" stroke="none" stroke-width="1" fill="none" fill-rule="evenodd">
        <g id="SELL-WITH-OMNEQUE" transform="translate(-216.000000, -1005.000000)" fill="#000000" fill-rule="nonzero">
            <g id="WHAT-TO-SELL" transform="translate(43.500000, 588.000000)">
                <g id="money" transform="translate(172.500000, 417.000000)">
                    <path d="M36.9000266,18.2725117 C36.81865,18.133895 36.6936234,18.0260013 36.5443569,17.9657371 L33.890731,16.8822549 L36.6391292,15.2679391 C36.9865975,15.0650588 37.1034226,14.6196676 36.9000266,14.2730806 C36.81865,14.1344639 36.6936234,14.0265702 36.5443569,13.966306 L33.890731,12.8828238 L36.6391292,11.2685079 C36.8791585,11.1244375 37.0152115,10.8559303 36.9890579,10.5776971 C36.9680075,10.302918 36.7929521,10.0634975 36.5370667,9.9596032 L26.0902375,5.69111944 L20.9433697,3.50961155 C20.859806,3.47661625 20.7707747,3.45943687 20.6809232,3.4587097 L12.2972152,0.0555573986 C12.0913587,-0.0297032013 11.8577084,-0.0162505694 11.6629694,0.0919158633 L0.428800648,6.38920196 C0.0692124742,6.56981264 -0.0754976169,7.00702318 0.105572252,7.36569943 C0.18813355,7.52931252 0.329654187,7.65583998 0.501702457,7.71992177 L3.21364976,8.83976249 L0.428800648,10.3886331 C0.0784163276,10.5864231 -0.0448788571,11.0301782 0.153414064,11.3796739 C0.232239145,11.5185633 0.35453193,11.6276387 0.501702457,11.6902661 L3.21364976,12.8101068 L0.44338101,14.3589774 C0.072948692,14.5164096 -0.0992818321,14.9436216 0.0585505847,15.3130236 C0.140838502,15.5056325 0.302316009,15.6534297 0.501702457,15.718784 L3.21364976,16.831353 L0.44338101,18.3802236 C0.0929966895,18.5780137 -0.0302984952,19.0217688 0.167994426,19.3712645 C0.246819507,19.5101538 0.369112292,19.6192292 0.516282819,19.6818567 L9.94248674,23.6740161 C9.97693285,23.6990126 10.013566,23.7209185 10.0518395,23.7394614 L15.2059974,25.9209692 L24.6832326,29.9422154 C24.8964703,30.0324753 25.1400535,30.0162958 25.3393488,29.8985853 L36.6391292,23.2668013 C36.9865975,23.0639211 37.1034226,22.6185299 36.9000266,22.2719428 C36.81865,22.1333262 36.6936234,22.0254324 36.5443569,21.9651683 L33.890731,20.881686 L36.6391292,19.2673702 C36.9865975,19.0645808 37.1033315,18.6190988 36.9000266,18.2725117 Z M34.6270393,14.7444681 L24.9092282,20.452747 L16.2193325,16.7732704 L16.2193325,14.3517966 L24.6759424,17.9367413 C24.765885,17.9749177 24.862571,17.994733 24.9602594,17.9949148 C25.0911182,17.9949148 25.2195165,17.959738 25.3320587,17.8931111 L32.3087618,13.799148 L34.6270393,14.7444681 Z M34.6562,10.7377652 L24.9092282,16.4460442 L17.0139622,13.1010655 L25.9079829,7.1746357 L34.6562,10.7377652 Z M9.58526788,21.9579875 L2.4336004,18.9256915 L4.89039137,17.5513415 L9.59255806,19.5437854 L9.58526788,21.9579875 Z M9.58526788,17.9585563 L2.4336004,14.9262604 L4.89039137,13.537367 L9.59255806,15.5298109 L9.58526788,17.9585563 Z M9.58526788,13.9591252 L2.4336004,10.934101 L4.89039137,9.55975099 L9.59255806,11.5521949 L9.58526788,13.9591252 Z M2.4336004,6.93466983 L12.0712196,1.53180196 L19.0625031,4.3895773 L10.2559645,10.2505618 L2.4336004,6.93466983 Z M15.0820643,12.6502205 C14.8811287,12.7856558 14.7609318,13.0118963 14.7612963,13.253771 L14.7612963,24.1613104 L11.0505942,22.5906248 L11.0505942,11.4722062 L20.710084,5.05130135 L24.3041431,6.50563995 L15.0820643,12.6502205 Z M34.6270393,22.7433303 L24.9092282,28.4443376 L16.2193325,24.764861 L16.2193325,22.3506589 L24.6759424,25.8992451 C24.8891802,25.9895049 25.1327633,25.9733254 25.3320587,25.8556149 L32.3087618,21.7616518 L34.6270393,22.7433303 Z M24.9092282,24.4449065 L16.2193325,20.7654298 L16.2193325,18.3512278 L24.6832326,21.9361724 C24.8964703,22.0264323 25.1400535,22.0102528 25.3393488,21.8925422 L32.316052,17.7985791 L34.6270393,18.7438992 L24.9092282,24.4449065 Z" id="Shape"></path>
                </g>
            </g>
        </g>
    </g>
</svg>