<?xml version="1.0" encoding="UTF-8"?>
<svg width="18px" height="20px" viewBox="0 0 18 20" version="1.1" xmlns="http://www.w3.org/2000/svg" xmlns:xlink="http://www.w3.org/1999/xlink">
    <title>ring</title>
    <g id="Page-1" stroke="none" stroke-width="1" fill="none" fill-rule="evenodd">
        <g id="Artboard-Copy-8" transform="translate(-710.000000, -745.000000)" fill="#E5AC9C" fill-rule="nonzero">
            <g id="USP" transform="translate(72.000000, 737.000000)">
                <g id="Path" transform="translate(638.000000, 8.000000)">
                    <path d="M8.66666667,20 C13.4455152,20 17.3333333,16.1172524 17.3333333,11.3446365 C17.3333333,7.7293724 15.1016192,4.62642987 11.9423922,3.33333333 L10.7852603,4.92566719 C13.4828421,5.81595724 15.4355339,8.35610084 15.4355339,11.3446365 C15.4355339,15.0721568 12.3990548,18.1046757 8.66666667,18.1046757 C4.93427852,18.1046757 1.89779943,15.0721568 1.89779943,11.3446365 C1.89779943,8.35610084 3.8505335,5.81595724 6.54790418,4.92566719 L5.39077223,3.33333333 C2.23171417,4.62647204 0,7.7293724 0,11.3446365 C0,16.1172524 3.88786033,20 8.66666667,20 Z"></path>
                    <polygon points="7.21702492 5.1539078 7.82443186 6 8.66666667 5.93985406 9.50894319 6 10.1162667 5.1539078 11.2929508 3.5146147 12.6666667 1.60086887 11.3823097 0 8.66666667 0 5.95102364 0 4.66666667 1.60086887 6.04042427 3.5146147"></polygon>
                </g>
            </g>
        </g>
    </g>
</svg>