<?xml version="1.0" encoding="UTF-8"?>
<svg width="20px" height="20px" viewBox="0 0 20 20" version="1.1" xmlns="http://www.w3.org/2000/svg" xmlns:xlink="http://www.w3.org/1999/xlink">
    <title>magnifyer</title>
    <g id="Page-1" stroke="none" stroke-width="1" fill="none" fill-rule="evenodd">
        <g id="Artboard-Copy-8" transform="translate(-858.000000, -745.000000)" fill="#E5AC9C" fill-rule="nonzero">
            <g id="USP" transform="translate(72.000000, 737.000000)">
                <g id="Group-7" transform="translate(786.000000, 8.000000)">
                    <path d="M15.0917188,13.1824019 C16.0125781,11.8267981 16.5529688,10.1833844 16.5529688,8.41111144 C16.5529688,3.76586179 12.8481641,0 8.27648438,0 C3.70480469,0 0,3.76582209 0,8.41107174 C0,13.0563214 3.70480469,16.8221832 8.27648437,16.8221832 C10.1846484,16.8221832 11.9405469,16.1643096 13.3404297,15.0620577 L18.1993359,20 L20,18.1703238 L15.0917188,13.1824019 Z M8.27648437,15.0105696 C4.69574219,15.0105696 1.78261719,12.0501384 1.78261719,8.41107174 C1.78261719,4.77208444 4.69566406,1.81157392 8.27648437,1.81157392 C11.8573047,1.81157392 14.7703516,4.77200504 14.7703516,8.41107174 C14.7703516,12.0501384 11.8572266,15.0105696 8.27648437,15.0105696 Z" id="Shape"></path>
                    <path d="M7.53569455,3.15789474 C5.42389488,3.76458309 3.76483196,5.42372994 3.15789474,7.53567639 L4.40947062,7.89473684 C4.89012401,6.21705783 6.21722258,4.88969242 7.89473684,4.40901472 L7.53569455,3.15789474 Z" id="Path"></path>
                </g>
            </g>
        </g>
    </g>
</svg>