<?xml version="1.0" encoding="UTF-8"?>
<svg width="17px" height="20px" viewBox="0 0 17 20" version="1.1" xmlns="http://www.w3.org/2000/svg" xmlns:xlink="http://www.w3.org/1999/xlink">
    <title>stamp</title>
    <g id="Page-1" stroke="none" stroke-width="1" fill="none" fill-rule="evenodd">
        <g id="Artboard-Copy-8" transform="translate(-1012.000000, -745.000000)" fill="#E5AC9C" fill-rule="nonzero">
            <g id="USP" transform="translate(72.000000, 737.000000)">
                <g id="Group-8" transform="translate(940.000000, 8.000000)">
                    <circle id="Oval" cx="9.37931034" cy="7.17241379" r="1"></circle>
                    <path d="M16.298347,3.65279741 C16.4581389,3.54681466 16.5517241,3.36394397 16.5517241,3.17048276 L16.5517241,0.581896552 C16.5517241,0.260534483 16.2945561,5.88035368e-14 15.9773465,5.88035368e-14 L14.8939938,5.88035368e-14 C14.7054831,5.88035368e-14 14.5269665,0.0922887931 14.4218555,0.250797414 C14.1934829,0.595125 13.8056632,0.821793103 13.3654219,0.821793103 C12.9251423,0.821793103 12.5373226,0.595125 12.3089883,0.250797414 C12.2038389,0.0922887931 12.0252841,5.88035368e-14 11.8368117,5.88035368e-14 L9.8044723,5.88035368e-14 C9.61596157,5.88035368e-14 9.43744502,0.0922887931 9.33233392,0.250797414 C9.10396139,0.595125 8.71614164,0.821793103 8.27590036,0.821793103 C7.83562079,0.821793103 7.44780104,0.595125 7.21946681,0.250797414 C7.11427912,0.0922887931 6.93576257,5.88035368e-14 6.74725184,5.88035368e-14 L4.71491247,5.88035368e-14 C4.52640174,5.88035368e-14 4.34788519,0.0922887931 4.24277409,0.250797414 C4.01440156,0.595125 3.6266201,0.821793103 3.18634054,0.821793103 C2.74606097,0.821793103 2.35824122,0.595125 2.12990698,0.250797414 C2.02475759,0.0922887931 1.84624103,5.88035368e-14 1.65773031,5.88035368e-14 L0.57437759,5.88035368e-14 C0.257167993,5.88035368e-14 0,0.260534483 0,0.581896552 L0,3.18452586 C0,3.37531034 0.0909431184,3.55600862 0.247135531,3.66257328 C0.586362936,3.89393534 0.809566067,4.28640517 0.809566067,4.73190517 C0.809566067,5.17744397 0.586362936,5.569875 0.247135531,5.80123707 C0.0909431184,5.90776293 0,6.0885 0,6.27924569 L0,8.34067241 C0,8.5314569 0.0909431184,8.71215517 0.247135531,8.81868103 C0.586362936,9.0500431 0.809566067,9.44251293 0.809566067,9.88801293 C0.809566067,10.3335517 0.586362936,10.7259828 0.247135531,10.9573448 C0.0909431184,11.0638707 0,11.2446078 0,11.4353534 L0,13.4967802 C0,13.6875647 0.0909431184,13.8682629 0.247135531,13.9747888 C0.586362936,14.2061509 0.809566067,14.5986207 0.809566067,15.0441207 C0.809566067,15.4896595 0.586362936,15.8820905 0.247135531,16.1134526 C0.0909431184,16.2199784 0,16.4007155 0,16.5914612 L0,19.2801724 C0,19.6015345 0.257167993,19.862069 0.57437759,19.862069 L1.57482848,19.862069 C1.78110662,19.862069 1.97562916,19.7536034 2.07668132,19.5713922 C2.29460018,19.1784957 2.7097603,18.9129957 3.18634054,18.9129957 C3.66288248,18.9129957 4.07808089,19.1784957 4.29599975,19.5713922 C4.39705191,19.7536034 4.59157446,19.862069 4.79785259,19.862069 L6.66435001,19.862069 C6.87066644,19.862069 7.06515069,19.7536034 7.16620286,19.5713922 C7.38412171,19.1784957 7.79928184,18.9129957 8.27586207,18.9129957 C8.75240401,18.9129957 9.16760242,19.1784957 9.38552128,19.5713922 C9.48657345,19.7536034 9.68109599,19.862069 9.88737413,19.862069 L11.7538715,19.862069 C11.960188,19.862069 12.1546722,19.7536034 12.2557244,19.5713922 C12.4736432,19.1784957 12.8888034,18.9129957 13.3653836,18.9129957 C13.8419255,18.9129957 14.2570857,19.1784957 14.4750428,19.5713922 C14.576095,19.7536034 14.7706175,19.862069 14.9768957,19.862069 L15.9773083,19.862069 C16.2945179,19.862069 16.5517241,19.6015345 16.5517241,19.2801724 L16.5517241,16.6056595 C16.5517241,16.4121595 16.4581006,16.2292888 16.2983087,16.1233448 C15.9512698,15.8931466 15.7219783,15.4958664 15.7219783,15.0442371 C15.7219783,14.5926078 15.9512698,14.1953276 16.2983087,13.9651293 C16.4581006,13.8591466 16.5517241,13.6762759 16.5517241,13.4827759 L16.5517241,11.4494741 C16.5517241,11.2559741 16.4581006,11.0731034 16.2983087,10.9671595 C15.9512698,10.737 15.7219783,10.339681 15.7219783,9.88805172 C15.7219783,9.43642241 15.9512698,9.03914224 16.2983087,8.80894397 C16.4581006,8.70296121 16.5517241,8.52009052 16.5517241,8.32659052 L16.5517241,6.29328879 C16.5517241,6.09978879 16.4581006,5.9169181 16.2983087,5.81093534 C15.9512698,5.58077586 15.7219783,5.1834569 15.7219783,4.73182759 C15.7219783,4.28019828 15.9512698,3.88299569 16.298347,3.65279741 Z M13.5333699,16.1289698 C13.5333699,16.4503319 13.2762019,16.7108664 12.9589923,16.7108664 L3.59273183,16.7108664 C3.27552223,16.7108664 3.01835424,16.4503319 3.01835424,16.1289698 L3.01835424,3.73309914 C3.01835424,3.41173707 3.27552223,3.15120259 3.59273183,3.15120259 L12.9589923,3.15120259 C13.2762019,3.15120259 13.5333699,3.41173707 13.5333699,3.73309914 L13.5333699,16.1289698 Z" id="Shape"></path>
                    <path d="M8.82758621,13.1906011 C9.41405294,13.7676937 9.78350892,14.5653196 9.80202071,15.4482759 L12.6896552,15.4482759 L12.6896552,12.6896552 L10.5232418,12.6896552 C9.91095707,12.6896552 9.32789717,12.8649286 8.82758621,13.1906011 Z" id="Path"></path>
                    <path d="M6.9288632,13.7931034 L4.4137931,13.7931034 L4.4137931,15.4482759 L8.82758621,15.4482759 C8.79312578,14.5303461 7.95491074,13.7931034 6.9288632,13.7931034 L6.9288632,13.7931034 Z" id="Path"></path>
                    <path d="M4.4137931,12.4869059 L6.92437163,12.4869059 C7.31170613,12.4869059 7.68203401,12.5592103 8.0232848,12.6896552 C8.75892727,12.0779426 9.67867317,11.7452816 10.6542594,11.7452816 L12.6896552,11.7452816 L12.6896552,4.4137931 L4.4137931,4.4137931 L4.4137931,12.4869059 Z M9.5780603,5.55604232 C10.5349431,5.55604232 11.3134299,6.32466181 11.3134299,7.26941613 C11.3134299,8.21417046 10.5349431,8.98278995 9.5780603,8.98278995 C8.62117749,8.98278995 7.84269067,8.21417046 7.84269067,7.26941613 C7.84269067,6.32466181 8.62117749,5.55604232 9.5780603,5.55604232 Z" id="Shape"></path>
                </g>
            </g>
        </g>
    </g>
</svg>