<?xml version="1.0" encoding="UTF-8"?>
<svg width="20px" height="20px" viewBox="0 0 20 20" version="1.1" xmlns="http://www.w3.org/2000/svg" xmlns:xlink="http://www.w3.org/1999/xlink">
    <title>package</title>
    <g id="Page-1" stroke="none" stroke-width="1" fill="none" fill-rule="evenodd">
        <g id="Artboard-Copy-8" transform="translate(-1157.000000, -745.000000)" fill="#E5AC9C" fill-rule="nonzero">
            <g id="USP" transform="translate(72.000000, 737.000000)">
                <g id="Group-5" transform="translate(1085.000000, 8.000000)">
                    <path d="M13.4782609,1.67595095 L4.45583614,6.52173913 L0.869565217,4.67067586 L9.7329315,0.0795175069 C9.93175456,-0.0265058356 10.1703422,-0.0265058356 10.3791064,0.0795175069 L13.4782609,1.67595095 Z" id="Path"></path>
                    <polygon id="Path" points="19.1304348 4.612536 10.0003295 9.13043478 6.58127732 7.44753806 6.08695652 7.19654368 15.0695894 2.60869565 15.5639102 2.8588671"></polygon>
                    <path d="M9.56521739,10.5687149 L9.55489336,20 L0.423285389,15.4782405 C0.165184542,15.3492572 -1.5750364e-13,15.0904745 -1.5750364e-13,14.8120993 L-1.5750364e-13,6.08695652 L3.86979203,7.89598688 L3.86979203,11.0764843 C3.86979203,11.4838427 4.22080919,11.8218113 4.64409457,11.8218113 C5.06737996,11.8218113 5.41839712,11.4838427 5.41839712,11.0764843 L5.41839712,8.63151772 L5.93459881,8.86989176 L9.56521739,10.5687149 Z" id="Path"></path>
                    <polygon id="Path" points="19.9901239 6.08695652 10.8794413 10.555415 10.8695652 20 20 15.2642188"></polygon>
                </g>
            </g>
        </g>
    </g>
</svg>