<?xml version="1.0" encoding="UTF-8"?>
<svg width="30px" height="36px" viewBox="0 0 30 36" version="1.1" xmlns="http://www.w3.org/2000/svg" xmlns:xlink="http://www.w3.org/1999/xlink">
    <title>diamond</title>
    <g id="Page-1" stroke="none" stroke-width="1" fill="none" fill-rule="evenodd">
        <g id="SELL-WITH-OMNEQUE" transform="translate(-140.000000, -999.000000)" fill="#000000" fill-rule="nonzero">
            <g id="WHAT-TO-SELL" transform="translate(43.500000, 588.000000)">
                <g id="VALUE" transform="translate(91.500000, 411.000000)">
                    <g id="diamond" transform="translate(5.000000, 0.000000)">
                        <path d="M14.5,18 C14.7759765,18 15,17.7759765 15,17.5 C15,17.2240235 14.7759765,17 14.5,17 C14.2240234,17 14,17.2240235 14,17.5 C14,17.7759766 14.2240234,18 14.5,18 Z" id="Path"></path>
                        <path d="M15,5.30232558 L15,0.697674419 C15,0.312318279 14.7761719,0 14.5,0 C14.2238281,0 14,0.312318279 14,0.697674419 L14,5.30232558 C14,5.68768172 14.2238281,6 14.5,6 C14.7761719,6 15,5.68768172 15,5.30232558 Z" id="Path"></path>
                        <path d="M6.69988864,7.90675716 C6.98697746,7.71513958 7.08517351,7.29010694 6.91948229,6.95762603 L5.11961104,3.34756243 C4.95391976,3.01508159 4.58714913,2.90135954 4.30006031,3.09324851 C4.01320583,3.28513742 3.91477531,3.70989873 4.0804666,4.04237958 L5.88033784,7.65244317 C6.04673222,7.98655253 6.41444028,8.09783187 6.69988864,7.90675716 Z" id="Path"></path>
                        <path d="M24.119611,7.6524416 L25.9194823,4.04237922 C26.0851735,3.70989849 25.9869775,3.28513732 25.6998886,3.09324848 C25.4127998,2.90135958 25.0460291,3.01508158 24.8803378,3.34756231 L23.0804666,6.95762469 C22.9147753,7.29010549 23.0132058,7.71513798 23.3000603,7.90675549 C23.5859773,8.09810154 23.953451,7.98600798 24.119611,7.6524416 L24.119611,7.6524416 Z" id="Path"></path>
                        <path d="M0.159565449,18.2623591 L0.162076596,18.2654115 C0.162355668,18.2656891 0.162634668,18.266244 0.162913669,18.2665216 L14.4453022,35.737769 C14.4469763,35.7399889 14.4492085,35.7416538 14.4508826,35.7438738 C14.5906707,35.9106472 14.7968653,36 14.9994326,36 C15.2123235,36 15.4193551,35.9020449 15.5535629,35.737769 L29.8359515,18.2665216 C29.8362305,18.2659665 29.8365095,18.2656891 29.8367885,18.2654115 L29.8392997,18.2623591 C30.012012,18.0511869 30.0005722,17.8069929 29.9994562,17.8142077 C29.9994562,17.6518742 29.9400253,17.4914831 29.8429269,17.3704961 L24.1286322,10.2666709 C23.9905182,10.0949027 23.7790223,10 23.5708747,10 L6.42799054,10 C6.42547932,10 6.42296817,10.000555 6.42045702,10.000555 C6.20784505,10.0027749 6.00304565,10.101285 5.86995394,10.2666709 L0.155659229,17.3704961 C-0.0569527488,17.635502 -0.0480241633,18.0084529 0.159565449,18.2623591 Z M2.21509326,18.5245902 L8.39702264,18.5245902 L12.9960812,31.7127306 L2.21509326,18.5245902 Z M17.0027839,31.7127306 L21.6018425,18.5245902 L27.7840509,18.5245902 L17.0027839,31.7127306 Z M23.8217121,12.1591743 L27.7991179,17.1038251 L22.097379,17.1038251 L23.8217121,12.1591743 Z M22.5672458,11.420765 L20.8164061,16.440894 L16.5407296,11.420765 L22.5672458,11.420765 Z M19.5089263,17.1038251 L17.85658,17.1038251 C17.4620481,17.1038251 17.1422931,17.4218323 17.1422931,17.8142077 C17.1422931,18.206583 17.4620481,18.5245902 17.85658,18.5245902 L20.0898423,18.5245902 L14.9994326,33.1215634 L9.90902273,18.5245902 L12.1422853,18.5245902 C12.5368171,18.5245902 12.8565721,18.206583 12.8565721,17.8142077 C12.8565721,17.4218323 12.5368171,17.1038251 12.1422853,17.1038251 L10.4899389,17.1038251 L14.9994326,11.8095329 L19.5089263,17.1038251 Z M13.4584145,11.420765 L9.18245916,16.440894 L7.43189833,11.420765 L13.4584145,11.420765 Z M6.17715307,12.1591743 L7.90148614,17.1038251 L2.19974723,17.1038251 L6.17715307,12.1591743 Z" id="Shape"></path>
                    </g>
                </g>
            </g>
        </g>
    </g>
</svg>